<?xml version="1.0" encoding="utf-8" standalone="no"?>
<!DOCTYPE svg PUBLIC "-//W3C//DTD SVG 1.1//EN"
  "http://www.w3.org/Graphics/SVG/1.1/DTD/svg11.dtd">
<svg xmlns:xlink="http://www.w3.org/1999/xlink" width="402.802812pt" height="297.190125pt" viewBox="0 0 402.802812 297.190125" xmlns="http://www.w3.org/2000/svg" version="1.1">
 <metadata>
  <rdf:RDF xmlns:dc="http://purl.org/dc/elements/1.1/" xmlns:cc="http://creativecommons.org/ns#" xmlns:rdf="http://www.w3.org/1999/02/22-rdf-syntax-ns#">
   <cc:Work>
    <dc:type rdf:resource="http://purl.org/dc/dcmitype/StillImage"/>
    <dc:date>2023-12-04T20:48:56.681480</dc:date>
    <dc:format>image/svg+xml</dc:format>
    <dc:creator>
     <cc:Agent>
      <dc:title>Matplotlib v3.8.2, https://matplotlib.org/</dc:title>
     </cc:Agent>
    </dc:creator>
   </cc:Work>
  </rdf:RDF>
 </metadata>
 <defs>
  <style type="text/css">*{stroke-linejoin: round; stroke-linecap: butt}</style>
 </defs>
 <g id="figure_1">
  <g id="patch_1">
   <path d="M 0 297.190125 
L 402.802812 297.190125 
L 402.802812 0 
L 0 0 
z
" style="fill: #ffffff"/>
  </g>
  <g id="axes_1">
   <g id="patch_2">
    <path d="M 38.482813 273.312 
L 395.602813 273.312 
L 395.602813 7.2 
L 38.482813 7.2 
z
" style="fill: #ffffff"/>
   </g>
   <g id="PathCollection_1">
    <defs>
     <path id="m9e18300787" d="M 0 1.581139 
C 0.419323 1.581139 0.821528 1.41454 1.118034 1.118034 
C 1.41454 0.821528 1.581139 0.419323 1.581139 0 
C 1.581139 -0.419323 1.41454 -0.821528 1.118034 -1.118034 
C 0.821528 -1.41454 0.419323 -1.581139 0 -1.581139 
C -0.419323 -1.581139 -0.821528 -1.41454 -1.118034 -1.118034 
C -1.41454 -0.821528 -1.581139 -0.419323 -1.581139 0 
C -1.581139 0.419323 -1.41454 0.821528 -1.118034 1.118034 
C -0.821528 1.41454 -0.419323 1.581139 0 1.581139 
z
" style="stroke: #0000ff"/>
    </defs>
    <g clip-path="url(#p68eb9978ad)">
     <use xlink:href="#m9e18300787" x="54.71554" y="19.296" style="fill: #0000ff; stroke: #0000ff"/>
     <use xlink:href="#m9e18300787" x="57.994879" y="90.164732" style="fill: #0000ff; stroke: #0000ff"/>
     <use xlink:href="#m9e18300787" x="61.274217" y="149.351895" style="fill: #0000ff; stroke: #0000ff"/>
     <use xlink:href="#m9e18300787" x="64.553556" y="110.99613" style="fill: #0000ff; stroke: #0000ff"/>
     <use xlink:href="#m9e18300787" x="67.832895" y="38.363156" style="fill: #0000ff; stroke: #0000ff"/>
     <use xlink:href="#m9e18300787" x="71.112234" y="203.142775" style="fill: #0000ff; stroke: #0000ff"/>
     <use xlink:href="#m9e18300787" x="74.391573" y="89.264343" style="fill: #0000ff; stroke: #0000ff"/>
     <use xlink:href="#m9e18300787" x="77.670912" y="152.863662" style="fill: #0000ff; stroke: #0000ff"/>
     <use xlink:href="#m9e18300787" x="80.950251" y="169.13097" style="fill: #0000ff; stroke: #0000ff"/>
     <use xlink:href="#m9e18300787" x="84.229589" y="76.019135" style="fill: #0000ff; stroke: #0000ff"/>
     <use xlink:href="#m9e18300787" x="87.508928" y="64.198103" style="fill: #0000ff; stroke: #0000ff"/>
     <use xlink:href="#m9e18300787" x="90.788267" y="84.080306" style="fill: #0000ff; stroke: #0000ff"/>
     <use xlink:href="#m9e18300787" x="94.067606" y="39.634408" style="fill: #0000ff; stroke: #0000ff"/>
     <use xlink:href="#m9e18300787" x="97.346945" y="123.523927" style="fill: #0000ff; stroke: #0000ff"/>
     <use xlink:href="#m9e18300787" x="100.626284" y="41.854577" style="fill: #0000ff; stroke: #0000ff"/>
     <use xlink:href="#m9e18300787" x="103.905622" y="107.364201" style="fill: #0000ff; stroke: #0000ff"/>
     <use xlink:href="#m9e18300787" x="107.184961" y="172.003283" style="fill: #0000ff; stroke: #0000ff"/>
     <use xlink:href="#m9e18300787" x="110.4643" y="128.156259" style="fill: #0000ff; stroke: #0000ff"/>
     <use xlink:href="#m9e18300787" x="113.743639" y="117.510254" style="fill: #0000ff; stroke: #0000ff"/>
     <use xlink:href="#m9e18300787" x="117.022978" y="76.061698" style="fill: #0000ff; stroke: #0000ff"/>
     <use xlink:href="#m9e18300787" x="120.302317" y="116.245572" style="fill: #0000ff; stroke: #0000ff"/>
     <use xlink:href="#m9e18300787" x="123.581655" y="109.705117" style="fill: #0000ff; stroke: #0000ff"/>
     <use xlink:href="#m9e18300787" x="126.860994" y="66.268042" style="fill: #0000ff; stroke: #0000ff"/>
     <use xlink:href="#m9e18300787" x="130.140333" y="75.515033" style="fill: #0000ff; stroke: #0000ff"/>
     <use xlink:href="#m9e18300787" x="133.419672" y="46.346992" style="fill: #0000ff; stroke: #0000ff"/>
     <use xlink:href="#m9e18300787" x="136.699011" y="149.678297" style="fill: #0000ff; stroke: #0000ff"/>
     <use xlink:href="#m9e18300787" x="139.97835" y="80.365514" style="fill: #0000ff; stroke: #0000ff"/>
     <use xlink:href="#m9e18300787" x="143.257689" y="58.44344" style="fill: #0000ff; stroke: #0000ff"/>
     <use xlink:href="#m9e18300787" x="146.537027" y="85.798929" style="fill: #0000ff; stroke: #0000ff"/>
     <use xlink:href="#m9e18300787" x="149.816366" y="179.250892" style="fill: #0000ff; stroke: #0000ff"/>
     <use xlink:href="#m9e18300787" x="153.095705" y="147.295411" style="fill: #0000ff; stroke: #0000ff"/>
     <use xlink:href="#m9e18300787" x="156.375044" y="135.137962" style="fill: #0000ff; stroke: #0000ff"/>
     <use xlink:href="#m9e18300787" x="159.654383" y="155.067201" style="fill: #0000ff; stroke: #0000ff"/>
     <use xlink:href="#m9e18300787" x="162.933722" y="113.098198" style="fill: #0000ff; stroke: #0000ff"/>
     <use xlink:href="#m9e18300787" x="166.21306" y="96.791781" style="fill: #0000ff; stroke: #0000ff"/>
     <use xlink:href="#m9e18300787" x="169.492399" y="98.830369" style="fill: #0000ff; stroke: #0000ff"/>
     <use xlink:href="#m9e18300787" x="172.771738" y="138.487921" style="fill: #0000ff; stroke: #0000ff"/>
     <use xlink:href="#m9e18300787" x="176.051077" y="139.431532" style="fill: #0000ff; stroke: #0000ff"/>
     <use xlink:href="#m9e18300787" x="179.330416" y="134.43284" style="fill: #0000ff; stroke: #0000ff"/>
     <use xlink:href="#m9e18300787" x="182.609755" y="169.007691" style="fill: #0000ff; stroke: #0000ff"/>
     <use xlink:href="#m9e18300787" x="185.889093" y="93.038015" style="fill: #0000ff; stroke: #0000ff"/>
     <use xlink:href="#m9e18300787" x="189.168432" y="123.089183" style="fill: #0000ff; stroke: #0000ff"/>
     <use xlink:href="#m9e18300787" x="192.447771" y="31.523542" style="fill: #0000ff; stroke: #0000ff"/>
     <use xlink:href="#m9e18300787" x="195.72711" y="103.640892" style="fill: #0000ff; stroke: #0000ff"/>
     <use xlink:href="#m9e18300787" x="199.006449" y="121.307894" style="fill: #0000ff; stroke: #0000ff"/>
     <use xlink:href="#m9e18300787" x="202.285788" y="89.029181" style="fill: #0000ff; stroke: #0000ff"/>
     <use xlink:href="#m9e18300787" x="205.565127" y="132.011137" style="fill: #0000ff; stroke: #0000ff"/>
     <use xlink:href="#m9e18300787" x="208.844465" y="161.159155" style="fill: #0000ff; stroke: #0000ff"/>
     <use xlink:href="#m9e18300787" x="212.123804" y="82.264307" style="fill: #0000ff; stroke: #0000ff"/>
     <use xlink:href="#m9e18300787" x="215.403143" y="49.671329" style="fill: #0000ff; stroke: #0000ff"/>
     <use xlink:href="#m9e18300787" x="218.682482" y="127.213368" style="fill: #0000ff; stroke: #0000ff"/>
     <use xlink:href="#m9e18300787" x="221.961821" y="122.396691" style="fill: #0000ff; stroke: #0000ff"/>
     <use xlink:href="#m9e18300787" x="225.24116" y="122.196209" style="fill: #0000ff; stroke: #0000ff"/>
     <use xlink:href="#m9e18300787" x="228.520498" y="104.43566" style="fill: #0000ff; stroke: #0000ff"/>
     <use xlink:href="#m9e18300787" x="231.799837" y="21.572116" style="fill: #0000ff; stroke: #0000ff"/>
     <use xlink:href="#m9e18300787" x="235.079176" y="192.50326" style="fill: #0000ff; stroke: #0000ff"/>
     <use xlink:href="#m9e18300787" x="238.358515" y="146.188094" style="fill: #0000ff; stroke: #0000ff"/>
     <use xlink:href="#m9e18300787" x="241.637854" y="135.393258" style="fill: #0000ff; stroke: #0000ff"/>
     <use xlink:href="#m9e18300787" x="244.917193" y="107.587876" style="fill: #0000ff; stroke: #0000ff"/>
     <use xlink:href="#m9e18300787" x="248.196532" y="44.9243" style="fill: #0000ff; stroke: #0000ff"/>
     <use xlink:href="#m9e18300787" x="251.47587" y="163.11664" style="fill: #0000ff; stroke: #0000ff"/>
     <use xlink:href="#m9e18300787" x="254.755209" y="62.635498" style="fill: #0000ff; stroke: #0000ff"/>
     <use xlink:href="#m9e18300787" x="258.034548" y="125.664509" style="fill: #0000ff; stroke: #0000ff"/>
     <use xlink:href="#m9e18300787" x="261.313887" y="94.335994" style="fill: #0000ff; stroke: #0000ff"/>
     <use xlink:href="#m9e18300787" x="264.593226" y="261.216" style="fill: #0000ff; stroke: #0000ff"/>
     <use xlink:href="#m9e18300787" x="267.872565" y="113.409807" style="fill: #0000ff; stroke: #0000ff"/>
     <use xlink:href="#m9e18300787" x="271.151903" y="106.043045" style="fill: #0000ff; stroke: #0000ff"/>
     <use xlink:href="#m9e18300787" x="274.431242" y="143.192401" style="fill: #0000ff; stroke: #0000ff"/>
     <use xlink:href="#m9e18300787" x="277.710581" y="91.409027" style="fill: #0000ff; stroke: #0000ff"/>
     <use xlink:href="#m9e18300787" x="280.98992" y="114.608487" style="fill: #0000ff; stroke: #0000ff"/>
     <use xlink:href="#m9e18300787" x="284.269259" y="174.540393" style="fill: #0000ff; stroke: #0000ff"/>
     <use xlink:href="#m9e18300787" x="287.548598" y="188.666353" style="fill: #0000ff; stroke: #0000ff"/>
     <use xlink:href="#m9e18300787" x="290.827936" y="175.224706" style="fill: #0000ff; stroke: #0000ff"/>
     <use xlink:href="#m9e18300787" x="294.107275" y="136.782591" style="fill: #0000ff; stroke: #0000ff"/>
     <use xlink:href="#m9e18300787" x="297.386614" y="76.876828" style="fill: #0000ff; stroke: #0000ff"/>
     <use xlink:href="#m9e18300787" x="300.665953" y="82.118444" style="fill: #0000ff; stroke: #0000ff"/>
     <use xlink:href="#m9e18300787" x="303.945292" y="129.536793" style="fill: #0000ff; stroke: #0000ff"/>
     <use xlink:href="#m9e18300787" x="307.224631" y="96.518597" style="fill: #0000ff; stroke: #0000ff"/>
     <use xlink:href="#m9e18300787" x="310.50397" y="178.496936" style="fill: #0000ff; stroke: #0000ff"/>
     <use xlink:href="#m9e18300787" x="313.783308" y="162.598594" style="fill: #0000ff; stroke: #0000ff"/>
     <use xlink:href="#m9e18300787" x="317.062647" y="101.137008" style="fill: #0000ff; stroke: #0000ff"/>
     <use xlink:href="#m9e18300787" x="320.341986" y="89.364439" style="fill: #0000ff; stroke: #0000ff"/>
     <use xlink:href="#m9e18300787" x="323.621325" y="137.041836" style="fill: #0000ff; stroke: #0000ff"/>
     <use xlink:href="#m9e18300787" x="326.900664" y="182.036895" style="fill: #0000ff; stroke: #0000ff"/>
     <use xlink:href="#m9e18300787" x="330.180003" y="102.540792" style="fill: #0000ff; stroke: #0000ff"/>
     <use xlink:href="#m9e18300787" x="333.459341" y="147.735584" style="fill: #0000ff; stroke: #0000ff"/>
     <use xlink:href="#m9e18300787" x="336.73868" y="103.043028" style="fill: #0000ff; stroke: #0000ff"/>
     <use xlink:href="#m9e18300787" x="340.018019" y="210.149095" style="fill: #0000ff; stroke: #0000ff"/>
     <use xlink:href="#m9e18300787" x="343.297358" y="222.547627" style="fill: #0000ff; stroke: #0000ff"/>
     <use xlink:href="#m9e18300787" x="346.576697" y="156.942966" style="fill: #0000ff; stroke: #0000ff"/>
     <use xlink:href="#m9e18300787" x="349.856036" y="146.338974" style="fill: #0000ff; stroke: #0000ff"/>
     <use xlink:href="#m9e18300787" x="353.135374" y="129.320769" style="fill: #0000ff; stroke: #0000ff"/>
     <use xlink:href="#m9e18300787" x="356.414713" y="241.696116" style="fill: #0000ff; stroke: #0000ff"/>
     <use xlink:href="#m9e18300787" x="359.694052" y="176.567547" style="fill: #0000ff; stroke: #0000ff"/>
     <use xlink:href="#m9e18300787" x="362.973391" y="61.060627" style="fill: #0000ff; stroke: #0000ff"/>
     <use xlink:href="#m9e18300787" x="366.25273" y="238.159623" style="fill: #0000ff; stroke: #0000ff"/>
     <use xlink:href="#m9e18300787" x="369.532069" y="152.043147" style="fill: #0000ff; stroke: #0000ff"/>
     <use xlink:href="#m9e18300787" x="372.811408" y="185.164314" style="fill: #0000ff; stroke: #0000ff"/>
     <use xlink:href="#m9e18300787" x="376.090746" y="169.984717" style="fill: #0000ff; stroke: #0000ff"/>
     <use xlink:href="#m9e18300787" x="379.370085" y="115.047961" style="fill: #0000ff; stroke: #0000ff"/>
    </g>
   </g>
   <g id="matplotlib.axis_1">
    <g id="xtick_1">
     <g id="line2d_1">
      <path d="M 54.71554 273.312 
L 54.71554 7.2 
" clip-path="url(#p68eb9978ad)" style="fill: none; stroke-dasharray: 0.8,1.32; stroke-dashoffset: 0; stroke: #b0b0b0; stroke-width: 0.8"/>
     </g>
     <g id="line2d_2">
      <defs>
       <path id="ma8002cb992" d="M 0 0 
L 0 3.5 
" style="stroke: #000000; stroke-width: 0.8"/>
      </defs>
      <g>
       <use xlink:href="#ma8002cb992" x="54.71554" y="273.312" style="stroke: #000000; stroke-width: 0.8"/>
      </g>
     </g>
     <g id="text_1">
      <!-- 0.0 -->
      <g transform="translate(46.763977 287.910437) scale(0.1 -0.1)">
       <defs>
        <path id="DejaVuSans-30" d="M 2034 4250 
Q 1547 4250 1301 3770 
Q 1056 3291 1056 2328 
Q 1056 1369 1301 889 
Q 1547 409 2034 409 
Q 2525 409 2770 889 
Q 3016 1369 3016 2328 
Q 3016 3291 2770 3770 
Q 2525 4250 2034 4250 
z
M 2034 4750 
Q 2819 4750 3233 4129 
Q 3647 3509 3647 2328 
Q 3647 1150 3233 529 
Q 2819 -91 2034 -91 
Q 1250 -91 836 529 
Q 422 1150 422 2328 
Q 422 3509 836 4129 
Q 1250 4750 2034 4750 
z
" transform="scale(0.015625)"/>
        <path id="DejaVuSans-2e" d="M 684 794 
L 1344 794 
L 1344 0 
L 684 0 
L 684 794 
z
" transform="scale(0.015625)"/>
       </defs>
       <use xlink:href="#DejaVuSans-30"/>
       <use xlink:href="#DejaVuSans-2e" x="63.623047"/>
       <use xlink:href="#DejaVuSans-30" x="95.410156"/>
      </g>
     </g>
    </g>
    <g id="xtick_2">
     <g id="line2d_3">
      <path d="M 120.302317 273.312 
L 120.302317 7.2 
" clip-path="url(#p68eb9978ad)" style="fill: none; stroke-dasharray: 0.8,1.32; stroke-dashoffset: 0; stroke: #b0b0b0; stroke-width: 0.8"/>
     </g>
     <g id="line2d_4">
      <g>
       <use xlink:href="#ma8002cb992" x="120.302317" y="273.312" style="stroke: #000000; stroke-width: 0.8"/>
      </g>
     </g>
     <g id="text_2">
      <!-- 0.2 -->
      <g transform="translate(112.350754 287.910437) scale(0.1 -0.1)">
       <defs>
        <path id="DejaVuSans-32" d="M 1228 531 
L 3431 531 
L 3431 0 
L 469 0 
L 469 531 
Q 828 903 1448 1529 
Q 2069 2156 2228 2338 
Q 2531 2678 2651 2914 
Q 2772 3150 2772 3378 
Q 2772 3750 2511 3984 
Q 2250 4219 1831 4219 
Q 1534 4219 1204 4116 
Q 875 4013 500 3803 
L 500 4441 
Q 881 4594 1212 4672 
Q 1544 4750 1819 4750 
Q 2544 4750 2975 4387 
Q 3406 4025 3406 3419 
Q 3406 3131 3298 2873 
Q 3191 2616 2906 2266 
Q 2828 2175 2409 1742 
Q 1991 1309 1228 531 
z
" transform="scale(0.015625)"/>
       </defs>
       <use xlink:href="#DejaVuSans-30"/>
       <use xlink:href="#DejaVuSans-2e" x="63.623047"/>
       <use xlink:href="#DejaVuSans-32" x="95.410156"/>
      </g>
     </g>
    </g>
    <g id="xtick_3">
     <g id="line2d_5">
      <path d="M 185.889093 273.312 
L 185.889093 7.2 
" clip-path="url(#p68eb9978ad)" style="fill: none; stroke-dasharray: 0.8,1.32; stroke-dashoffset: 0; stroke: #b0b0b0; stroke-width: 0.8"/>
     </g>
     <g id="line2d_6">
      <g>
       <use xlink:href="#ma8002cb992" x="185.889093" y="273.312" style="stroke: #000000; stroke-width: 0.8"/>
      </g>
     </g>
     <g id="text_3">
      <!-- 0.4 -->
      <g transform="translate(177.937531 287.910437) scale(0.1 -0.1)">
       <defs>
        <path id="DejaVuSans-34" d="M 2419 4116 
L 825 1625 
L 2419 1625 
L 2419 4116 
z
M 2253 4666 
L 3047 4666 
L 3047 1625 
L 3713 1625 
L 3713 1100 
L 3047 1100 
L 3047 0 
L 2419 0 
L 2419 1100 
L 313 1100 
L 313 1709 
L 2253 4666 
z
" transform="scale(0.015625)"/>
       </defs>
       <use xlink:href="#DejaVuSans-30"/>
       <use xlink:href="#DejaVuSans-2e" x="63.623047"/>
       <use xlink:href="#DejaVuSans-34" x="95.410156"/>
      </g>
     </g>
    </g>
    <g id="xtick_4">
     <g id="line2d_7">
      <path d="M 251.47587 273.312 
L 251.47587 7.2 
" clip-path="url(#p68eb9978ad)" style="fill: none; stroke-dasharray: 0.8,1.32; stroke-dashoffset: 0; stroke: #b0b0b0; stroke-width: 0.8"/>
     </g>
     <g id="line2d_8">
      <g>
       <use xlink:href="#ma8002cb992" x="251.47587" y="273.312" style="stroke: #000000; stroke-width: 0.8"/>
      </g>
     </g>
     <g id="text_4">
      <!-- 0.6 -->
      <g transform="translate(243.524308 287.910437) scale(0.1 -0.1)">
       <defs>
        <path id="DejaVuSans-36" d="M 2113 2584 
Q 1688 2584 1439 2293 
Q 1191 2003 1191 1497 
Q 1191 994 1439 701 
Q 1688 409 2113 409 
Q 2538 409 2786 701 
Q 3034 994 3034 1497 
Q 3034 2003 2786 2293 
Q 2538 2584 2113 2584 
z
M 3366 4563 
L 3366 3988 
Q 3128 4100 2886 4159 
Q 2644 4219 2406 4219 
Q 1781 4219 1451 3797 
Q 1122 3375 1075 2522 
Q 1259 2794 1537 2939 
Q 1816 3084 2150 3084 
Q 2853 3084 3261 2657 
Q 3669 2231 3669 1497 
Q 3669 778 3244 343 
Q 2819 -91 2113 -91 
Q 1303 -91 875 529 
Q 447 1150 447 2328 
Q 447 3434 972 4092 
Q 1497 4750 2381 4750 
Q 2619 4750 2861 4703 
Q 3103 4656 3366 4563 
z
" transform="scale(0.015625)"/>
       </defs>
       <use xlink:href="#DejaVuSans-30"/>
       <use xlink:href="#DejaVuSans-2e" x="63.623047"/>
       <use xlink:href="#DejaVuSans-36" x="95.410156"/>
      </g>
     </g>
    </g>
    <g id="xtick_5">
     <g id="line2d_9">
      <path d="M 317.062647 273.312 
L 317.062647 7.2 
" clip-path="url(#p68eb9978ad)" style="fill: none; stroke-dasharray: 0.8,1.32; stroke-dashoffset: 0; stroke: #b0b0b0; stroke-width: 0.8"/>
     </g>
     <g id="line2d_10">
      <g>
       <use xlink:href="#ma8002cb992" x="317.062647" y="273.312" style="stroke: #000000; stroke-width: 0.8"/>
      </g>
     </g>
     <g id="text_5">
      <!-- 0.8 -->
      <g transform="translate(309.111085 287.910437) scale(0.1 -0.1)">
       <defs>
        <path id="DejaVuSans-38" d="M 2034 2216 
Q 1584 2216 1326 1975 
Q 1069 1734 1069 1313 
Q 1069 891 1326 650 
Q 1584 409 2034 409 
Q 2484 409 2743 651 
Q 3003 894 3003 1313 
Q 3003 1734 2745 1975 
Q 2488 2216 2034 2216 
z
M 1403 2484 
Q 997 2584 770 2862 
Q 544 3141 544 3541 
Q 544 4100 942 4425 
Q 1341 4750 2034 4750 
Q 2731 4750 3128 4425 
Q 3525 4100 3525 3541 
Q 3525 3141 3298 2862 
Q 3072 2584 2669 2484 
Q 3125 2378 3379 2068 
Q 3634 1759 3634 1313 
Q 3634 634 3220 271 
Q 2806 -91 2034 -91 
Q 1263 -91 848 271 
Q 434 634 434 1313 
Q 434 1759 690 2068 
Q 947 2378 1403 2484 
z
M 1172 3481 
Q 1172 3119 1398 2916 
Q 1625 2713 2034 2713 
Q 2441 2713 2670 2916 
Q 2900 3119 2900 3481 
Q 2900 3844 2670 4047 
Q 2441 4250 2034 4250 
Q 1625 4250 1398 4047 
Q 1172 3844 1172 3481 
z
" transform="scale(0.015625)"/>
       </defs>
       <use xlink:href="#DejaVuSans-30"/>
       <use xlink:href="#DejaVuSans-2e" x="63.623047"/>
       <use xlink:href="#DejaVuSans-38" x="95.410156"/>
      </g>
     </g>
    </g>
    <g id="xtick_6">
     <g id="line2d_11">
      <path d="M 382.649424 273.312 
L 382.649424 7.2 
" clip-path="url(#p68eb9978ad)" style="fill: none; stroke-dasharray: 0.8,1.32; stroke-dashoffset: 0; stroke: #b0b0b0; stroke-width: 0.8"/>
     </g>
     <g id="line2d_12">
      <g>
       <use xlink:href="#ma8002cb992" x="382.649424" y="273.312" style="stroke: #000000; stroke-width: 0.8"/>
      </g>
     </g>
     <g id="text_6">
      <!-- 1.0 -->
      <g transform="translate(374.697862 287.910437) scale(0.1 -0.1)">
       <defs>
        <path id="DejaVuSans-31" d="M 794 531 
L 1825 531 
L 1825 4091 
L 703 3866 
L 703 4441 
L 1819 4666 
L 2450 4666 
L 2450 531 
L 3481 531 
L 3481 0 
L 794 0 
L 794 531 
z
" transform="scale(0.015625)"/>
       </defs>
       <use xlink:href="#DejaVuSans-31"/>
       <use xlink:href="#DejaVuSans-2e" x="63.623047"/>
       <use xlink:href="#DejaVuSans-30" x="95.410156"/>
      </g>
     </g>
    </g>
   </g>
   <g id="matplotlib.axis_2">
    <g id="ytick_1">
     <g id="line2d_13">
      <path d="M 38.482813 271.323027 
L 395.602813 271.323027 
" clip-path="url(#p68eb9978ad)" style="fill: none; stroke-dasharray: 0.8,1.32; stroke-dashoffset: 0; stroke: #b0b0b0; stroke-width: 0.8"/>
     </g>
     <g id="line2d_14">
      <defs>
       <path id="m787ff20544" d="M 0 0 
L -3.5 0 
" style="stroke: #000000; stroke-width: 0.8"/>
      </defs>
      <g>
       <use xlink:href="#m787ff20544" x="38.482813" y="271.323027" style="stroke: #000000; stroke-width: 0.8"/>
      </g>
     </g>
     <g id="text_7">
      <!-- −0.5 -->
      <g transform="translate(7.2 275.122246) scale(0.1 -0.1)">
       <defs>
        <path id="DejaVuSans-2212" d="M 678 2272 
L 4684 2272 
L 4684 1741 
L 678 1741 
L 678 2272 
z
" transform="scale(0.015625)"/>
        <path id="DejaVuSans-35" d="M 691 4666 
L 3169 4666 
L 3169 4134 
L 1269 4134 
L 1269 2991 
Q 1406 3038 1543 3061 
Q 1681 3084 1819 3084 
Q 2600 3084 3056 2656 
Q 3513 2228 3513 1497 
Q 3513 744 3044 326 
Q 2575 -91 1722 -91 
Q 1428 -91 1123 -41 
Q 819 9 494 109 
L 494 744 
Q 775 591 1075 516 
Q 1375 441 1709 441 
Q 2250 441 2565 725 
Q 2881 1009 2881 1497 
Q 2881 1984 2565 2268 
Q 2250 2553 1709 2553 
Q 1456 2553 1204 2497 
Q 953 2441 691 2322 
L 691 4666 
z
" transform="scale(0.015625)"/>
       </defs>
       <use xlink:href="#DejaVuSans-2212"/>
       <use xlink:href="#DejaVuSans-30" x="83.789062"/>
       <use xlink:href="#DejaVuSans-2e" x="147.412109"/>
       <use xlink:href="#DejaVuSans-35" x="179.199219"/>
      </g>
     </g>
    </g>
    <g id="ytick_2">
     <g id="line2d_15">
      <path d="M 38.482813 231.739848 
L 395.602813 231.739848 
" clip-path="url(#p68eb9978ad)" style="fill: none; stroke-dasharray: 0.8,1.32; stroke-dashoffset: 0; stroke: #b0b0b0; stroke-width: 0.8"/>
     </g>
     <g id="line2d_16">
      <g>
       <use xlink:href="#m787ff20544" x="38.482813" y="231.739848" style="stroke: #000000; stroke-width: 0.8"/>
      </g>
     </g>
     <g id="text_8">
      <!-- 0.0 -->
      <g transform="translate(15.579688 235.539067) scale(0.1 -0.1)">
       <use xlink:href="#DejaVuSans-30"/>
       <use xlink:href="#DejaVuSans-2e" x="63.623047"/>
       <use xlink:href="#DejaVuSans-30" x="95.410156"/>
      </g>
     </g>
    </g>
    <g id="ytick_3">
     <g id="line2d_17">
      <path d="M 38.482813 192.156669 
L 395.602813 192.156669 
" clip-path="url(#p68eb9978ad)" style="fill: none; stroke-dasharray: 0.8,1.32; stroke-dashoffset: 0; stroke: #b0b0b0; stroke-width: 0.8"/>
     </g>
     <g id="line2d_18">
      <g>
       <use xlink:href="#m787ff20544" x="38.482813" y="192.156669" style="stroke: #000000; stroke-width: 0.8"/>
      </g>
     </g>
     <g id="text_9">
      <!-- 0.5 -->
      <g transform="translate(15.579688 195.955888) scale(0.1 -0.1)">
       <use xlink:href="#DejaVuSans-30"/>
       <use xlink:href="#DejaVuSans-2e" x="63.623047"/>
       <use xlink:href="#DejaVuSans-35" x="95.410156"/>
      </g>
     </g>
    </g>
    <g id="ytick_4">
     <g id="line2d_19">
      <path d="M 38.482813 152.57349 
L 395.602813 152.57349 
" clip-path="url(#p68eb9978ad)" style="fill: none; stroke-dasharray: 0.8,1.32; stroke-dashoffset: 0; stroke: #b0b0b0; stroke-width: 0.8"/>
     </g>
     <g id="line2d_20">
      <g>
       <use xlink:href="#m787ff20544" x="38.482813" y="152.57349" style="stroke: #000000; stroke-width: 0.8"/>
      </g>
     </g>
     <g id="text_10">
      <!-- 1.0 -->
      <g transform="translate(15.579688 156.372709) scale(0.1 -0.1)">
       <use xlink:href="#DejaVuSans-31"/>
       <use xlink:href="#DejaVuSans-2e" x="63.623047"/>
       <use xlink:href="#DejaVuSans-30" x="95.410156"/>
      </g>
     </g>
    </g>
    <g id="ytick_5">
     <g id="line2d_21">
      <path d="M 38.482813 112.990311 
L 395.602813 112.990311 
" clip-path="url(#p68eb9978ad)" style="fill: none; stroke-dasharray: 0.8,1.32; stroke-dashoffset: 0; stroke: #b0b0b0; stroke-width: 0.8"/>
     </g>
     <g id="line2d_22">
      <g>
       <use xlink:href="#m787ff20544" x="38.482813" y="112.990311" style="stroke: #000000; stroke-width: 0.8"/>
      </g>
     </g>
     <g id="text_11">
      <!-- 1.5 -->
      <g transform="translate(15.579688 116.78953) scale(0.1 -0.1)">
       <use xlink:href="#DejaVuSans-31"/>
       <use xlink:href="#DejaVuSans-2e" x="63.623047"/>
       <use xlink:href="#DejaVuSans-35" x="95.410156"/>
      </g>
     </g>
    </g>
    <g id="ytick_6">
     <g id="line2d_23">
      <path d="M 38.482813 73.407132 
L 395.602813 73.407132 
" clip-path="url(#p68eb9978ad)" style="fill: none; stroke-dasharray: 0.8,1.32; stroke-dashoffset: 0; stroke: #b0b0b0; stroke-width: 0.8"/>
     </g>
     <g id="line2d_24">
      <g>
       <use xlink:href="#m787ff20544" x="38.482813" y="73.407132" style="stroke: #000000; stroke-width: 0.8"/>
      </g>
     </g>
     <g id="text_12">
      <!-- 2.0 -->
      <g transform="translate(15.579688 77.206351) scale(0.1 -0.1)">
       <use xlink:href="#DejaVuSans-32"/>
       <use xlink:href="#DejaVuSans-2e" x="63.623047"/>
       <use xlink:href="#DejaVuSans-30" x="95.410156"/>
      </g>
     </g>
    </g>
    <g id="ytick_7">
     <g id="line2d_25">
      <path d="M 38.482813 33.823953 
L 395.602813 33.823953 
" clip-path="url(#p68eb9978ad)" style="fill: none; stroke-dasharray: 0.8,1.32; stroke-dashoffset: 0; stroke: #b0b0b0; stroke-width: 0.8"/>
     </g>
     <g id="line2d_26">
      <g>
       <use xlink:href="#m787ff20544" x="38.482813" y="33.823953" style="stroke: #000000; stroke-width: 0.8"/>
      </g>
     </g>
     <g id="text_13">
      <!-- 2.5 -->
      <g transform="translate(15.579688 37.623172) scale(0.1 -0.1)">
       <use xlink:href="#DejaVuSans-32"/>
       <use xlink:href="#DejaVuSans-2e" x="63.623047"/>
       <use xlink:href="#DejaVuSans-35" x="95.410156"/>
      </g>
     </g>
    </g>
   </g>
   <g id="line2d_27">
    <path d="M 54.71554 97.157039 
L 57.994879 97.552871 
L 61.274217 97.948703 
L 64.553556 98.344535 
L 67.832895 98.740367 
L 71.112234 99.136198 
L 74.391573 99.53203 
L 77.670912 99.927862 
L 80.950251 100.323694 
L 84.229589 100.719526 
L 87.508928 101.115357 
L 90.788267 101.511189 
L 94.067606 101.907021 
L 97.346945 102.302853 
L 100.626284 102.698684 
L 103.905622 103.094516 
L 107.184961 103.490348 
L 110.4643 103.88618 
L 113.743639 104.282012 
L 117.022978 104.677843 
L 120.302317 105.073675 
L 123.581655 105.469507 
L 126.860994 105.865339 
L 130.140333 106.261171 
L 133.419672 106.657002 
L 136.699011 107.052834 
L 139.97835 107.448666 
L 143.257689 107.844498 
L 146.537027 108.24033 
L 149.816366 108.636161 
L 153.095705 109.031993 
L 156.375044 109.427825 
L 159.654383 109.823657 
L 162.933722 110.219488 
L 166.21306 110.61532 
L 169.492399 111.011152 
L 172.771738 111.406984 
L 176.051077 111.802816 
L 179.330416 112.198647 
L 182.609755 112.594479 
L 185.889093 112.990311 
L 189.168432 113.386143 
L 192.447771 113.781975 
L 195.72711 114.177806 
L 199.006449 114.573638 
L 202.285788 114.96947 
L 205.565127 115.365302 
L 208.844465 115.761134 
L 212.123804 116.156965 
L 215.403143 116.552797 
L 218.682482 116.948629 
L 221.961821 117.344461 
L 225.24116 117.740292 
L 228.520498 118.136124 
L 231.799837 118.531956 
L 235.079176 118.927788 
L 238.358515 119.32362 
L 241.637854 119.719451 
L 244.917193 120.115283 
L 248.196532 120.511115 
L 251.47587 120.906947 
L 254.755209 121.302779 
L 258.034548 121.69861 
L 261.313887 122.094442 
L 264.593226 122.490274 
L 267.872565 122.886106 
L 271.151903 123.281938 
L 274.431242 123.677769 
L 277.710581 124.073601 
L 280.98992 124.469433 
L 284.269259 124.865265 
L 287.548598 125.261097 
L 290.827936 125.656928 
L 294.107275 126.05276 
L 297.386614 126.448592 
L 300.665953 126.844424 
L 303.945292 127.240255 
L 307.224631 127.636087 
L 310.50397 128.031919 
L 313.783308 128.427751 
L 317.062647 128.823583 
L 320.341986 129.219414 
L 323.621325 129.615246 
L 326.900664 130.011078 
L 330.180003 130.40691 
L 333.459341 130.802742 
L 336.73868 131.198573 
L 340.018019 131.594405 
L 343.297358 131.990237 
L 346.576697 132.386069 
L 349.856036 132.781901 
L 353.135374 133.177732 
L 356.414713 133.573564 
L 359.694052 133.969396 
L 362.973391 134.365228 
L 366.25273 134.761059 
L 369.532069 135.156891 
L 372.811408 135.552723 
L 376.090746 135.948555 
L 379.370085 136.344387 
" clip-path="url(#p68eb9978ad)" style="fill: none; stroke: #ff0000; stroke-width: 2; stroke-linecap: square"/>
   </g>
   <g id="patch_3">
    <path d="M 38.482813 273.312 
L 38.482813 7.2 
" style="fill: none; stroke: #000000; stroke-width: 0.8; stroke-linejoin: miter; stroke-linecap: square"/>
   </g>
   <g id="patch_4">
    <path d="M 395.602813 273.312 
L 395.602813 7.2 
" style="fill: none; stroke: #000000; stroke-width: 0.8; stroke-linejoin: miter; stroke-linecap: square"/>
   </g>
   <g id="patch_5">
    <path d="M 38.482813 273.312 
L 395.602813 273.312 
" style="fill: none; stroke: #000000; stroke-width: 0.8; stroke-linejoin: miter; stroke-linecap: square"/>
   </g>
   <g id="patch_6">
    <path d="M 38.482813 7.2 
L 395.602813 7.2 
" style="fill: none; stroke: #000000; stroke-width: 0.8; stroke-linejoin: miter; stroke-linecap: square"/>
   </g>
   <g id="legend_1">
    <g id="patch_7">
     <path d="M 292.021563 44.55625 
L 388.602813 44.55625 
Q 390.602813 44.55625 390.602813 42.55625 
L 390.602813 14.2 
Q 390.602813 12.2 388.602813 12.2 
L 292.021563 12.2 
Q 290.021563 12.2 290.021563 14.2 
L 290.021563 42.55625 
Q 290.021563 44.55625 292.021563 44.55625 
z
" style="fill: #ffffff; opacity: 0.8; stroke: #cccccc; stroke-linejoin: miter"/>
    </g>
    <g id="line2d_28">
     <path d="M 294.021563 20.298437 
L 304.021563 20.298437 
L 314.021563 20.298437 
" style="fill: none; stroke: #ff0000; stroke-width: 2; stroke-linecap: square"/>
    </g>
    <g id="text_14">
     <!-- Ground truth -->
     <g transform="translate(322.021563 23.798437) scale(0.1 -0.1)">
      <defs>
       <path id="DejaVuSans-47" d="M 3809 666 
L 3809 1919 
L 2778 1919 
L 2778 2438 
L 4434 2438 
L 4434 434 
Q 4069 175 3628 42 
Q 3188 -91 2688 -91 
Q 1594 -91 976 548 
Q 359 1188 359 2328 
Q 359 3472 976 4111 
Q 1594 4750 2688 4750 
Q 3144 4750 3555 4637 
Q 3966 4525 4313 4306 
L 4313 3634 
Q 3963 3931 3569 4081 
Q 3175 4231 2741 4231 
Q 1884 4231 1454 3753 
Q 1025 3275 1025 2328 
Q 1025 1384 1454 906 
Q 1884 428 2741 428 
Q 3075 428 3337 486 
Q 3600 544 3809 666 
z
" transform="scale(0.015625)"/>
       <path id="DejaVuSans-72" d="M 2631 2963 
Q 2534 3019 2420 3045 
Q 2306 3072 2169 3072 
Q 1681 3072 1420 2755 
Q 1159 2438 1159 1844 
L 1159 0 
L 581 0 
L 581 3500 
L 1159 3500 
L 1159 2956 
Q 1341 3275 1631 3429 
Q 1922 3584 2338 3584 
Q 2397 3584 2469 3576 
Q 2541 3569 2628 3553 
L 2631 2963 
z
" transform="scale(0.015625)"/>
       <path id="DejaVuSans-6f" d="M 1959 3097 
Q 1497 3097 1228 2736 
Q 959 2375 959 1747 
Q 959 1119 1226 758 
Q 1494 397 1959 397 
Q 2419 397 2687 759 
Q 2956 1122 2956 1747 
Q 2956 2369 2687 2733 
Q 2419 3097 1959 3097 
z
M 1959 3584 
Q 2709 3584 3137 3096 
Q 3566 2609 3566 1747 
Q 3566 888 3137 398 
Q 2709 -91 1959 -91 
Q 1206 -91 779 398 
Q 353 888 353 1747 
Q 353 2609 779 3096 
Q 1206 3584 1959 3584 
z
" transform="scale(0.015625)"/>
       <path id="DejaVuSans-75" d="M 544 1381 
L 544 3500 
L 1119 3500 
L 1119 1403 
Q 1119 906 1312 657 
Q 1506 409 1894 409 
Q 2359 409 2629 706 
Q 2900 1003 2900 1516 
L 2900 3500 
L 3475 3500 
L 3475 0 
L 2900 0 
L 2900 538 
Q 2691 219 2414 64 
Q 2138 -91 1772 -91 
Q 1169 -91 856 284 
Q 544 659 544 1381 
z
M 1991 3584 
L 1991 3584 
z
" transform="scale(0.015625)"/>
       <path id="DejaVuSans-6e" d="M 3513 2113 
L 3513 0 
L 2938 0 
L 2938 2094 
Q 2938 2591 2744 2837 
Q 2550 3084 2163 3084 
Q 1697 3084 1428 2787 
Q 1159 2491 1159 1978 
L 1159 0 
L 581 0 
L 581 3500 
L 1159 3500 
L 1159 2956 
Q 1366 3272 1645 3428 
Q 1925 3584 2291 3584 
Q 2894 3584 3203 3211 
Q 3513 2838 3513 2113 
z
" transform="scale(0.015625)"/>
       <path id="DejaVuSans-64" d="M 2906 2969 
L 2906 4863 
L 3481 4863 
L 3481 0 
L 2906 0 
L 2906 525 
Q 2725 213 2448 61 
Q 2172 -91 1784 -91 
Q 1150 -91 751 415 
Q 353 922 353 1747 
Q 353 2572 751 3078 
Q 1150 3584 1784 3584 
Q 2172 3584 2448 3432 
Q 2725 3281 2906 2969 
z
M 947 1747 
Q 947 1113 1208 752 
Q 1469 391 1925 391 
Q 2381 391 2643 752 
Q 2906 1113 2906 1747 
Q 2906 2381 2643 2742 
Q 2381 3103 1925 3103 
Q 1469 3103 1208 2742 
Q 947 2381 947 1747 
z
" transform="scale(0.015625)"/>
       <path id="DejaVuSans-20" transform="scale(0.015625)"/>
       <path id="DejaVuSans-74" d="M 1172 4494 
L 1172 3500 
L 2356 3500 
L 2356 3053 
L 1172 3053 
L 1172 1153 
Q 1172 725 1289 603 
Q 1406 481 1766 481 
L 2356 481 
L 2356 0 
L 1766 0 
Q 1100 0 847 248 
Q 594 497 594 1153 
L 594 3053 
L 172 3053 
L 172 3500 
L 594 3500 
L 594 4494 
L 1172 4494 
z
" transform="scale(0.015625)"/>
       <path id="DejaVuSans-68" d="M 3513 2113 
L 3513 0 
L 2938 0 
L 2938 2094 
Q 2938 2591 2744 2837 
Q 2550 3084 2163 3084 
Q 1697 3084 1428 2787 
Q 1159 2491 1159 1978 
L 1159 0 
L 581 0 
L 581 4863 
L 1159 4863 
L 1159 2956 
Q 1366 3272 1645 3428 
Q 1925 3584 2291 3584 
Q 2894 3584 3203 3211 
Q 3513 2838 3513 2113 
z
" transform="scale(0.015625)"/>
      </defs>
      <use xlink:href="#DejaVuSans-47"/>
      <use xlink:href="#DejaVuSans-72" x="77.490234"/>
      <use xlink:href="#DejaVuSans-6f" x="116.353516"/>
      <use xlink:href="#DejaVuSans-75" x="177.535156"/>
      <use xlink:href="#DejaVuSans-6e" x="240.914062"/>
      <use xlink:href="#DejaVuSans-64" x="304.292969"/>
      <use xlink:href="#DejaVuSans-20" x="367.769531"/>
      <use xlink:href="#DejaVuSans-74" x="399.556641"/>
      <use xlink:href="#DejaVuSans-72" x="438.765625"/>
      <use xlink:href="#DejaVuSans-75" x="479.878906"/>
      <use xlink:href="#DejaVuSans-74" x="543.257812"/>
      <use xlink:href="#DejaVuSans-68" x="582.466797"/>
     </g>
    </g>
    <g id="PathCollection_2">
     <g>
      <use xlink:href="#m9e18300787" x="304.021563" y="35.851562" style="fill: #0000ff; stroke: #0000ff"/>
     </g>
    </g>
    <g id="text_15">
     <!-- Data -->
     <g transform="translate(322.021563 38.476562) scale(0.1 -0.1)">
      <defs>
       <path id="DejaVuSans-44" d="M 1259 4147 
L 1259 519 
L 2022 519 
Q 2988 519 3436 956 
Q 3884 1394 3884 2338 
Q 3884 3275 3436 3711 
Q 2988 4147 2022 4147 
L 1259 4147 
z
M 628 4666 
L 1925 4666 
Q 3281 4666 3915 4102 
Q 4550 3538 4550 2338 
Q 4550 1131 3912 565 
Q 3275 0 1925 0 
L 628 0 
L 628 4666 
z
" transform="scale(0.015625)"/>
       <path id="DejaVuSans-61" d="M 2194 1759 
Q 1497 1759 1228 1600 
Q 959 1441 959 1056 
Q 959 750 1161 570 
Q 1363 391 1709 391 
Q 2188 391 2477 730 
Q 2766 1069 2766 1631 
L 2766 1759 
L 2194 1759 
z
M 3341 1997 
L 3341 0 
L 2766 0 
L 2766 531 
Q 2569 213 2275 61 
Q 1981 -91 1556 -91 
Q 1019 -91 701 211 
Q 384 513 384 1019 
Q 384 1609 779 1909 
Q 1175 2209 1959 2209 
L 2766 2209 
L 2766 2266 
Q 2766 2663 2505 2880 
Q 2244 3097 1772 3097 
Q 1472 3097 1187 3025 
Q 903 2953 641 2809 
L 641 3341 
Q 956 3463 1253 3523 
Q 1550 3584 1831 3584 
Q 2591 3584 2966 3190 
Q 3341 2797 3341 1997 
z
" transform="scale(0.015625)"/>
      </defs>
      <use xlink:href="#DejaVuSans-44"/>
      <use xlink:href="#DejaVuSans-61" x="77.001953"/>
      <use xlink:href="#DejaVuSans-74" x="138.28125"/>
      <use xlink:href="#DejaVuSans-61" x="177.490234"/>
     </g>
    </g>
   </g>
  </g>
 </g>
 <defs>
  <clipPath id="p68eb9978ad">
   <rect x="38.482813" y="7.2" width="357.12" height="266.112"/>
  </clipPath>
 </defs>
</svg>