<?xml version="1.0" encoding="utf-8" standalone="no"?>
<!DOCTYPE svg PUBLIC "-//W3C//DTD SVG 1.1//EN"
  "http://www.w3.org/Graphics/SVG/1.1/DTD/svg11.dtd">
<svg xmlns:xlink="http://www.w3.org/1999/xlink" width="402.802812pt" height="297.190125pt" viewBox="0 0 402.802812 297.190125" xmlns="http://www.w3.org/2000/svg" version="1.1">
 <metadata>
  <rdf:RDF xmlns:dc="http://purl.org/dc/elements/1.1/" xmlns:cc="http://creativecommons.org/ns#" xmlns:rdf="http://www.w3.org/1999/02/22-rdf-syntax-ns#">
   <cc:Work>
    <dc:type rdf:resource="http://purl.org/dc/dcmitype/StillImage"/>
    <dc:date>2023-12-04T12:34:05.782449</dc:date>
    <dc:format>image/svg+xml</dc:format>
    <dc:creator>
     <cc:Agent>
      <dc:title>Matplotlib v3.8.2, https://matplotlib.org/</dc:title>
     </cc:Agent>
    </dc:creator>
   </cc:Work>
  </rdf:RDF>
 </metadata>
 <defs>
  <style type="text/css">*{stroke-linejoin: round; stroke-linecap: butt}</style>
 </defs>
 <g id="figure_1">
  <g id="patch_1">
   <path d="M 0 297.190125 
L 402.802812 297.190125 
L 402.802812 0 
L 0 0 
z
" style="fill: #ffffff"/>
  </g>
  <g id="axes_1">
   <g id="patch_2">
    <path d="M 38.482813 273.312 
L 395.602813 273.312 
L 395.602813 7.2 
L 38.482813 7.2 
z
" style="fill: #ffffff"/>
   </g>
   <g id="PathCollection_1">
    <defs>
     <path id="mc134d3440d" d="M 0 1.581139 
C 0.419323 1.581139 0.821528 1.41454 1.118034 1.118034 
C 1.41454 0.821528 1.581139 0.419323 1.581139 0 
C 1.581139 -0.419323 1.41454 -0.821528 1.118034 -1.118034 
C 0.821528 -1.41454 0.419323 -1.581139 0 -1.581139 
C -0.419323 -1.581139 -0.821528 -1.41454 -1.118034 -1.118034 
C -1.41454 -0.821528 -1.581139 -0.419323 -1.581139 0 
C -1.581139 0.419323 -1.41454 0.821528 -1.118034 1.118034 
C -0.821528 1.41454 -0.419323 1.581139 0 1.581139 
z
" style="stroke: #0000ff"/>
    </defs>
    <g clip-path="url(#pfe460ed546)">
     <use xlink:href="#mc134d3440d" x="54.71554" y="90.861513" style="fill: #0000ff; stroke: #0000ff"/>
     <use xlink:href="#mc134d3440d" x="57.994879" y="121.722962" style="fill: #0000ff; stroke: #0000ff"/>
     <use xlink:href="#mc134d3440d" x="61.274217" y="85.800575" style="fill: #0000ff; stroke: #0000ff"/>
     <use xlink:href="#mc134d3440d" x="64.553556" y="47.807115" style="fill: #0000ff; stroke: #0000ff"/>
     <use xlink:href="#mc134d3440d" x="67.832895" y="84.665912" style="fill: #0000ff; stroke: #0000ff"/>
     <use xlink:href="#mc134d3440d" x="71.112234" y="130.050332" style="fill: #0000ff; stroke: #0000ff"/>
     <use xlink:href="#mc134d3440d" x="74.391573" y="74.101228" style="fill: #0000ff; stroke: #0000ff"/>
     <use xlink:href="#mc134d3440d" x="77.670912" y="111.109667" style="fill: #0000ff; stroke: #0000ff"/>
     <use xlink:href="#mc134d3440d" x="80.950251" y="62.961721" style="fill: #0000ff; stroke: #0000ff"/>
     <use xlink:href="#mc134d3440d" x="84.229589" y="48.97408" style="fill: #0000ff; stroke: #0000ff"/>
     <use xlink:href="#mc134d3440d" x="87.508928" y="171.825016" style="fill: #0000ff; stroke: #0000ff"/>
     <use xlink:href="#mc134d3440d" x="90.788267" y="73.480491" style="fill: #0000ff; stroke: #0000ff"/>
     <use xlink:href="#mc134d3440d" x="94.067606" y="156.726098" style="fill: #0000ff; stroke: #0000ff"/>
     <use xlink:href="#mc134d3440d" x="97.346945" y="121.95598" style="fill: #0000ff; stroke: #0000ff"/>
     <use xlink:href="#mc134d3440d" x="100.626284" y="50.404204" style="fill: #0000ff; stroke: #0000ff"/>
     <use xlink:href="#mc134d3440d" x="103.905622" y="177.323834" style="fill: #0000ff; stroke: #0000ff"/>
     <use xlink:href="#mc134d3440d" x="107.184961" y="146.005907" style="fill: #0000ff; stroke: #0000ff"/>
     <use xlink:href="#mc134d3440d" x="110.4643" y="71.051221" style="fill: #0000ff; stroke: #0000ff"/>
     <use xlink:href="#mc134d3440d" x="113.743639" y="137.816077" style="fill: #0000ff; stroke: #0000ff"/>
     <use xlink:href="#mc134d3440d" x="117.022978" y="64.413411" style="fill: #0000ff; stroke: #0000ff"/>
     <use xlink:href="#mc134d3440d" x="120.302317" y="138.38786" style="fill: #0000ff; stroke: #0000ff"/>
     <use xlink:href="#mc134d3440d" x="123.581655" y="59.825345" style="fill: #0000ff; stroke: #0000ff"/>
     <use xlink:href="#mc134d3440d" x="126.860994" y="134.079354" style="fill: #0000ff; stroke: #0000ff"/>
     <use xlink:href="#mc134d3440d" x="130.140333" y="61.784919" style="fill: #0000ff; stroke: #0000ff"/>
     <use xlink:href="#mc134d3440d" x="133.419672" y="107.678663" style="fill: #0000ff; stroke: #0000ff"/>
     <use xlink:href="#mc134d3440d" x="136.699011" y="19.296" style="fill: #0000ff; stroke: #0000ff"/>
     <use xlink:href="#mc134d3440d" x="139.97835" y="138.044911" style="fill: #0000ff; stroke: #0000ff"/>
     <use xlink:href="#mc134d3440d" x="143.257689" y="91.846499" style="fill: #0000ff; stroke: #0000ff"/>
     <use xlink:href="#mc134d3440d" x="146.537027" y="175.504547" style="fill: #0000ff; stroke: #0000ff"/>
     <use xlink:href="#mc134d3440d" x="149.816366" y="40.342116" style="fill: #0000ff; stroke: #0000ff"/>
     <use xlink:href="#mc134d3440d" x="153.095705" y="93.466429" style="fill: #0000ff; stroke: #0000ff"/>
     <use xlink:href="#mc134d3440d" x="156.375044" y="150.576216" style="fill: #0000ff; stroke: #0000ff"/>
     <use xlink:href="#mc134d3440d" x="159.654383" y="62.595657" style="fill: #0000ff; stroke: #0000ff"/>
     <use xlink:href="#mc134d3440d" x="162.933722" y="108.560784" style="fill: #0000ff; stroke: #0000ff"/>
     <use xlink:href="#mc134d3440d" x="166.21306" y="112.03337" style="fill: #0000ff; stroke: #0000ff"/>
     <use xlink:href="#mc134d3440d" x="169.492399" y="127.580104" style="fill: #0000ff; stroke: #0000ff"/>
     <use xlink:href="#mc134d3440d" x="172.771738" y="137.991719" style="fill: #0000ff; stroke: #0000ff"/>
     <use xlink:href="#mc134d3440d" x="176.051077" y="81.913463" style="fill: #0000ff; stroke: #0000ff"/>
     <use xlink:href="#mc134d3440d" x="179.330416" y="78.345394" style="fill: #0000ff; stroke: #0000ff"/>
     <use xlink:href="#mc134d3440d" x="182.609755" y="134.665261" style="fill: #0000ff; stroke: #0000ff"/>
     <use xlink:href="#mc134d3440d" x="185.889093" y="140.670221" style="fill: #0000ff; stroke: #0000ff"/>
     <use xlink:href="#mc134d3440d" x="189.168432" y="118.805442" style="fill: #0000ff; stroke: #0000ff"/>
     <use xlink:href="#mc134d3440d" x="192.447771" y="170.750842" style="fill: #0000ff; stroke: #0000ff"/>
     <use xlink:href="#mc134d3440d" x="195.72711" y="120.029997" style="fill: #0000ff; stroke: #0000ff"/>
     <use xlink:href="#mc134d3440d" x="199.006449" y="136.184327" style="fill: #0000ff; stroke: #0000ff"/>
     <use xlink:href="#mc134d3440d" x="202.285788" y="261.216" style="fill: #0000ff; stroke: #0000ff"/>
     <use xlink:href="#mc134d3440d" x="205.565127" y="51.084834" style="fill: #0000ff; stroke: #0000ff"/>
     <use xlink:href="#mc134d3440d" x="208.844465" y="159.1242" style="fill: #0000ff; stroke: #0000ff"/>
     <use xlink:href="#mc134d3440d" x="212.123804" y="117.674523" style="fill: #0000ff; stroke: #0000ff"/>
     <use xlink:href="#mc134d3440d" x="215.403143" y="131.595477" style="fill: #0000ff; stroke: #0000ff"/>
     <use xlink:href="#mc134d3440d" x="218.682482" y="142.191574" style="fill: #0000ff; stroke: #0000ff"/>
     <use xlink:href="#mc134d3440d" x="221.961821" y="71.163819" style="fill: #0000ff; stroke: #0000ff"/>
     <use xlink:href="#mc134d3440d" x="225.24116" y="165.97887" style="fill: #0000ff; stroke: #0000ff"/>
     <use xlink:href="#mc134d3440d" x="228.520498" y="85.011698" style="fill: #0000ff; stroke: #0000ff"/>
     <use xlink:href="#mc134d3440d" x="231.799837" y="109.574095" style="fill: #0000ff; stroke: #0000ff"/>
     <use xlink:href="#mc134d3440d" x="235.079176" y="91.189306" style="fill: #0000ff; stroke: #0000ff"/>
     <use xlink:href="#mc134d3440d" x="238.358515" y="52.096059" style="fill: #0000ff; stroke: #0000ff"/>
     <use xlink:href="#mc134d3440d" x="241.637854" y="107.242305" style="fill: #0000ff; stroke: #0000ff"/>
     <use xlink:href="#mc134d3440d" x="244.917193" y="124.227354" style="fill: #0000ff; stroke: #0000ff"/>
     <use xlink:href="#mc134d3440d" x="248.196532" y="153.560904" style="fill: #0000ff; stroke: #0000ff"/>
     <use xlink:href="#mc134d3440d" x="251.47587" y="117.389005" style="fill: #0000ff; stroke: #0000ff"/>
     <use xlink:href="#mc134d3440d" x="254.755209" y="120.540958" style="fill: #0000ff; stroke: #0000ff"/>
     <use xlink:href="#mc134d3440d" x="258.034548" y="182.615137" style="fill: #0000ff; stroke: #0000ff"/>
     <use xlink:href="#mc134d3440d" x="261.313887" y="122.278233" style="fill: #0000ff; stroke: #0000ff"/>
     <use xlink:href="#mc134d3440d" x="264.593226" y="72.99952" style="fill: #0000ff; stroke: #0000ff"/>
     <use xlink:href="#mc134d3440d" x="267.872565" y="91.903322" style="fill: #0000ff; stroke: #0000ff"/>
     <use xlink:href="#mc134d3440d" x="271.151903" y="201.767765" style="fill: #0000ff; stroke: #0000ff"/>
     <use xlink:href="#mc134d3440d" x="274.431242" y="59.062123" style="fill: #0000ff; stroke: #0000ff"/>
     <use xlink:href="#mc134d3440d" x="277.710581" y="76.544342" style="fill: #0000ff; stroke: #0000ff"/>
     <use xlink:href="#mc134d3440d" x="280.98992" y="137.73119" style="fill: #0000ff; stroke: #0000ff"/>
     <use xlink:href="#mc134d3440d" x="284.269259" y="153.439421" style="fill: #0000ff; stroke: #0000ff"/>
     <use xlink:href="#mc134d3440d" x="287.548598" y="93.163277" style="fill: #0000ff; stroke: #0000ff"/>
     <use xlink:href="#mc134d3440d" x="290.827936" y="109.049844" style="fill: #0000ff; stroke: #0000ff"/>
     <use xlink:href="#mc134d3440d" x="294.107275" y="87.228952" style="fill: #0000ff; stroke: #0000ff"/>
     <use xlink:href="#mc134d3440d" x="297.386614" y="118.230474" style="fill: #0000ff; stroke: #0000ff"/>
     <use xlink:href="#mc134d3440d" x="300.665953" y="140.124791" style="fill: #0000ff; stroke: #0000ff"/>
     <use xlink:href="#mc134d3440d" x="303.945292" y="57.239999" style="fill: #0000ff; stroke: #0000ff"/>
     <use xlink:href="#mc134d3440d" x="307.224631" y="175.157958" style="fill: #0000ff; stroke: #0000ff"/>
     <use xlink:href="#mc134d3440d" x="310.50397" y="56.779054" style="fill: #0000ff; stroke: #0000ff"/>
     <use xlink:href="#mc134d3440d" x="313.783308" y="150.692348" style="fill: #0000ff; stroke: #0000ff"/>
     <use xlink:href="#mc134d3440d" x="317.062647" y="142.943984" style="fill: #0000ff; stroke: #0000ff"/>
     <use xlink:href="#mc134d3440d" x="320.341986" y="58.798538" style="fill: #0000ff; stroke: #0000ff"/>
     <use xlink:href="#mc134d3440d" x="323.621325" y="142.5386" style="fill: #0000ff; stroke: #0000ff"/>
     <use xlink:href="#mc134d3440d" x="326.900664" y="136.139699" style="fill: #0000ff; stroke: #0000ff"/>
     <use xlink:href="#mc134d3440d" x="330.180003" y="137.394793" style="fill: #0000ff; stroke: #0000ff"/>
     <use xlink:href="#mc134d3440d" x="333.459341" y="131.279309" style="fill: #0000ff; stroke: #0000ff"/>
     <use xlink:href="#mc134d3440d" x="336.73868" y="155.761041" style="fill: #0000ff; stroke: #0000ff"/>
     <use xlink:href="#mc134d3440d" x="340.018019" y="169.077461" style="fill: #0000ff; stroke: #0000ff"/>
     <use xlink:href="#mc134d3440d" x="343.297358" y="107.841254" style="fill: #0000ff; stroke: #0000ff"/>
     <use xlink:href="#mc134d3440d" x="346.576697" y="120.916075" style="fill: #0000ff; stroke: #0000ff"/>
     <use xlink:href="#mc134d3440d" x="349.856036" y="88.919894" style="fill: #0000ff; stroke: #0000ff"/>
     <use xlink:href="#mc134d3440d" x="353.135374" y="94.829666" style="fill: #0000ff; stroke: #0000ff"/>
     <use xlink:href="#mc134d3440d" x="356.414713" y="141.726946" style="fill: #0000ff; stroke: #0000ff"/>
     <use xlink:href="#mc134d3440d" x="359.694052" y="164.151655" style="fill: #0000ff; stroke: #0000ff"/>
     <use xlink:href="#mc134d3440d" x="362.973391" y="150.511055" style="fill: #0000ff; stroke: #0000ff"/>
     <use xlink:href="#mc134d3440d" x="366.25273" y="102.032723" style="fill: #0000ff; stroke: #0000ff"/>
     <use xlink:href="#mc134d3440d" x="369.532069" y="137.087908" style="fill: #0000ff; stroke: #0000ff"/>
     <use xlink:href="#mc134d3440d" x="372.811408" y="150.814249" style="fill: #0000ff; stroke: #0000ff"/>
     <use xlink:href="#mc134d3440d" x="376.090746" y="176.660387" style="fill: #0000ff; stroke: #0000ff"/>
     <use xlink:href="#mc134d3440d" x="379.370085" y="171.497119" style="fill: #0000ff; stroke: #0000ff"/>
    </g>
   </g>
   <g id="matplotlib.axis_1">
    <g id="xtick_1">
     <g id="line2d_1">
      <path d="M 54.71554 273.312 
L 54.71554 7.2 
" clip-path="url(#pfe460ed546)" style="fill: none; stroke-dasharray: 0.8,1.32; stroke-dashoffset: 0; stroke: #b0b0b0; stroke-width: 0.8"/>
     </g>
     <g id="line2d_2">
      <defs>
       <path id="m4304c8fb7a" d="M 0 0 
L 0 3.5 
" style="stroke: #000000; stroke-width: 0.8"/>
      </defs>
      <g>
       <use xlink:href="#m4304c8fb7a" x="54.71554" y="273.312" style="stroke: #000000; stroke-width: 0.8"/>
      </g>
     </g>
     <g id="text_1">
      <!-- 0.0 -->
      <g transform="translate(46.763977 287.910437) scale(0.1 -0.1)">
       <defs>
        <path id="DejaVuSans-30" d="M 2034 4250 
Q 1547 4250 1301 3770 
Q 1056 3291 1056 2328 
Q 1056 1369 1301 889 
Q 1547 409 2034 409 
Q 2525 409 2770 889 
Q 3016 1369 3016 2328 
Q 3016 3291 2770 3770 
Q 2525 4250 2034 4250 
z
M 2034 4750 
Q 2819 4750 3233 4129 
Q 3647 3509 3647 2328 
Q 3647 1150 3233 529 
Q 2819 -91 2034 -91 
Q 1250 -91 836 529 
Q 422 1150 422 2328 
Q 422 3509 836 4129 
Q 1250 4750 2034 4750 
z
" transform="scale(0.015625)"/>
        <path id="DejaVuSans-2e" d="M 684 794 
L 1344 794 
L 1344 0 
L 684 0 
L 684 794 
z
" transform="scale(0.015625)"/>
       </defs>
       <use xlink:href="#DejaVuSans-30"/>
       <use xlink:href="#DejaVuSans-2e" x="63.623047"/>
       <use xlink:href="#DejaVuSans-30" x="95.410156"/>
      </g>
     </g>
    </g>
    <g id="xtick_2">
     <g id="line2d_3">
      <path d="M 120.302317 273.312 
L 120.302317 7.2 
" clip-path="url(#pfe460ed546)" style="fill: none; stroke-dasharray: 0.8,1.32; stroke-dashoffset: 0; stroke: #b0b0b0; stroke-width: 0.8"/>
     </g>
     <g id="line2d_4">
      <g>
       <use xlink:href="#m4304c8fb7a" x="120.302317" y="273.312" style="stroke: #000000; stroke-width: 0.8"/>
      </g>
     </g>
     <g id="text_2">
      <!-- 0.2 -->
      <g transform="translate(112.350754 287.910437) scale(0.1 -0.1)">
       <defs>
        <path id="DejaVuSans-32" d="M 1228 531 
L 3431 531 
L 3431 0 
L 469 0 
L 469 531 
Q 828 903 1448 1529 
Q 2069 2156 2228 2338 
Q 2531 2678 2651 2914 
Q 2772 3150 2772 3378 
Q 2772 3750 2511 3984 
Q 2250 4219 1831 4219 
Q 1534 4219 1204 4116 
Q 875 4013 500 3803 
L 500 4441 
Q 881 4594 1212 4672 
Q 1544 4750 1819 4750 
Q 2544 4750 2975 4387 
Q 3406 4025 3406 3419 
Q 3406 3131 3298 2873 
Q 3191 2616 2906 2266 
Q 2828 2175 2409 1742 
Q 1991 1309 1228 531 
z
" transform="scale(0.015625)"/>
       </defs>
       <use xlink:href="#DejaVuSans-30"/>
       <use xlink:href="#DejaVuSans-2e" x="63.623047"/>
       <use xlink:href="#DejaVuSans-32" x="95.410156"/>
      </g>
     </g>
    </g>
    <g id="xtick_3">
     <g id="line2d_5">
      <path d="M 185.889093 273.312 
L 185.889093 7.2 
" clip-path="url(#pfe460ed546)" style="fill: none; stroke-dasharray: 0.8,1.32; stroke-dashoffset: 0; stroke: #b0b0b0; stroke-width: 0.8"/>
     </g>
     <g id="line2d_6">
      <g>
       <use xlink:href="#m4304c8fb7a" x="185.889093" y="273.312" style="stroke: #000000; stroke-width: 0.8"/>
      </g>
     </g>
     <g id="text_3">
      <!-- 0.4 -->
      <g transform="translate(177.937531 287.910437) scale(0.1 -0.1)">
       <defs>
        <path id="DejaVuSans-34" d="M 2419 4116 
L 825 1625 
L 2419 1625 
L 2419 4116 
z
M 2253 4666 
L 3047 4666 
L 3047 1625 
L 3713 1625 
L 3713 1100 
L 3047 1100 
L 3047 0 
L 2419 0 
L 2419 1100 
L 313 1100 
L 313 1709 
L 2253 4666 
z
" transform="scale(0.015625)"/>
       </defs>
       <use xlink:href="#DejaVuSans-30"/>
       <use xlink:href="#DejaVuSans-2e" x="63.623047"/>
       <use xlink:href="#DejaVuSans-34" x="95.410156"/>
      </g>
     </g>
    </g>
    <g id="xtick_4">
     <g id="line2d_7">
      <path d="M 251.47587 273.312 
L 251.47587 7.2 
" clip-path="url(#pfe460ed546)" style="fill: none; stroke-dasharray: 0.8,1.32; stroke-dashoffset: 0; stroke: #b0b0b0; stroke-width: 0.8"/>
     </g>
     <g id="line2d_8">
      <g>
       <use xlink:href="#m4304c8fb7a" x="251.47587" y="273.312" style="stroke: #000000; stroke-width: 0.8"/>
      </g>
     </g>
     <g id="text_4">
      <!-- 0.6 -->
      <g transform="translate(243.524308 287.910437) scale(0.1 -0.1)">
       <defs>
        <path id="DejaVuSans-36" d="M 2113 2584 
Q 1688 2584 1439 2293 
Q 1191 2003 1191 1497 
Q 1191 994 1439 701 
Q 1688 409 2113 409 
Q 2538 409 2786 701 
Q 3034 994 3034 1497 
Q 3034 2003 2786 2293 
Q 2538 2584 2113 2584 
z
M 3366 4563 
L 3366 3988 
Q 3128 4100 2886 4159 
Q 2644 4219 2406 4219 
Q 1781 4219 1451 3797 
Q 1122 3375 1075 2522 
Q 1259 2794 1537 2939 
Q 1816 3084 2150 3084 
Q 2853 3084 3261 2657 
Q 3669 2231 3669 1497 
Q 3669 778 3244 343 
Q 2819 -91 2113 -91 
Q 1303 -91 875 529 
Q 447 1150 447 2328 
Q 447 3434 972 4092 
Q 1497 4750 2381 4750 
Q 2619 4750 2861 4703 
Q 3103 4656 3366 4563 
z
" transform="scale(0.015625)"/>
       </defs>
       <use xlink:href="#DejaVuSans-30"/>
       <use xlink:href="#DejaVuSans-2e" x="63.623047"/>
       <use xlink:href="#DejaVuSans-36" x="95.410156"/>
      </g>
     </g>
    </g>
    <g id="xtick_5">
     <g id="line2d_9">
      <path d="M 317.062647 273.312 
L 317.062647 7.2 
" clip-path="url(#pfe460ed546)" style="fill: none; stroke-dasharray: 0.8,1.32; stroke-dashoffset: 0; stroke: #b0b0b0; stroke-width: 0.8"/>
     </g>
     <g id="line2d_10">
      <g>
       <use xlink:href="#m4304c8fb7a" x="317.062647" y="273.312" style="stroke: #000000; stroke-width: 0.8"/>
      </g>
     </g>
     <g id="text_5">
      <!-- 0.8 -->
      <g transform="translate(309.111085 287.910437) scale(0.1 -0.1)">
       <defs>
        <path id="DejaVuSans-38" d="M 2034 2216 
Q 1584 2216 1326 1975 
Q 1069 1734 1069 1313 
Q 1069 891 1326 650 
Q 1584 409 2034 409 
Q 2484 409 2743 651 
Q 3003 894 3003 1313 
Q 3003 1734 2745 1975 
Q 2488 2216 2034 2216 
z
M 1403 2484 
Q 997 2584 770 2862 
Q 544 3141 544 3541 
Q 544 4100 942 4425 
Q 1341 4750 2034 4750 
Q 2731 4750 3128 4425 
Q 3525 4100 3525 3541 
Q 3525 3141 3298 2862 
Q 3072 2584 2669 2484 
Q 3125 2378 3379 2068 
Q 3634 1759 3634 1313 
Q 3634 634 3220 271 
Q 2806 -91 2034 -91 
Q 1263 -91 848 271 
Q 434 634 434 1313 
Q 434 1759 690 2068 
Q 947 2378 1403 2484 
z
M 1172 3481 
Q 1172 3119 1398 2916 
Q 1625 2713 2034 2713 
Q 2441 2713 2670 2916 
Q 2900 3119 2900 3481 
Q 2900 3844 2670 4047 
Q 2441 4250 2034 4250 
Q 1625 4250 1398 4047 
Q 1172 3844 1172 3481 
z
" transform="scale(0.015625)"/>
       </defs>
       <use xlink:href="#DejaVuSans-30"/>
       <use xlink:href="#DejaVuSans-2e" x="63.623047"/>
       <use xlink:href="#DejaVuSans-38" x="95.410156"/>
      </g>
     </g>
    </g>
    <g id="xtick_6">
     <g id="line2d_11">
      <path d="M 382.649424 273.312 
L 382.649424 7.2 
" clip-path="url(#pfe460ed546)" style="fill: none; stroke-dasharray: 0.8,1.32; stroke-dashoffset: 0; stroke: #b0b0b0; stroke-width: 0.8"/>
     </g>
     <g id="line2d_12">
      <g>
       <use xlink:href="#m4304c8fb7a" x="382.649424" y="273.312" style="stroke: #000000; stroke-width: 0.8"/>
      </g>
     </g>
     <g id="text_6">
      <!-- 1.0 -->
      <g transform="translate(374.697862 287.910437) scale(0.1 -0.1)">
       <defs>
        <path id="DejaVuSans-31" d="M 794 531 
L 1825 531 
L 1825 4091 
L 703 3866 
L 703 4441 
L 1819 4666 
L 2450 4666 
L 2450 531 
L 3481 531 
L 3481 0 
L 794 0 
L 794 531 
z
" transform="scale(0.015625)"/>
       </defs>
       <use xlink:href="#DejaVuSans-31"/>
       <use xlink:href="#DejaVuSans-2e" x="63.623047"/>
       <use xlink:href="#DejaVuSans-30" x="95.410156"/>
      </g>
     </g>
    </g>
   </g>
   <g id="matplotlib.axis_2">
    <g id="ytick_1">
     <g id="line2d_13">
      <path d="M 38.482813 266.374272 
L 395.602813 266.374272 
" clip-path="url(#pfe460ed546)" style="fill: none; stroke-dasharray: 0.8,1.32; stroke-dashoffset: 0; stroke: #b0b0b0; stroke-width: 0.8"/>
     </g>
     <g id="line2d_14">
      <defs>
       <path id="md9aa998b0c" d="M 0 0 
L -3.5 0 
" style="stroke: #000000; stroke-width: 0.8"/>
      </defs>
      <g>
       <use xlink:href="#md9aa998b0c" x="38.482813" y="266.374272" style="stroke: #000000; stroke-width: 0.8"/>
      </g>
     </g>
     <g id="text_7">
      <!-- −0.5 -->
      <g transform="translate(7.2 270.17349) scale(0.1 -0.1)">
       <defs>
        <path id="DejaVuSans-2212" d="M 678 2272 
L 4684 2272 
L 4684 1741 
L 678 1741 
L 678 2272 
z
" transform="scale(0.015625)"/>
        <path id="DejaVuSans-35" d="M 691 4666 
L 3169 4666 
L 3169 4134 
L 1269 4134 
L 1269 2991 
Q 1406 3038 1543 3061 
Q 1681 3084 1819 3084 
Q 2600 3084 3056 2656 
Q 3513 2228 3513 1497 
Q 3513 744 3044 326 
Q 2575 -91 1722 -91 
Q 1428 -91 1123 -41 
Q 819 9 494 109 
L 494 744 
Q 775 591 1075 516 
Q 1375 441 1709 441 
Q 2250 441 2565 725 
Q 2881 1009 2881 1497 
Q 2881 1984 2565 2268 
Q 2250 2553 1709 2553 
Q 1456 2553 1204 2497 
Q 953 2441 691 2322 
L 691 4666 
z
" transform="scale(0.015625)"/>
       </defs>
       <use xlink:href="#DejaVuSans-2212"/>
       <use xlink:href="#DejaVuSans-30" x="83.789062"/>
       <use xlink:href="#DejaVuSans-2e" x="147.412109"/>
       <use xlink:href="#DejaVuSans-35" x="179.199219"/>
      </g>
     </g>
    </g>
    <g id="ytick_2">
     <g id="line2d_15">
      <path d="M 38.482813 227.296125 
L 395.602813 227.296125 
" clip-path="url(#pfe460ed546)" style="fill: none; stroke-dasharray: 0.8,1.32; stroke-dashoffset: 0; stroke: #b0b0b0; stroke-width: 0.8"/>
     </g>
     <g id="line2d_16">
      <g>
       <use xlink:href="#md9aa998b0c" x="38.482813" y="227.296125" style="stroke: #000000; stroke-width: 0.8"/>
      </g>
     </g>
     <g id="text_8">
      <!-- 0.0 -->
      <g transform="translate(15.579688 231.095343) scale(0.1 -0.1)">
       <use xlink:href="#DejaVuSans-30"/>
       <use xlink:href="#DejaVuSans-2e" x="63.623047"/>
       <use xlink:href="#DejaVuSans-30" x="95.410156"/>
      </g>
     </g>
    </g>
    <g id="ytick_3">
     <g id="line2d_17">
      <path d="M 38.482813 188.217978 
L 395.602813 188.217978 
" clip-path="url(#pfe460ed546)" style="fill: none; stroke-dasharray: 0.8,1.32; stroke-dashoffset: 0; stroke: #b0b0b0; stroke-width: 0.8"/>
     </g>
     <g id="line2d_18">
      <g>
       <use xlink:href="#md9aa998b0c" x="38.482813" y="188.217978" style="stroke: #000000; stroke-width: 0.8"/>
      </g>
     </g>
     <g id="text_9">
      <!-- 0.5 -->
      <g transform="translate(15.579688 192.017197) scale(0.1 -0.1)">
       <use xlink:href="#DejaVuSans-30"/>
       <use xlink:href="#DejaVuSans-2e" x="63.623047"/>
       <use xlink:href="#DejaVuSans-35" x="95.410156"/>
      </g>
     </g>
    </g>
    <g id="ytick_4">
     <g id="line2d_19">
      <path d="M 38.482813 149.139831 
L 395.602813 149.139831 
" clip-path="url(#pfe460ed546)" style="fill: none; stroke-dasharray: 0.8,1.32; stroke-dashoffset: 0; stroke: #b0b0b0; stroke-width: 0.8"/>
     </g>
     <g id="line2d_20">
      <g>
       <use xlink:href="#md9aa998b0c" x="38.482813" y="149.139831" style="stroke: #000000; stroke-width: 0.8"/>
      </g>
     </g>
     <g id="text_10">
      <!-- 1.0 -->
      <g transform="translate(15.579688 152.93905) scale(0.1 -0.1)">
       <use xlink:href="#DejaVuSans-31"/>
       <use xlink:href="#DejaVuSans-2e" x="63.623047"/>
       <use xlink:href="#DejaVuSans-30" x="95.410156"/>
      </g>
     </g>
    </g>
    <g id="ytick_5">
     <g id="line2d_21">
      <path d="M 38.482813 110.061684 
L 395.602813 110.061684 
" clip-path="url(#pfe460ed546)" style="fill: none; stroke-dasharray: 0.8,1.32; stroke-dashoffset: 0; stroke: #b0b0b0; stroke-width: 0.8"/>
     </g>
     <g id="line2d_22">
      <g>
       <use xlink:href="#md9aa998b0c" x="38.482813" y="110.061684" style="stroke: #000000; stroke-width: 0.8"/>
      </g>
     </g>
     <g id="text_11">
      <!-- 1.5 -->
      <g transform="translate(15.579688 113.860903) scale(0.1 -0.1)">
       <use xlink:href="#DejaVuSans-31"/>
       <use xlink:href="#DejaVuSans-2e" x="63.623047"/>
       <use xlink:href="#DejaVuSans-35" x="95.410156"/>
      </g>
     </g>
    </g>
    <g id="ytick_6">
     <g id="line2d_23">
      <path d="M 38.482813 70.983537 
L 395.602813 70.983537 
" clip-path="url(#pfe460ed546)" style="fill: none; stroke-dasharray: 0.8,1.32; stroke-dashoffset: 0; stroke: #b0b0b0; stroke-width: 0.8"/>
     </g>
     <g id="line2d_24">
      <g>
       <use xlink:href="#md9aa998b0c" x="38.482813" y="70.983537" style="stroke: #000000; stroke-width: 0.8"/>
      </g>
     </g>
     <g id="text_12">
      <!-- 2.0 -->
      <g transform="translate(15.579688 74.782756) scale(0.1 -0.1)">
       <use xlink:href="#DejaVuSans-32"/>
       <use xlink:href="#DejaVuSans-2e" x="63.623047"/>
       <use xlink:href="#DejaVuSans-30" x="95.410156"/>
      </g>
     </g>
    </g>
    <g id="ytick_7">
     <g id="line2d_25">
      <path d="M 38.482813 31.90539 
L 395.602813 31.90539 
" clip-path="url(#pfe460ed546)" style="fill: none; stroke-dasharray: 0.8,1.32; stroke-dashoffset: 0; stroke: #b0b0b0; stroke-width: 0.8"/>
     </g>
     <g id="line2d_26">
      <g>
       <use xlink:href="#md9aa998b0c" x="38.482813" y="31.90539" style="stroke: #000000; stroke-width: 0.8"/>
      </g>
     </g>
     <g id="text_13">
      <!-- 2.5 -->
      <g transform="translate(15.579688 35.704609) scale(0.1 -0.1)">
       <use xlink:href="#DejaVuSans-32"/>
       <use xlink:href="#DejaVuSans-2e" x="63.623047"/>
       <use xlink:href="#DejaVuSans-35" x="95.410156"/>
      </g>
     </g>
    </g>
   </g>
   <g id="line2d_27">
    <path d="M 54.71554 94.430425 
L 57.994879 94.821207 
L 61.274217 95.211988 
L 64.553556 95.602769 
L 67.832895 95.993551 
L 71.112234 96.384332 
L 74.391573 96.775114 
L 77.670912 97.165895 
L 80.950251 97.556677 
L 84.229589 97.947458 
L 87.508928 98.33824 
L 90.788267 98.729021 
L 94.067606 99.119803 
L 97.346945 99.510584 
L 100.626284 99.901366 
L 103.905622 100.292147 
L 107.184961 100.682929 
L 110.4643 101.07371 
L 113.743639 101.464492 
L 117.022978 101.855273 
L 120.302317 102.246054 
L 123.581655 102.636836 
L 126.860994 103.027617 
L 130.140333 103.418399 
L 133.419672 103.80918 
L 136.699011 104.199962 
L 139.97835 104.590743 
L 143.257689 104.981525 
L 146.537027 105.372306 
L 149.816366 105.763088 
L 153.095705 106.153869 
L 156.375044 106.544651 
L 159.654383 106.935432 
L 162.933722 107.326214 
L 166.21306 107.716995 
L 169.492399 108.107777 
L 172.771738 108.498558 
L 176.051077 108.889339 
L 179.330416 109.280121 
L 182.609755 109.670902 
L 185.889093 110.061684 
L 189.168432 110.452465 
L 192.447771 110.843247 
L 195.72711 111.234028 
L 199.006449 111.62481 
L 202.285788 112.015591 
L 205.565127 112.406373 
L 208.844465 112.797154 
L 212.123804 113.187936 
L 215.403143 113.578717 
L 218.682482 113.969499 
L 221.961821 114.36028 
L 225.24116 114.751061 
L 228.520498 115.141843 
L 231.799837 115.532624 
L 235.079176 115.923406 
L 238.358515 116.314187 
L 241.637854 116.704969 
L 244.917193 117.09575 
L 248.196532 117.486532 
L 251.47587 117.877313 
L 254.755209 118.268095 
L 258.034548 118.658876 
L 261.313887 119.049658 
L 264.593226 119.440439 
L 267.872565 119.831221 
L 271.151903 120.222002 
L 274.431242 120.612784 
L 277.710581 121.003565 
L 280.98992 121.394346 
L 284.269259 121.785128 
L 287.548598 122.175909 
L 290.827936 122.566691 
L 294.107275 122.957472 
L 297.386614 123.348254 
L 300.665953 123.739035 
L 303.945292 124.129817 
L 307.224631 124.520598 
L 310.50397 124.91138 
L 313.783308 125.302161 
L 317.062647 125.692943 
L 320.341986 126.083724 
L 323.621325 126.474506 
L 326.900664 126.865287 
L 330.180003 127.256069 
L 333.459341 127.64685 
L 336.73868 128.037631 
L 340.018019 128.428413 
L 343.297358 128.819194 
L 346.576697 129.209976 
L 349.856036 129.600757 
L 353.135374 129.991539 
L 356.414713 130.38232 
L 359.694052 130.773102 
L 362.973391 131.163883 
L 366.25273 131.554665 
L 369.532069 131.945446 
L 372.811408 132.336228 
L 376.090746 132.727009 
L 379.370085 133.117791 
" clip-path="url(#pfe460ed546)" style="fill: none; stroke: #ff0000; stroke-width: 2; stroke-linecap: square"/>
   </g>
   <g id="patch_3">
    <path d="M 38.482813 273.312 
L 38.482813 7.2 
" style="fill: none; stroke: #000000; stroke-width: 0.8; stroke-linejoin: miter; stroke-linecap: square"/>
   </g>
   <g id="patch_4">
    <path d="M 395.602813 273.312 
L 395.602813 7.2 
" style="fill: none; stroke: #000000; stroke-width: 0.8; stroke-linejoin: miter; stroke-linecap: square"/>
   </g>
   <g id="patch_5">
    <path d="M 38.482813 273.312 
L 395.602813 273.312 
" style="fill: none; stroke: #000000; stroke-width: 0.8; stroke-linejoin: miter; stroke-linecap: square"/>
   </g>
   <g id="patch_6">
    <path d="M 38.482813 7.2 
L 395.602813 7.2 
" style="fill: none; stroke: #000000; stroke-width: 0.8; stroke-linejoin: miter; stroke-linecap: square"/>
   </g>
   <g id="legend_1">
    <g id="patch_7">
     <path d="M 292.021563 44.55625 
L 388.602813 44.55625 
Q 390.602813 44.55625 390.602813 42.55625 
L 390.602813 14.2 
Q 390.602813 12.2 388.602813 12.2 
L 292.021563 12.2 
Q 290.021563 12.2 290.021563 14.2 
L 290.021563 42.55625 
Q 290.021563 44.55625 292.021563 44.55625 
z
" style="fill: #ffffff; opacity: 0.8; stroke: #cccccc; stroke-linejoin: miter"/>
    </g>
    <g id="line2d_28">
     <path d="M 294.021563 20.298437 
L 304.021563 20.298437 
L 314.021563 20.298437 
" style="fill: none; stroke: #ff0000; stroke-width: 2; stroke-linecap: square"/>
    </g>
    <g id="text_14">
     <!-- Ground truth -->
     <g transform="translate(322.021563 23.798437) scale(0.1 -0.1)">
      <defs>
       <path id="DejaVuSans-47" d="M 3809 666 
L 3809 1919 
L 2778 1919 
L 2778 2438 
L 4434 2438 
L 4434 434 
Q 4069 175 3628 42 
Q 3188 -91 2688 -91 
Q 1594 -91 976 548 
Q 359 1188 359 2328 
Q 359 3472 976 4111 
Q 1594 4750 2688 4750 
Q 3144 4750 3555 4637 
Q 3966 4525 4313 4306 
L 4313 3634 
Q 3963 3931 3569 4081 
Q 3175 4231 2741 4231 
Q 1884 4231 1454 3753 
Q 1025 3275 1025 2328 
Q 1025 1384 1454 906 
Q 1884 428 2741 428 
Q 3075 428 3337 486 
Q 3600 544 3809 666 
z
" transform="scale(0.015625)"/>
       <path id="DejaVuSans-72" d="M 2631 2963 
Q 2534 3019 2420 3045 
Q 2306 3072 2169 3072 
Q 1681 3072 1420 2755 
Q 1159 2438 1159 1844 
L 1159 0 
L 581 0 
L 581 3500 
L 1159 3500 
L 1159 2956 
Q 1341 3275 1631 3429 
Q 1922 3584 2338 3584 
Q 2397 3584 2469 3576 
Q 2541 3569 2628 3553 
L 2631 2963 
z
" transform="scale(0.015625)"/>
       <path id="DejaVuSans-6f" d="M 1959 3097 
Q 1497 3097 1228 2736 
Q 959 2375 959 1747 
Q 959 1119 1226 758 
Q 1494 397 1959 397 
Q 2419 397 2687 759 
Q 2956 1122 2956 1747 
Q 2956 2369 2687 2733 
Q 2419 3097 1959 3097 
z
M 1959 3584 
Q 2709 3584 3137 3096 
Q 3566 2609 3566 1747 
Q 3566 888 3137 398 
Q 2709 -91 1959 -91 
Q 1206 -91 779 398 
Q 353 888 353 1747 
Q 353 2609 779 3096 
Q 1206 3584 1959 3584 
z
" transform="scale(0.015625)"/>
       <path id="DejaVuSans-75" d="M 544 1381 
L 544 3500 
L 1119 3500 
L 1119 1403 
Q 1119 906 1312 657 
Q 1506 409 1894 409 
Q 2359 409 2629 706 
Q 2900 1003 2900 1516 
L 2900 3500 
L 3475 3500 
L 3475 0 
L 2900 0 
L 2900 538 
Q 2691 219 2414 64 
Q 2138 -91 1772 -91 
Q 1169 -91 856 284 
Q 544 659 544 1381 
z
M 1991 3584 
L 1991 3584 
z
" transform="scale(0.015625)"/>
       <path id="DejaVuSans-6e" d="M 3513 2113 
L 3513 0 
L 2938 0 
L 2938 2094 
Q 2938 2591 2744 2837 
Q 2550 3084 2163 3084 
Q 1697 3084 1428 2787 
Q 1159 2491 1159 1978 
L 1159 0 
L 581 0 
L 581 3500 
L 1159 3500 
L 1159 2956 
Q 1366 3272 1645 3428 
Q 1925 3584 2291 3584 
Q 2894 3584 3203 3211 
Q 3513 2838 3513 2113 
z
" transform="scale(0.015625)"/>
       <path id="DejaVuSans-64" d="M 2906 2969 
L 2906 4863 
L 3481 4863 
L 3481 0 
L 2906 0 
L 2906 525 
Q 2725 213 2448 61 
Q 2172 -91 1784 -91 
Q 1150 -91 751 415 
Q 353 922 353 1747 
Q 353 2572 751 3078 
Q 1150 3584 1784 3584 
Q 2172 3584 2448 3432 
Q 2725 3281 2906 2969 
z
M 947 1747 
Q 947 1113 1208 752 
Q 1469 391 1925 391 
Q 2381 391 2643 752 
Q 2906 1113 2906 1747 
Q 2906 2381 2643 2742 
Q 2381 3103 1925 3103 
Q 1469 3103 1208 2742 
Q 947 2381 947 1747 
z
" transform="scale(0.015625)"/>
       <path id="DejaVuSans-20" transform="scale(0.015625)"/>
       <path id="DejaVuSans-74" d="M 1172 4494 
L 1172 3500 
L 2356 3500 
L 2356 3053 
L 1172 3053 
L 1172 1153 
Q 1172 725 1289 603 
Q 1406 481 1766 481 
L 2356 481 
L 2356 0 
L 1766 0 
Q 1100 0 847 248 
Q 594 497 594 1153 
L 594 3053 
L 172 3053 
L 172 3500 
L 594 3500 
L 594 4494 
L 1172 4494 
z
" transform="scale(0.015625)"/>
       <path id="DejaVuSans-68" d="M 3513 2113 
L 3513 0 
L 2938 0 
L 2938 2094 
Q 2938 2591 2744 2837 
Q 2550 3084 2163 3084 
Q 1697 3084 1428 2787 
Q 1159 2491 1159 1978 
L 1159 0 
L 581 0 
L 581 4863 
L 1159 4863 
L 1159 2956 
Q 1366 3272 1645 3428 
Q 1925 3584 2291 3584 
Q 2894 3584 3203 3211 
Q 3513 2838 3513 2113 
z
" transform="scale(0.015625)"/>
      </defs>
      <use xlink:href="#DejaVuSans-47"/>
      <use xlink:href="#DejaVuSans-72" x="77.490234"/>
      <use xlink:href="#DejaVuSans-6f" x="116.353516"/>
      <use xlink:href="#DejaVuSans-75" x="177.535156"/>
      <use xlink:href="#DejaVuSans-6e" x="240.914062"/>
      <use xlink:href="#DejaVuSans-64" x="304.292969"/>
      <use xlink:href="#DejaVuSans-20" x="367.769531"/>
      <use xlink:href="#DejaVuSans-74" x="399.556641"/>
      <use xlink:href="#DejaVuSans-72" x="438.765625"/>
      <use xlink:href="#DejaVuSans-75" x="479.878906"/>
      <use xlink:href="#DejaVuSans-74" x="543.257812"/>
      <use xlink:href="#DejaVuSans-68" x="582.466797"/>
     </g>
    </g>
    <g id="PathCollection_2">
     <g>
      <use xlink:href="#mc134d3440d" x="304.021563" y="35.851562" style="fill: #0000ff; stroke: #0000ff"/>
     </g>
    </g>
    <g id="text_15">
     <!-- Data -->
     <g transform="translate(322.021563 38.476562) scale(0.1 -0.1)">
      <defs>
       <path id="DejaVuSans-44" d="M 1259 4147 
L 1259 519 
L 2022 519 
Q 2988 519 3436 956 
Q 3884 1394 3884 2338 
Q 3884 3275 3436 3711 
Q 2988 4147 2022 4147 
L 1259 4147 
z
M 628 4666 
L 1925 4666 
Q 3281 4666 3915 4102 
Q 4550 3538 4550 2338 
Q 4550 1131 3912 565 
Q 3275 0 1925 0 
L 628 0 
L 628 4666 
z
" transform="scale(0.015625)"/>
       <path id="DejaVuSans-61" d="M 2194 1759 
Q 1497 1759 1228 1600 
Q 959 1441 959 1056 
Q 959 750 1161 570 
Q 1363 391 1709 391 
Q 2188 391 2477 730 
Q 2766 1069 2766 1631 
L 2766 1759 
L 2194 1759 
z
M 3341 1997 
L 3341 0 
L 2766 0 
L 2766 531 
Q 2569 213 2275 61 
Q 1981 -91 1556 -91 
Q 1019 -91 701 211 
Q 384 513 384 1019 
Q 384 1609 779 1909 
Q 1175 2209 1959 2209 
L 2766 2209 
L 2766 2266 
Q 2766 2663 2505 2880 
Q 2244 3097 1772 3097 
Q 1472 3097 1187 3025 
Q 903 2953 641 2809 
L 641 3341 
Q 956 3463 1253 3523 
Q 1550 3584 1831 3584 
Q 2591 3584 2966 3190 
Q 3341 2797 3341 1997 
z
" transform="scale(0.015625)"/>
      </defs>
      <use xlink:href="#DejaVuSans-44"/>
      <use xlink:href="#DejaVuSans-61" x="77.001953"/>
      <use xlink:href="#DejaVuSans-74" x="138.28125"/>
      <use xlink:href="#DejaVuSans-61" x="177.490234"/>
     </g>
    </g>
   </g>
  </g>
 </g>
 <defs>
  <clipPath id="pfe460ed546">
   <rect x="38.482813" y="7.2" width="357.12" height="266.112"/>
  </clipPath>
 </defs>
</svg>