<?xml version="1.0" encoding="utf-8" standalone="no"?>
<!DOCTYPE svg PUBLIC "-//W3C//DTD SVG 1.1//EN"
  "http://www.w3.org/Graphics/SVG/1.1/DTD/svg11.dtd">
<svg xmlns:xlink="http://www.w3.org/1999/xlink" width="391.245pt" height="297.190125pt" viewBox="0 0 391.245 297.190125" xmlns="http://www.w3.org/2000/svg" version="1.1">
 <metadata>
  <rdf:RDF xmlns:dc="http://purl.org/dc/elements/1.1/" xmlns:cc="http://creativecommons.org/ns#" xmlns:rdf="http://www.w3.org/1999/02/22-rdf-syntax-ns#">
   <cc:Work>
    <dc:type rdf:resource="http://purl.org/dc/dcmitype/StillImage"/>
    <dc:date>2023-12-05T01:34:13.076296</dc:date>
    <dc:format>image/svg+xml</dc:format>
    <dc:creator>
     <cc:Agent>
      <dc:title>Matplotlib v3.8.2, https://matplotlib.org/</dc:title>
     </cc:Agent>
    </dc:creator>
   </cc:Work>
  </rdf:RDF>
 </metadata>
 <defs>
  <style type="text/css">*{stroke-linejoin: round; stroke-linecap: butt}</style>
 </defs>
 <g id="figure_1">
  <g id="patch_1">
   <path d="M 0 297.190125 
L 391.245 297.190125 
L 391.245 0 
L 0 0 
z
" style="fill: #ffffff"/>
  </g>
  <g id="axes_1">
   <g id="patch_2">
    <path d="M 26.925 273.312 
L 384.045 273.312 
L 384.045 7.2 
L 26.925 7.2 
z
" style="fill: #ffffff"/>
   </g>
   <g id="PathCollection_1">
    <defs>
     <path id="m891597bab8" d="M 0 1.581139 
C 0.419323 1.581139 0.821528 1.41454 1.118034 1.118034 
C 1.41454 0.821528 1.581139 0.419323 1.581139 0 
C 1.581139 -0.419323 1.41454 -0.821528 1.118034 -1.118034 
C 0.821528 -1.41454 0.419323 -1.581139 0 -1.581139 
C -0.419323 -1.581139 -0.821528 -1.41454 -1.118034 -1.118034 
C -1.41454 -0.821528 -1.581139 -0.419323 -1.581139 0 
C -1.581139 0.419323 -1.41454 0.821528 -1.118034 1.118034 
C -0.821528 1.41454 -0.419323 1.581139 0 1.581139 
z
" style="stroke: #0000ff"/>
    </defs>
    <g clip-path="url(#p986cccde69)">
     <use xlink:href="#m891597bab8" x="43.157727" y="235.906057" style="fill: #0000ff; stroke: #0000ff"/>
     <use xlink:href="#m891597bab8" x="46.437066" y="247.639157" style="fill: #0000ff; stroke: #0000ff"/>
     <use xlink:href="#m891597bab8" x="49.716405" y="242.225112" style="fill: #0000ff; stroke: #0000ff"/>
     <use xlink:href="#m891597bab8" x="52.995744" y="236.159669" style="fill: #0000ff; stroke: #0000ff"/>
     <use xlink:href="#m891597bab8" x="56.275083" y="242.481785" style="fill: #0000ff; stroke: #0000ff"/>
     <use xlink:href="#m891597bab8" x="59.554421" y="19.296" style="fill: #0000ff; stroke: #0000ff"/>
     <use xlink:href="#m891597bab8" x="62.83376" y="237.239384" style="fill: #0000ff; stroke: #0000ff"/>
     <use xlink:href="#m891597bab8" x="66.113099" y="232.652767" style="fill: #0000ff; stroke: #0000ff"/>
     <use xlink:href="#m891597bab8" x="69.392438" y="242.655061" style="fill: #0000ff; stroke: #0000ff"/>
     <use xlink:href="#m891597bab8" x="72.671777" y="252.259015" style="fill: #0000ff; stroke: #0000ff"/>
     <use xlink:href="#m891597bab8" x="75.951116" y="236.320747" style="fill: #0000ff; stroke: #0000ff"/>
     <use xlink:href="#m891597bab8" x="79.230455" y="241.36066" style="fill: #0000ff; stroke: #0000ff"/>
     <use xlink:href="#m891597bab8" x="82.509793" y="247.992755" style="fill: #0000ff; stroke: #0000ff"/>
     <use xlink:href="#m891597bab8" x="85.789132" y="248.368991" style="fill: #0000ff; stroke: #0000ff"/>
     <use xlink:href="#m891597bab8" x="89.068471" y="238.918598" style="fill: #0000ff; stroke: #0000ff"/>
     <use xlink:href="#m891597bab8" x="92.34781" y="237.217783" style="fill: #0000ff; stroke: #0000ff"/>
     <use xlink:href="#m891597bab8" x="95.627149" y="243.922483" style="fill: #0000ff; stroke: #0000ff"/>
     <use xlink:href="#m891597bab8" x="98.906488" y="239.843016" style="fill: #0000ff; stroke: #0000ff"/>
     <use xlink:href="#m891597bab8" x="102.185826" y="249.534399" style="fill: #0000ff; stroke: #0000ff"/>
     <use xlink:href="#m891597bab8" x="105.465165" y="238.09044" style="fill: #0000ff; stroke: #0000ff"/>
     <use xlink:href="#m891597bab8" x="108.744504" y="247.976552" style="fill: #0000ff; stroke: #0000ff"/>
     <use xlink:href="#m891597bab8" x="112.023843" y="245.129177" style="fill: #0000ff; stroke: #0000ff"/>
     <use xlink:href="#m891597bab8" x="115.303182" y="244.077602" style="fill: #0000ff; stroke: #0000ff"/>
     <use xlink:href="#m891597bab8" x="118.582521" y="246.444114" style="fill: #0000ff; stroke: #0000ff"/>
     <use xlink:href="#m891597bab8" x="121.86186" y="244.397924" style="fill: #0000ff; stroke: #0000ff"/>
     <use xlink:href="#m891597bab8" x="125.141198" y="259.133308" style="fill: #0000ff; stroke: #0000ff"/>
     <use xlink:href="#m891597bab8" x="128.420537" y="243.680542" style="fill: #0000ff; stroke: #0000ff"/>
     <use xlink:href="#m891597bab8" x="131.699876" y="244.23816" style="fill: #0000ff; stroke: #0000ff"/>
     <use xlink:href="#m891597bab8" x="134.979215" y="244.723286" style="fill: #0000ff; stroke: #0000ff"/>
     <use xlink:href="#m891597bab8" x="138.258554" y="251.373108" style="fill: #0000ff; stroke: #0000ff"/>
     <use xlink:href="#m891597bab8" x="141.537893" y="248.793608" style="fill: #0000ff; stroke: #0000ff"/>
     <use xlink:href="#m891597bab8" x="144.817231" y="244.261197" style="fill: #0000ff; stroke: #0000ff"/>
     <use xlink:href="#m891597bab8" x="148.09657" y="239.897108" style="fill: #0000ff; stroke: #0000ff"/>
     <use xlink:href="#m891597bab8" x="151.375909" y="240.347904" style="fill: #0000ff; stroke: #0000ff"/>
     <use xlink:href="#m891597bab8" x="154.655248" y="237.820327" style="fill: #0000ff; stroke: #0000ff"/>
     <use xlink:href="#m891597bab8" x="157.934587" y="248.779992" style="fill: #0000ff; stroke: #0000ff"/>
     <use xlink:href="#m891597bab8" x="161.213926" y="256.442686" style="fill: #0000ff; stroke: #0000ff"/>
     <use xlink:href="#m891597bab8" x="164.493264" y="254.990318" style="fill: #0000ff; stroke: #0000ff"/>
     <use xlink:href="#m891597bab8" x="167.772603" y="238.783254" style="fill: #0000ff; stroke: #0000ff"/>
     <use xlink:href="#m891597bab8" x="171.051942" y="245.508351" style="fill: #0000ff; stroke: #0000ff"/>
     <use xlink:href="#m891597bab8" x="174.331281" y="247.221544" style="fill: #0000ff; stroke: #0000ff"/>
     <use xlink:href="#m891597bab8" x="177.61062" y="249.73584" style="fill: #0000ff; stroke: #0000ff"/>
     <use xlink:href="#m891597bab8" x="180.889959" y="249.755088" style="fill: #0000ff; stroke: #0000ff"/>
     <use xlink:href="#m891597bab8" x="184.169298" y="247.166812" style="fill: #0000ff; stroke: #0000ff"/>
     <use xlink:href="#m891597bab8" x="187.448636" y="238.869768" style="fill: #0000ff; stroke: #0000ff"/>
     <use xlink:href="#m891597bab8" x="190.727975" y="252.92065" style="fill: #0000ff; stroke: #0000ff"/>
     <use xlink:href="#m891597bab8" x="194.007314" y="247.480477" style="fill: #0000ff; stroke: #0000ff"/>
     <use xlink:href="#m891597bab8" x="197.286653" y="250.208612" style="fill: #0000ff; stroke: #0000ff"/>
     <use xlink:href="#m891597bab8" x="200.565992" y="240.867707" style="fill: #0000ff; stroke: #0000ff"/>
     <use xlink:href="#m891597bab8" x="203.845331" y="242.359696" style="fill: #0000ff; stroke: #0000ff"/>
     <use xlink:href="#m891597bab8" x="207.124669" y="245.022739" style="fill: #0000ff; stroke: #0000ff"/>
     <use xlink:href="#m891597bab8" x="210.404008" y="236.033445" style="fill: #0000ff; stroke: #0000ff"/>
     <use xlink:href="#m891597bab8" x="213.683347" y="241.055157" style="fill: #0000ff; stroke: #0000ff"/>
     <use xlink:href="#m891597bab8" x="216.962686" y="254.033866" style="fill: #0000ff; stroke: #0000ff"/>
     <use xlink:href="#m891597bab8" x="220.242025" y="247.764308" style="fill: #0000ff; stroke: #0000ff"/>
     <use xlink:href="#m891597bab8" x="223.521364" y="250.266997" style="fill: #0000ff; stroke: #0000ff"/>
     <use xlink:href="#m891597bab8" x="226.800702" y="251.73745" style="fill: #0000ff; stroke: #0000ff"/>
     <use xlink:href="#m891597bab8" x="230.080041" y="243.841836" style="fill: #0000ff; stroke: #0000ff"/>
     <use xlink:href="#m891597bab8" x="233.35938" y="243.094131" style="fill: #0000ff; stroke: #0000ff"/>
     <use xlink:href="#m891597bab8" x="236.638719" y="253.842261" style="fill: #0000ff; stroke: #0000ff"/>
     <use xlink:href="#m891597bab8" x="239.918058" y="249.457977" style="fill: #0000ff; stroke: #0000ff"/>
     <use xlink:href="#m891597bab8" x="243.197397" y="244.069345" style="fill: #0000ff; stroke: #0000ff"/>
     <use xlink:href="#m891597bab8" x="246.476736" y="245.741116" style="fill: #0000ff; stroke: #0000ff"/>
     <use xlink:href="#m891597bab8" x="249.756074" y="232.176555" style="fill: #0000ff; stroke: #0000ff"/>
     <use xlink:href="#m891597bab8" x="253.035413" y="243.700292" style="fill: #0000ff; stroke: #0000ff"/>
     <use xlink:href="#m891597bab8" x="256.314752" y="249.807628" style="fill: #0000ff; stroke: #0000ff"/>
     <use xlink:href="#m891597bab8" x="259.594091" y="252.718936" style="fill: #0000ff; stroke: #0000ff"/>
     <use xlink:href="#m891597bab8" x="262.87343" y="252.044771" style="fill: #0000ff; stroke: #0000ff"/>
     <use xlink:href="#m891597bab8" x="266.152769" y="240.866892" style="fill: #0000ff; stroke: #0000ff"/>
     <use xlink:href="#m891597bab8" x="269.432107" y="248.422011" style="fill: #0000ff; stroke: #0000ff"/>
     <use xlink:href="#m891597bab8" x="272.711446" y="239.100081" style="fill: #0000ff; stroke: #0000ff"/>
     <use xlink:href="#m891597bab8" x="275.990785" y="246.636957" style="fill: #0000ff; stroke: #0000ff"/>
     <use xlink:href="#m891597bab8" x="279.270124" y="243.489978" style="fill: #0000ff; stroke: #0000ff"/>
     <use xlink:href="#m891597bab8" x="282.549463" y="244.433461" style="fill: #0000ff; stroke: #0000ff"/>
     <use xlink:href="#m891597bab8" x="285.828802" y="251.134194" style="fill: #0000ff; stroke: #0000ff"/>
     <use xlink:href="#m891597bab8" x="289.10814" y="249.456177" style="fill: #0000ff; stroke: #0000ff"/>
     <use xlink:href="#m891597bab8" x="292.387479" y="242.195758" style="fill: #0000ff; stroke: #0000ff"/>
     <use xlink:href="#m891597bab8" x="295.666818" y="249.235488" style="fill: #0000ff; stroke: #0000ff"/>
     <use xlink:href="#m891597bab8" x="298.946157" y="241.366439" style="fill: #0000ff; stroke: #0000ff"/>
     <use xlink:href="#m891597bab8" x="302.225496" y="253.191041" style="fill: #0000ff; stroke: #0000ff"/>
     <use xlink:href="#m891597bab8" x="305.504835" y="247.872714" style="fill: #0000ff; stroke: #0000ff"/>
     <use xlink:href="#m891597bab8" x="308.784174" y="237.036012" style="fill: #0000ff; stroke: #0000ff"/>
     <use xlink:href="#m891597bab8" x="312.063512" y="250.719461" style="fill: #0000ff; stroke: #0000ff"/>
     <use xlink:href="#m891597bab8" x="315.342851" y="247.998577" style="fill: #0000ff; stroke: #0000ff"/>
     <use xlink:href="#m891597bab8" x="318.62219" y="249.269266" style="fill: #0000ff; stroke: #0000ff"/>
     <use xlink:href="#m891597bab8" x="321.901529" y="248.220288" style="fill: #0000ff; stroke: #0000ff"/>
     <use xlink:href="#m891597bab8" x="325.180868" y="252.467846" style="fill: #0000ff; stroke: #0000ff"/>
     <use xlink:href="#m891597bab8" x="328.460207" y="251.925452" style="fill: #0000ff; stroke: #0000ff"/>
     <use xlink:href="#m891597bab8" x="331.739545" y="245.771329" style="fill: #0000ff; stroke: #0000ff"/>
     <use xlink:href="#m891597bab8" x="335.018884" y="247.534882" style="fill: #0000ff; stroke: #0000ff"/>
     <use xlink:href="#m891597bab8" x="338.298223" y="254.617707" style="fill: #0000ff; stroke: #0000ff"/>
     <use xlink:href="#m891597bab8" x="341.577562" y="244.233597" style="fill: #0000ff; stroke: #0000ff"/>
     <use xlink:href="#m891597bab8" x="344.856901" y="238.693864" style="fill: #0000ff; stroke: #0000ff"/>
     <use xlink:href="#m891597bab8" x="348.13624" y="244.687502" style="fill: #0000ff; stroke: #0000ff"/>
     <use xlink:href="#m891597bab8" x="351.415579" y="245.372813" style="fill: #0000ff; stroke: #0000ff"/>
     <use xlink:href="#m891597bab8" x="354.694917" y="234.436921" style="fill: #0000ff; stroke: #0000ff"/>
     <use xlink:href="#m891597bab8" x="357.974256" y="261.216" style="fill: #0000ff; stroke: #0000ff"/>
     <use xlink:href="#m891597bab8" x="361.253595" y="247.54627" style="fill: #0000ff; stroke: #0000ff"/>
     <use xlink:href="#m891597bab8" x="364.532934" y="246.847307" style="fill: #0000ff; stroke: #0000ff"/>
     <use xlink:href="#m891597bab8" x="367.812273" y="249.552728" style="fill: #0000ff; stroke: #0000ff"/>
    </g>
   </g>
   <g id="matplotlib.axis_1">
    <g id="xtick_1">
     <g id="line2d_1">
      <path d="M 43.157727 273.312 
L 43.157727 7.2 
" clip-path="url(#p986cccde69)" style="fill: none; stroke-dasharray: 0.8,1.32; stroke-dashoffset: 0; stroke: #b0b0b0; stroke-width: 0.8"/>
     </g>
     <g id="line2d_2">
      <defs>
       <path id="m25160d605b" d="M 0 0 
L 0 3.5 
" style="stroke: #000000; stroke-width: 0.8"/>
      </defs>
      <g>
       <use xlink:href="#m25160d605b" x="43.157727" y="273.312" style="stroke: #000000; stroke-width: 0.8"/>
      </g>
     </g>
     <g id="text_1">
      <!-- 0.0 -->
      <g transform="translate(35.206165 287.910437) scale(0.1 -0.1)">
       <defs>
        <path id="DejaVuSans-30" d="M 2034 4250 
Q 1547 4250 1301 3770 
Q 1056 3291 1056 2328 
Q 1056 1369 1301 889 
Q 1547 409 2034 409 
Q 2525 409 2770 889 
Q 3016 1369 3016 2328 
Q 3016 3291 2770 3770 
Q 2525 4250 2034 4250 
z
M 2034 4750 
Q 2819 4750 3233 4129 
Q 3647 3509 3647 2328 
Q 3647 1150 3233 529 
Q 2819 -91 2034 -91 
Q 1250 -91 836 529 
Q 422 1150 422 2328 
Q 422 3509 836 4129 
Q 1250 4750 2034 4750 
z
" transform="scale(0.015625)"/>
        <path id="DejaVuSans-2e" d="M 684 794 
L 1344 794 
L 1344 0 
L 684 0 
L 684 794 
z
" transform="scale(0.015625)"/>
       </defs>
       <use xlink:href="#DejaVuSans-30"/>
       <use xlink:href="#DejaVuSans-2e" x="63.623047"/>
       <use xlink:href="#DejaVuSans-30" x="95.410156"/>
      </g>
     </g>
    </g>
    <g id="xtick_2">
     <g id="line2d_3">
      <path d="M 108.744504 273.312 
L 108.744504 7.2 
" clip-path="url(#p986cccde69)" style="fill: none; stroke-dasharray: 0.8,1.32; stroke-dashoffset: 0; stroke: #b0b0b0; stroke-width: 0.8"/>
     </g>
     <g id="line2d_4">
      <g>
       <use xlink:href="#m25160d605b" x="108.744504" y="273.312" style="stroke: #000000; stroke-width: 0.8"/>
      </g>
     </g>
     <g id="text_2">
      <!-- 0.2 -->
      <g transform="translate(100.792942 287.910437) scale(0.1 -0.1)">
       <defs>
        <path id="DejaVuSans-32" d="M 1228 531 
L 3431 531 
L 3431 0 
L 469 0 
L 469 531 
Q 828 903 1448 1529 
Q 2069 2156 2228 2338 
Q 2531 2678 2651 2914 
Q 2772 3150 2772 3378 
Q 2772 3750 2511 3984 
Q 2250 4219 1831 4219 
Q 1534 4219 1204 4116 
Q 875 4013 500 3803 
L 500 4441 
Q 881 4594 1212 4672 
Q 1544 4750 1819 4750 
Q 2544 4750 2975 4387 
Q 3406 4025 3406 3419 
Q 3406 3131 3298 2873 
Q 3191 2616 2906 2266 
Q 2828 2175 2409 1742 
Q 1991 1309 1228 531 
z
" transform="scale(0.015625)"/>
       </defs>
       <use xlink:href="#DejaVuSans-30"/>
       <use xlink:href="#DejaVuSans-2e" x="63.623047"/>
       <use xlink:href="#DejaVuSans-32" x="95.410156"/>
      </g>
     </g>
    </g>
    <g id="xtick_3">
     <g id="line2d_5">
      <path d="M 174.331281 273.312 
L 174.331281 7.2 
" clip-path="url(#p986cccde69)" style="fill: none; stroke-dasharray: 0.8,1.32; stroke-dashoffset: 0; stroke: #b0b0b0; stroke-width: 0.8"/>
     </g>
     <g id="line2d_6">
      <g>
       <use xlink:href="#m25160d605b" x="174.331281" y="273.312" style="stroke: #000000; stroke-width: 0.8"/>
      </g>
     </g>
     <g id="text_3">
      <!-- 0.4 -->
      <g transform="translate(166.379718 287.910437) scale(0.1 -0.1)">
       <defs>
        <path id="DejaVuSans-34" d="M 2419 4116 
L 825 1625 
L 2419 1625 
L 2419 4116 
z
M 2253 4666 
L 3047 4666 
L 3047 1625 
L 3713 1625 
L 3713 1100 
L 3047 1100 
L 3047 0 
L 2419 0 
L 2419 1100 
L 313 1100 
L 313 1709 
L 2253 4666 
z
" transform="scale(0.015625)"/>
       </defs>
       <use xlink:href="#DejaVuSans-30"/>
       <use xlink:href="#DejaVuSans-2e" x="63.623047"/>
       <use xlink:href="#DejaVuSans-34" x="95.410156"/>
      </g>
     </g>
    </g>
    <g id="xtick_4">
     <g id="line2d_7">
      <path d="M 239.918058 273.312 
L 239.918058 7.2 
" clip-path="url(#p986cccde69)" style="fill: none; stroke-dasharray: 0.8,1.32; stroke-dashoffset: 0; stroke: #b0b0b0; stroke-width: 0.8"/>
     </g>
     <g id="line2d_8">
      <g>
       <use xlink:href="#m25160d605b" x="239.918058" y="273.312" style="stroke: #000000; stroke-width: 0.8"/>
      </g>
     </g>
     <g id="text_4">
      <!-- 0.6 -->
      <g transform="translate(231.966495 287.910437) scale(0.1 -0.1)">
       <defs>
        <path id="DejaVuSans-36" d="M 2113 2584 
Q 1688 2584 1439 2293 
Q 1191 2003 1191 1497 
Q 1191 994 1439 701 
Q 1688 409 2113 409 
Q 2538 409 2786 701 
Q 3034 994 3034 1497 
Q 3034 2003 2786 2293 
Q 2538 2584 2113 2584 
z
M 3366 4563 
L 3366 3988 
Q 3128 4100 2886 4159 
Q 2644 4219 2406 4219 
Q 1781 4219 1451 3797 
Q 1122 3375 1075 2522 
Q 1259 2794 1537 2939 
Q 1816 3084 2150 3084 
Q 2853 3084 3261 2657 
Q 3669 2231 3669 1497 
Q 3669 778 3244 343 
Q 2819 -91 2113 -91 
Q 1303 -91 875 529 
Q 447 1150 447 2328 
Q 447 3434 972 4092 
Q 1497 4750 2381 4750 
Q 2619 4750 2861 4703 
Q 3103 4656 3366 4563 
z
" transform="scale(0.015625)"/>
       </defs>
       <use xlink:href="#DejaVuSans-30"/>
       <use xlink:href="#DejaVuSans-2e" x="63.623047"/>
       <use xlink:href="#DejaVuSans-36" x="95.410156"/>
      </g>
     </g>
    </g>
    <g id="xtick_5">
     <g id="line2d_9">
      <path d="M 305.504835 273.312 
L 305.504835 7.2 
" clip-path="url(#p986cccde69)" style="fill: none; stroke-dasharray: 0.8,1.32; stroke-dashoffset: 0; stroke: #b0b0b0; stroke-width: 0.8"/>
     </g>
     <g id="line2d_10">
      <g>
       <use xlink:href="#m25160d605b" x="305.504835" y="273.312" style="stroke: #000000; stroke-width: 0.8"/>
      </g>
     </g>
     <g id="text_5">
      <!-- 0.8 -->
      <g transform="translate(297.553272 287.910437) scale(0.1 -0.1)">
       <defs>
        <path id="DejaVuSans-38" d="M 2034 2216 
Q 1584 2216 1326 1975 
Q 1069 1734 1069 1313 
Q 1069 891 1326 650 
Q 1584 409 2034 409 
Q 2484 409 2743 651 
Q 3003 894 3003 1313 
Q 3003 1734 2745 1975 
Q 2488 2216 2034 2216 
z
M 1403 2484 
Q 997 2584 770 2862 
Q 544 3141 544 3541 
Q 544 4100 942 4425 
Q 1341 4750 2034 4750 
Q 2731 4750 3128 4425 
Q 3525 4100 3525 3541 
Q 3525 3141 3298 2862 
Q 3072 2584 2669 2484 
Q 3125 2378 3379 2068 
Q 3634 1759 3634 1313 
Q 3634 634 3220 271 
Q 2806 -91 2034 -91 
Q 1263 -91 848 271 
Q 434 634 434 1313 
Q 434 1759 690 2068 
Q 947 2378 1403 2484 
z
M 1172 3481 
Q 1172 3119 1398 2916 
Q 1625 2713 2034 2713 
Q 2441 2713 2670 2916 
Q 2900 3119 2900 3481 
Q 2900 3844 2670 4047 
Q 2441 4250 2034 4250 
Q 1625 4250 1398 4047 
Q 1172 3844 1172 3481 
z
" transform="scale(0.015625)"/>
       </defs>
       <use xlink:href="#DejaVuSans-30"/>
       <use xlink:href="#DejaVuSans-2e" x="63.623047"/>
       <use xlink:href="#DejaVuSans-38" x="95.410156"/>
      </g>
     </g>
    </g>
    <g id="xtick_6">
     <g id="line2d_11">
      <path d="M 371.091612 273.312 
L 371.091612 7.2 
" clip-path="url(#p986cccde69)" style="fill: none; stroke-dasharray: 0.8,1.32; stroke-dashoffset: 0; stroke: #b0b0b0; stroke-width: 0.8"/>
     </g>
     <g id="line2d_12">
      <g>
       <use xlink:href="#m25160d605b" x="371.091612" y="273.312" style="stroke: #000000; stroke-width: 0.8"/>
      </g>
     </g>
     <g id="text_6">
      <!-- 1.0 -->
      <g transform="translate(363.140049 287.910437) scale(0.1 -0.1)">
       <defs>
        <path id="DejaVuSans-31" d="M 794 531 
L 1825 531 
L 1825 4091 
L 703 3866 
L 703 4441 
L 1819 4666 
L 2450 4666 
L 2450 531 
L 3481 531 
L 3481 0 
L 794 0 
L 794 531 
z
" transform="scale(0.015625)"/>
       </defs>
       <use xlink:href="#DejaVuSans-31"/>
       <use xlink:href="#DejaVuSans-2e" x="63.623047"/>
       <use xlink:href="#DejaVuSans-30" x="95.410156"/>
      </g>
     </g>
    </g>
   </g>
   <g id="matplotlib.axis_2">
    <g id="ytick_1">
     <g id="line2d_13">
      <path d="M 26.925 261.284443 
L 384.045 261.284443 
" clip-path="url(#p986cccde69)" style="fill: none; stroke-dasharray: 0.8,1.32; stroke-dashoffset: 0; stroke: #b0b0b0; stroke-width: 0.8"/>
     </g>
     <g id="line2d_14">
      <defs>
       <path id="m04381e9b4a" d="M 0 0 
L -3.5 0 
" style="stroke: #000000; stroke-width: 0.8"/>
      </defs>
      <g>
       <use xlink:href="#m04381e9b4a" x="26.925" y="261.284443" style="stroke: #000000; stroke-width: 0.8"/>
      </g>
     </g>
     <g id="text_7">
      <!-- 0 -->
      <g transform="translate(13.5625 265.083662) scale(0.1 -0.1)">
       <use xlink:href="#DejaVuSans-30"/>
      </g>
     </g>
    </g>
    <g id="ytick_2">
     <g id="line2d_15">
      <path d="M 26.925 206.663797 
L 384.045 206.663797 
" clip-path="url(#p986cccde69)" style="fill: none; stroke-dasharray: 0.8,1.32; stroke-dashoffset: 0; stroke: #b0b0b0; stroke-width: 0.8"/>
     </g>
     <g id="line2d_16">
      <g>
       <use xlink:href="#m04381e9b4a" x="26.925" y="206.663797" style="stroke: #000000; stroke-width: 0.8"/>
      </g>
     </g>
     <g id="text_8">
      <!-- 5 -->
      <g transform="translate(13.5625 210.463016) scale(0.1 -0.1)">
       <defs>
        <path id="DejaVuSans-35" d="M 691 4666 
L 3169 4666 
L 3169 4134 
L 1269 4134 
L 1269 2991 
Q 1406 3038 1543 3061 
Q 1681 3084 1819 3084 
Q 2600 3084 3056 2656 
Q 3513 2228 3513 1497 
Q 3513 744 3044 326 
Q 2575 -91 1722 -91 
Q 1428 -91 1123 -41 
Q 819 9 494 109 
L 494 744 
Q 775 591 1075 516 
Q 1375 441 1709 441 
Q 2250 441 2565 725 
Q 2881 1009 2881 1497 
Q 2881 1984 2565 2268 
Q 2250 2553 1709 2553 
Q 1456 2553 1204 2497 
Q 953 2441 691 2322 
L 691 4666 
z
" transform="scale(0.015625)"/>
       </defs>
       <use xlink:href="#DejaVuSans-35"/>
      </g>
     </g>
    </g>
    <g id="ytick_3">
     <g id="line2d_17">
      <path d="M 26.925 152.043151 
L 384.045 152.043151 
" clip-path="url(#p986cccde69)" style="fill: none; stroke-dasharray: 0.8,1.32; stroke-dashoffset: 0; stroke: #b0b0b0; stroke-width: 0.8"/>
     </g>
     <g id="line2d_18">
      <g>
       <use xlink:href="#m04381e9b4a" x="26.925" y="152.043151" style="stroke: #000000; stroke-width: 0.8"/>
      </g>
     </g>
     <g id="text_9">
      <!-- 10 -->
      <g transform="translate(7.2 155.84237) scale(0.1 -0.1)">
       <use xlink:href="#DejaVuSans-31"/>
       <use xlink:href="#DejaVuSans-30" x="63.623047"/>
      </g>
     </g>
    </g>
    <g id="ytick_4">
     <g id="line2d_19">
      <path d="M 26.925 97.422505 
L 384.045 97.422505 
" clip-path="url(#p986cccde69)" style="fill: none; stroke-dasharray: 0.8,1.32; stroke-dashoffset: 0; stroke: #b0b0b0; stroke-width: 0.8"/>
     </g>
     <g id="line2d_20">
      <g>
       <use xlink:href="#m04381e9b4a" x="26.925" y="97.422505" style="stroke: #000000; stroke-width: 0.8"/>
      </g>
     </g>
     <g id="text_10">
      <!-- 15 -->
      <g transform="translate(7.2 101.221723) scale(0.1 -0.1)">
       <use xlink:href="#DejaVuSans-31"/>
       <use xlink:href="#DejaVuSans-35" x="63.623047"/>
      </g>
     </g>
    </g>
    <g id="ytick_5">
     <g id="line2d_21">
      <path d="M 26.925 42.801858 
L 384.045 42.801858 
" clip-path="url(#p986cccde69)" style="fill: none; stroke-dasharray: 0.8,1.32; stroke-dashoffset: 0; stroke: #b0b0b0; stroke-width: 0.8"/>
     </g>
     <g id="line2d_22">
      <g>
       <use xlink:href="#m04381e9b4a" x="26.925" y="42.801858" style="stroke: #000000; stroke-width: 0.8"/>
      </g>
     </g>
     <g id="text_11">
      <!-- 20 -->
      <g transform="translate(7.2 46.601077) scale(0.1 -0.1)">
       <use xlink:href="#DejaVuSans-32"/>
       <use xlink:href="#DejaVuSans-30" x="63.623047"/>
      </g>
     </g>
    </g>
   </g>
   <g id="line2d_23">
    <path d="M 43.157727 242.713423 
L 46.437066 242.768044 
L 49.716405 242.822665 
L 52.995744 242.877285 
L 56.275083 242.931906 
L 59.554421 242.986527 
L 62.83376 243.041147 
L 66.113099 243.095768 
L 69.392438 243.150389 
L 72.671777 243.205009 
L 75.951116 243.25963 
L 79.230455 243.314251 
L 82.509793 243.368871 
L 85.789132 243.423492 
L 89.068471 243.478112 
L 92.34781 243.532733 
L 95.627149 243.587354 
L 98.906488 243.641974 
L 102.185826 243.696595 
L 105.465165 243.751216 
L 108.744504 243.805836 
L 112.023843 243.860457 
L 115.303182 243.915078 
L 118.582521 243.969698 
L 121.86186 244.024319 
L 125.141198 244.07894 
L 128.420537 244.13356 
L 131.699876 244.188181 
L 134.979215 244.242802 
L 138.258554 244.297422 
L 141.537893 244.352043 
L 144.817231 244.406663 
L 148.09657 244.461284 
L 151.375909 244.515905 
L 154.655248 244.570525 
L 157.934587 244.625146 
L 161.213926 244.679767 
L 164.493264 244.734387 
L 167.772603 244.789008 
L 171.051942 244.843629 
L 174.331281 244.898249 
L 177.61062 244.95287 
L 180.889959 245.007491 
L 184.169298 245.062111 
L 187.448636 245.116732 
L 190.727975 245.171353 
L 194.007314 245.225973 
L 197.286653 245.280594 
L 200.565992 245.335214 
L 203.845331 245.389835 
L 207.124669 245.444456 
L 210.404008 245.499076 
L 213.683347 245.553697 
L 216.962686 245.608318 
L 220.242025 245.662938 
L 223.521364 245.717559 
L 226.800702 245.77218 
L 230.080041 245.8268 
L 233.35938 245.881421 
L 236.638719 245.936042 
L 239.918058 245.990662 
L 243.197397 246.045283 
L 246.476736 246.099904 
L 249.756074 246.154524 
L 253.035413 246.209145 
L 256.314752 246.263765 
L 259.594091 246.318386 
L 262.87343 246.373007 
L 266.152769 246.427627 
L 269.432107 246.482248 
L 272.711446 246.536869 
L 275.990785 246.591489 
L 279.270124 246.64611 
L 282.549463 246.700731 
L 285.828802 246.755351 
L 289.10814 246.809972 
L 292.387479 246.864593 
L 295.666818 246.919213 
L 298.946157 246.973834 
L 302.225496 247.028454 
L 305.504835 247.083075 
L 308.784174 247.137696 
L 312.063512 247.192316 
L 315.342851 247.246937 
L 318.62219 247.301558 
L 321.901529 247.356178 
L 325.180868 247.410799 
L 328.460207 247.46542 
L 331.739545 247.52004 
L 335.018884 247.574661 
L 338.298223 247.629282 
L 341.577562 247.683902 
L 344.856901 247.738523 
L 348.13624 247.793144 
L 351.415579 247.847764 
L 354.694917 247.902385 
L 357.974256 247.957005 
L 361.253595 248.011626 
L 364.532934 248.066247 
L 367.812273 248.120867 
" clip-path="url(#p986cccde69)" style="fill: none; stroke: #ff0000; stroke-width: 2; stroke-linecap: square"/>
   </g>
   <g id="patch_3">
    <path d="M 26.925 273.312 
L 26.925 7.2 
" style="fill: none; stroke: #000000; stroke-width: 0.8; stroke-linejoin: miter; stroke-linecap: square"/>
   </g>
   <g id="patch_4">
    <path d="M 384.045 273.312 
L 384.045 7.2 
" style="fill: none; stroke: #000000; stroke-width: 0.8; stroke-linejoin: miter; stroke-linecap: square"/>
   </g>
   <g id="patch_5">
    <path d="M 26.925 273.312 
L 384.045 273.312 
" style="fill: none; stroke: #000000; stroke-width: 0.8; stroke-linejoin: miter; stroke-linecap: square"/>
   </g>
   <g id="patch_6">
    <path d="M 26.925 7.2 
L 384.045 7.2 
" style="fill: none; stroke: #000000; stroke-width: 0.8; stroke-linejoin: miter; stroke-linecap: square"/>
   </g>
   <g id="legend_1">
    <g id="patch_7">
     <path d="M 280.46375 44.55625 
L 377.045 44.55625 
Q 379.045 44.55625 379.045 42.55625 
L 379.045 14.2 
Q 379.045 12.2 377.045 12.2 
L 280.46375 12.2 
Q 278.46375 12.2 278.46375 14.2 
L 278.46375 42.55625 
Q 278.46375 44.55625 280.46375 44.55625 
z
" style="fill: #ffffff; opacity: 0.8; stroke: #cccccc; stroke-linejoin: miter"/>
    </g>
    <g id="line2d_24">
     <path d="M 282.46375 20.298437 
L 292.46375 20.298437 
L 302.46375 20.298437 
" style="fill: none; stroke: #ff0000; stroke-width: 2; stroke-linecap: square"/>
    </g>
    <g id="text_12">
     <!-- Ground truth -->
     <g transform="translate(310.46375 23.798437) scale(0.1 -0.1)">
      <defs>
       <path id="DejaVuSans-47" d="M 3809 666 
L 3809 1919 
L 2778 1919 
L 2778 2438 
L 4434 2438 
L 4434 434 
Q 4069 175 3628 42 
Q 3188 -91 2688 -91 
Q 1594 -91 976 548 
Q 359 1188 359 2328 
Q 359 3472 976 4111 
Q 1594 4750 2688 4750 
Q 3144 4750 3555 4637 
Q 3966 4525 4313 4306 
L 4313 3634 
Q 3963 3931 3569 4081 
Q 3175 4231 2741 4231 
Q 1884 4231 1454 3753 
Q 1025 3275 1025 2328 
Q 1025 1384 1454 906 
Q 1884 428 2741 428 
Q 3075 428 3337 486 
Q 3600 544 3809 666 
z
" transform="scale(0.015625)"/>
       <path id="DejaVuSans-72" d="M 2631 2963 
Q 2534 3019 2420 3045 
Q 2306 3072 2169 3072 
Q 1681 3072 1420 2755 
Q 1159 2438 1159 1844 
L 1159 0 
L 581 0 
L 581 3500 
L 1159 3500 
L 1159 2956 
Q 1341 3275 1631 3429 
Q 1922 3584 2338 3584 
Q 2397 3584 2469 3576 
Q 2541 3569 2628 3553 
L 2631 2963 
z
" transform="scale(0.015625)"/>
       <path id="DejaVuSans-6f" d="M 1959 3097 
Q 1497 3097 1228 2736 
Q 959 2375 959 1747 
Q 959 1119 1226 758 
Q 1494 397 1959 397 
Q 2419 397 2687 759 
Q 2956 1122 2956 1747 
Q 2956 2369 2687 2733 
Q 2419 3097 1959 3097 
z
M 1959 3584 
Q 2709 3584 3137 3096 
Q 3566 2609 3566 1747 
Q 3566 888 3137 398 
Q 2709 -91 1959 -91 
Q 1206 -91 779 398 
Q 353 888 353 1747 
Q 353 2609 779 3096 
Q 1206 3584 1959 3584 
z
" transform="scale(0.015625)"/>
       <path id="DejaVuSans-75" d="M 544 1381 
L 544 3500 
L 1119 3500 
L 1119 1403 
Q 1119 906 1312 657 
Q 1506 409 1894 409 
Q 2359 409 2629 706 
Q 2900 1003 2900 1516 
L 2900 3500 
L 3475 3500 
L 3475 0 
L 2900 0 
L 2900 538 
Q 2691 219 2414 64 
Q 2138 -91 1772 -91 
Q 1169 -91 856 284 
Q 544 659 544 1381 
z
M 1991 3584 
L 1991 3584 
z
" transform="scale(0.015625)"/>
       <path id="DejaVuSans-6e" d="M 3513 2113 
L 3513 0 
L 2938 0 
L 2938 2094 
Q 2938 2591 2744 2837 
Q 2550 3084 2163 3084 
Q 1697 3084 1428 2787 
Q 1159 2491 1159 1978 
L 1159 0 
L 581 0 
L 581 3500 
L 1159 3500 
L 1159 2956 
Q 1366 3272 1645 3428 
Q 1925 3584 2291 3584 
Q 2894 3584 3203 3211 
Q 3513 2838 3513 2113 
z
" transform="scale(0.015625)"/>
       <path id="DejaVuSans-64" d="M 2906 2969 
L 2906 4863 
L 3481 4863 
L 3481 0 
L 2906 0 
L 2906 525 
Q 2725 213 2448 61 
Q 2172 -91 1784 -91 
Q 1150 -91 751 415 
Q 353 922 353 1747 
Q 353 2572 751 3078 
Q 1150 3584 1784 3584 
Q 2172 3584 2448 3432 
Q 2725 3281 2906 2969 
z
M 947 1747 
Q 947 1113 1208 752 
Q 1469 391 1925 391 
Q 2381 391 2643 752 
Q 2906 1113 2906 1747 
Q 2906 2381 2643 2742 
Q 2381 3103 1925 3103 
Q 1469 3103 1208 2742 
Q 947 2381 947 1747 
z
" transform="scale(0.015625)"/>
       <path id="DejaVuSans-20" transform="scale(0.015625)"/>
       <path id="DejaVuSans-74" d="M 1172 4494 
L 1172 3500 
L 2356 3500 
L 2356 3053 
L 1172 3053 
L 1172 1153 
Q 1172 725 1289 603 
Q 1406 481 1766 481 
L 2356 481 
L 2356 0 
L 1766 0 
Q 1100 0 847 248 
Q 594 497 594 1153 
L 594 3053 
L 172 3053 
L 172 3500 
L 594 3500 
L 594 4494 
L 1172 4494 
z
" transform="scale(0.015625)"/>
       <path id="DejaVuSans-68" d="M 3513 2113 
L 3513 0 
L 2938 0 
L 2938 2094 
Q 2938 2591 2744 2837 
Q 2550 3084 2163 3084 
Q 1697 3084 1428 2787 
Q 1159 2491 1159 1978 
L 1159 0 
L 581 0 
L 581 4863 
L 1159 4863 
L 1159 2956 
Q 1366 3272 1645 3428 
Q 1925 3584 2291 3584 
Q 2894 3584 3203 3211 
Q 3513 2838 3513 2113 
z
" transform="scale(0.015625)"/>
      </defs>
      <use xlink:href="#DejaVuSans-47"/>
      <use xlink:href="#DejaVuSans-72" x="77.490234"/>
      <use xlink:href="#DejaVuSans-6f" x="116.353516"/>
      <use xlink:href="#DejaVuSans-75" x="177.535156"/>
      <use xlink:href="#DejaVuSans-6e" x="240.914062"/>
      <use xlink:href="#DejaVuSans-64" x="304.292969"/>
      <use xlink:href="#DejaVuSans-20" x="367.769531"/>
      <use xlink:href="#DejaVuSans-74" x="399.556641"/>
      <use xlink:href="#DejaVuSans-72" x="438.765625"/>
      <use xlink:href="#DejaVuSans-75" x="479.878906"/>
      <use xlink:href="#DejaVuSans-74" x="543.257812"/>
      <use xlink:href="#DejaVuSans-68" x="582.466797"/>
     </g>
    </g>
    <g id="PathCollection_2">
     <g>
      <use xlink:href="#m891597bab8" x="292.46375" y="35.851562" style="fill: #0000ff; stroke: #0000ff"/>
     </g>
    </g>
    <g id="text_13">
     <!-- Data -->
     <g transform="translate(310.46375 38.476562) scale(0.1 -0.1)">
      <defs>
       <path id="DejaVuSans-44" d="M 1259 4147 
L 1259 519 
L 2022 519 
Q 2988 519 3436 956 
Q 3884 1394 3884 2338 
Q 3884 3275 3436 3711 
Q 2988 4147 2022 4147 
L 1259 4147 
z
M 628 4666 
L 1925 4666 
Q 3281 4666 3915 4102 
Q 4550 3538 4550 2338 
Q 4550 1131 3912 565 
Q 3275 0 1925 0 
L 628 0 
L 628 4666 
z
" transform="scale(0.015625)"/>
       <path id="DejaVuSans-61" d="M 2194 1759 
Q 1497 1759 1228 1600 
Q 959 1441 959 1056 
Q 959 750 1161 570 
Q 1363 391 1709 391 
Q 2188 391 2477 730 
Q 2766 1069 2766 1631 
L 2766 1759 
L 2194 1759 
z
M 3341 1997 
L 3341 0 
L 2766 0 
L 2766 531 
Q 2569 213 2275 61 
Q 1981 -91 1556 -91 
Q 1019 -91 701 211 
Q 384 513 384 1019 
Q 384 1609 779 1909 
Q 1175 2209 1959 2209 
L 2766 2209 
L 2766 2266 
Q 2766 2663 2505 2880 
Q 2244 3097 1772 3097 
Q 1472 3097 1187 3025 
Q 903 2953 641 2809 
L 641 3341 
Q 956 3463 1253 3523 
Q 1550 3584 1831 3584 
Q 2591 3584 2966 3190 
Q 3341 2797 3341 1997 
z
" transform="scale(0.015625)"/>
      </defs>
      <use xlink:href="#DejaVuSans-44"/>
      <use xlink:href="#DejaVuSans-61" x="77.001953"/>
      <use xlink:href="#DejaVuSans-74" x="138.28125"/>
      <use xlink:href="#DejaVuSans-61" x="177.490234"/>
     </g>
    </g>
   </g>
  </g>
 </g>
 <defs>
  <clipPath id="p986cccde69">
   <rect x="26.925" y="7.2" width="357.12" height="266.112"/>
  </clipPath>
 </defs>
</svg>