<?xml version="1.0" encoding="utf-8" standalone="no"?>
<!DOCTYPE svg PUBLIC "-//W3C//DTD SVG 1.1//EN"
  "http://www.w3.org/Graphics/SVG/1.1/DTD/svg11.dtd">
<svg xmlns:xlink="http://www.w3.org/1999/xlink" width="391.245pt" height="297.190125pt" viewBox="0 0 391.245 297.190125" xmlns="http://www.w3.org/2000/svg" version="1.1">
 <metadata>
  <rdf:RDF xmlns:dc="http://purl.org/dc/elements/1.1/" xmlns:cc="http://creativecommons.org/ns#" xmlns:rdf="http://www.w3.org/1999/02/22-rdf-syntax-ns#">
   <cc:Work>
    <dc:type rdf:resource="http://purl.org/dc/dcmitype/StillImage"/>
    <dc:date>2023-12-04T16:27:25.612455</dc:date>
    <dc:format>image/svg+xml</dc:format>
    <dc:creator>
     <cc:Agent>
      <dc:title>Matplotlib v3.8.2, https://matplotlib.org/</dc:title>
     </cc:Agent>
    </dc:creator>
   </cc:Work>
  </rdf:RDF>
 </metadata>
 <defs>
  <style type="text/css">*{stroke-linejoin: round; stroke-linecap: butt}</style>
 </defs>
 <g id="figure_1">
  <g id="patch_1">
   <path d="M 0 297.190125 
L 391.245 297.190125 
L 391.245 0 
L 0 0 
z
" style="fill: #ffffff"/>
  </g>
  <g id="axes_1">
   <g id="patch_2">
    <path d="M 26.925 273.312 
L 384.045 273.312 
L 384.045 7.2 
L 26.925 7.2 
z
" style="fill: #ffffff"/>
   </g>
   <g id="PathCollection_1">
    <defs>
     <path id="mb5a0606b6b" d="M 0 1.581139 
C 0.419323 1.581139 0.821528 1.41454 1.118034 1.118034 
C 1.41454 0.821528 1.581139 0.419323 1.581139 0 
C 1.581139 -0.419323 1.41454 -0.821528 1.118034 -1.118034 
C 0.821528 -1.41454 0.419323 -1.581139 0 -1.581139 
C -0.419323 -1.581139 -0.821528 -1.41454 -1.118034 -1.118034 
C -1.41454 -0.821528 -1.581139 -0.419323 -1.581139 0 
C -1.581139 0.419323 -1.41454 0.821528 -1.118034 1.118034 
C -0.821528 1.41454 -0.419323 1.581139 0 1.581139 
z
" style="stroke: #0000ff"/>
    </defs>
    <g clip-path="url(#p90106e36bc)">
     <use xlink:href="#mb5a0606b6b" x="43.157727" y="249.951133" style="fill: #0000ff; stroke: #0000ff"/>
     <use xlink:href="#mb5a0606b6b" x="46.437066" y="250.645072" style="fill: #0000ff; stroke: #0000ff"/>
     <use xlink:href="#mb5a0606b6b" x="49.716405" y="246.745298" style="fill: #0000ff; stroke: #0000ff"/>
     <use xlink:href="#mb5a0606b6b" x="52.995744" y="242.43251" style="fill: #0000ff; stroke: #0000ff"/>
     <use xlink:href="#mb5a0606b6b" x="56.275083" y="248.480637" style="fill: #0000ff; stroke: #0000ff"/>
     <use xlink:href="#mb5a0606b6b" x="59.554421" y="238.014313" style="fill: #0000ff; stroke: #0000ff"/>
     <use xlink:href="#mb5a0606b6b" x="62.83376" y="242.687172" style="fill: #0000ff; stroke: #0000ff"/>
     <use xlink:href="#mb5a0606b6b" x="66.113099" y="250.152131" style="fill: #0000ff; stroke: #0000ff"/>
     <use xlink:href="#mb5a0606b6b" x="69.392438" y="241.915383" style="fill: #0000ff; stroke: #0000ff"/>
     <use xlink:href="#mb5a0606b6b" x="72.671777" y="245.22588" style="fill: #0000ff; stroke: #0000ff"/>
     <use xlink:href="#mb5a0606b6b" x="75.951116" y="245.349995" style="fill: #0000ff; stroke: #0000ff"/>
     <use xlink:href="#mb5a0606b6b" x="79.230455" y="245.122725" style="fill: #0000ff; stroke: #0000ff"/>
     <use xlink:href="#mb5a0606b6b" x="82.509793" y="236.45452" style="fill: #0000ff; stroke: #0000ff"/>
     <use xlink:href="#mb5a0606b6b" x="85.789132" y="253.045568" style="fill: #0000ff; stroke: #0000ff"/>
     <use xlink:href="#mb5a0606b6b" x="89.068471" y="245.121208" style="fill: #0000ff; stroke: #0000ff"/>
     <use xlink:href="#mb5a0606b6b" x="92.34781" y="246.817976" style="fill: #0000ff; stroke: #0000ff"/>
     <use xlink:href="#mb5a0606b6b" x="95.627149" y="252.144618" style="fill: #0000ff; stroke: #0000ff"/>
     <use xlink:href="#mb5a0606b6b" x="98.906488" y="243.392153" style="fill: #0000ff; stroke: #0000ff"/>
     <use xlink:href="#mb5a0606b6b" x="102.185826" y="252.063141" style="fill: #0000ff; stroke: #0000ff"/>
     <use xlink:href="#mb5a0606b6b" x="105.465165" y="254.480766" style="fill: #0000ff; stroke: #0000ff"/>
     <use xlink:href="#mb5a0606b6b" x="108.744504" y="249.399081" style="fill: #0000ff; stroke: #0000ff"/>
     <use xlink:href="#mb5a0606b6b" x="112.023843" y="239.156248" style="fill: #0000ff; stroke: #0000ff"/>
     <use xlink:href="#mb5a0606b6b" x="115.303182" y="251.946557" style="fill: #0000ff; stroke: #0000ff"/>
     <use xlink:href="#mb5a0606b6b" x="118.582521" y="242.378491" style="fill: #0000ff; stroke: #0000ff"/>
     <use xlink:href="#mb5a0606b6b" x="121.86186" y="247.609502" style="fill: #0000ff; stroke: #0000ff"/>
     <use xlink:href="#mb5a0606b6b" x="125.141198" y="248.128097" style="fill: #0000ff; stroke: #0000ff"/>
     <use xlink:href="#mb5a0606b6b" x="128.420537" y="19.296" style="fill: #0000ff; stroke: #0000ff"/>
     <use xlink:href="#mb5a0606b6b" x="131.699876" y="245.130053" style="fill: #0000ff; stroke: #0000ff"/>
     <use xlink:href="#mb5a0606b6b" x="134.979215" y="247.855601" style="fill: #0000ff; stroke: #0000ff"/>
     <use xlink:href="#mb5a0606b6b" x="138.258554" y="238.841127" style="fill: #0000ff; stroke: #0000ff"/>
     <use xlink:href="#mb5a0606b6b" x="141.537893" y="254.697952" style="fill: #0000ff; stroke: #0000ff"/>
     <use xlink:href="#mb5a0606b6b" x="144.817231" y="255.226563" style="fill: #0000ff; stroke: #0000ff"/>
     <use xlink:href="#mb5a0606b6b" x="148.09657" y="246.394758" style="fill: #0000ff; stroke: #0000ff"/>
     <use xlink:href="#mb5a0606b6b" x="151.375909" y="249.481406" style="fill: #0000ff; stroke: #0000ff"/>
     <use xlink:href="#mb5a0606b6b" x="154.655248" y="237.751211" style="fill: #0000ff; stroke: #0000ff"/>
     <use xlink:href="#mb5a0606b6b" x="157.934587" y="252.004018" style="fill: #0000ff; stroke: #0000ff"/>
     <use xlink:href="#mb5a0606b6b" x="161.213926" y="248.053284" style="fill: #0000ff; stroke: #0000ff"/>
     <use xlink:href="#mb5a0606b6b" x="164.493264" y="245.116137" style="fill: #0000ff; stroke: #0000ff"/>
     <use xlink:href="#mb5a0606b6b" x="167.772603" y="251.589366" style="fill: #0000ff; stroke: #0000ff"/>
     <use xlink:href="#mb5a0606b6b" x="171.051942" y="241.371343" style="fill: #0000ff; stroke: #0000ff"/>
     <use xlink:href="#mb5a0606b6b" x="174.331281" y="246.454259" style="fill: #0000ff; stroke: #0000ff"/>
     <use xlink:href="#mb5a0606b6b" x="177.61062" y="256.979552" style="fill: #0000ff; stroke: #0000ff"/>
     <use xlink:href="#mb5a0606b6b" x="180.889959" y="254.711896" style="fill: #0000ff; stroke: #0000ff"/>
     <use xlink:href="#mb5a0606b6b" x="184.169298" y="245.255004" style="fill: #0000ff; stroke: #0000ff"/>
     <use xlink:href="#mb5a0606b6b" x="187.448636" y="248.920291" style="fill: #0000ff; stroke: #0000ff"/>
     <use xlink:href="#mb5a0606b6b" x="190.727975" y="245.787243" style="fill: #0000ff; stroke: #0000ff"/>
     <use xlink:href="#mb5a0606b6b" x="194.007314" y="240.775479" style="fill: #0000ff; stroke: #0000ff"/>
     <use xlink:href="#mb5a0606b6b" x="197.286653" y="240.677768" style="fill: #0000ff; stroke: #0000ff"/>
     <use xlink:href="#mb5a0606b6b" x="200.565992" y="251.095963" style="fill: #0000ff; stroke: #0000ff"/>
     <use xlink:href="#mb5a0606b6b" x="203.845331" y="254.90189" style="fill: #0000ff; stroke: #0000ff"/>
     <use xlink:href="#mb5a0606b6b" x="207.124669" y="243.455439" style="fill: #0000ff; stroke: #0000ff"/>
     <use xlink:href="#mb5a0606b6b" x="210.404008" y="241.164713" style="fill: #0000ff; stroke: #0000ff"/>
     <use xlink:href="#mb5a0606b6b" x="213.683347" y="248.141994" style="fill: #0000ff; stroke: #0000ff"/>
     <use xlink:href="#mb5a0606b6b" x="216.962686" y="244.966347" style="fill: #0000ff; stroke: #0000ff"/>
     <use xlink:href="#mb5a0606b6b" x="220.242025" y="245.606589" style="fill: #0000ff; stroke: #0000ff"/>
     <use xlink:href="#mb5a0606b6b" x="223.521364" y="259.436167" style="fill: #0000ff; stroke: #0000ff"/>
     <use xlink:href="#mb5a0606b6b" x="226.800702" y="255.040825" style="fill: #0000ff; stroke: #0000ff"/>
     <use xlink:href="#mb5a0606b6b" x="230.080041" y="246.479435" style="fill: #0000ff; stroke: #0000ff"/>
     <use xlink:href="#mb5a0606b6b" x="233.35938" y="251.021993" style="fill: #0000ff; stroke: #0000ff"/>
     <use xlink:href="#mb5a0606b6b" x="236.638719" y="252.440737" style="fill: #0000ff; stroke: #0000ff"/>
     <use xlink:href="#mb5a0606b6b" x="239.918058" y="248.468075" style="fill: #0000ff; stroke: #0000ff"/>
     <use xlink:href="#mb5a0606b6b" x="243.197397" y="258.391869" style="fill: #0000ff; stroke: #0000ff"/>
     <use xlink:href="#mb5a0606b6b" x="246.476736" y="243.437539" style="fill: #0000ff; stroke: #0000ff"/>
     <use xlink:href="#mb5a0606b6b" x="249.756074" y="255.666727" style="fill: #0000ff; stroke: #0000ff"/>
     <use xlink:href="#mb5a0606b6b" x="253.035413" y="251.29037" style="fill: #0000ff; stroke: #0000ff"/>
     <use xlink:href="#mb5a0606b6b" x="256.314752" y="250.289894" style="fill: #0000ff; stroke: #0000ff"/>
     <use xlink:href="#mb5a0606b6b" x="259.594091" y="246.480426" style="fill: #0000ff; stroke: #0000ff"/>
     <use xlink:href="#mb5a0606b6b" x="262.87343" y="258.104067" style="fill: #0000ff; stroke: #0000ff"/>
     <use xlink:href="#mb5a0606b6b" x="266.152769" y="247.317955" style="fill: #0000ff; stroke: #0000ff"/>
     <use xlink:href="#mb5a0606b6b" x="269.432107" y="251.141358" style="fill: #0000ff; stroke: #0000ff"/>
     <use xlink:href="#mb5a0606b6b" x="272.711446" y="255.592265" style="fill: #0000ff; stroke: #0000ff"/>
     <use xlink:href="#mb5a0606b6b" x="275.990785" y="241.514288" style="fill: #0000ff; stroke: #0000ff"/>
     <use xlink:href="#mb5a0606b6b" x="279.270124" y="255.042214" style="fill: #0000ff; stroke: #0000ff"/>
     <use xlink:href="#mb5a0606b6b" x="282.549463" y="247.852066" style="fill: #0000ff; stroke: #0000ff"/>
     <use xlink:href="#mb5a0606b6b" x="285.828802" y="252.491653" style="fill: #0000ff; stroke: #0000ff"/>
     <use xlink:href="#mb5a0606b6b" x="289.10814" y="253.739732" style="fill: #0000ff; stroke: #0000ff"/>
     <use xlink:href="#mb5a0606b6b" x="292.387479" y="251.540501" style="fill: #0000ff; stroke: #0000ff"/>
     <use xlink:href="#mb5a0606b6b" x="295.666818" y="261.216" style="fill: #0000ff; stroke: #0000ff"/>
     <use xlink:href="#mb5a0606b6b" x="298.946157" y="255.506866" style="fill: #0000ff; stroke: #0000ff"/>
     <use xlink:href="#mb5a0606b6b" x="302.225496" y="247.492575" style="fill: #0000ff; stroke: #0000ff"/>
     <use xlink:href="#mb5a0606b6b" x="305.504835" y="248.663559" style="fill: #0000ff; stroke: #0000ff"/>
     <use xlink:href="#mb5a0606b6b" x="308.784174" y="255.577266" style="fill: #0000ff; stroke: #0000ff"/>
     <use xlink:href="#mb5a0606b6b" x="312.063512" y="251.381625" style="fill: #0000ff; stroke: #0000ff"/>
     <use xlink:href="#mb5a0606b6b" x="315.342851" y="248.017714" style="fill: #0000ff; stroke: #0000ff"/>
     <use xlink:href="#mb5a0606b6b" x="318.62219" y="247.040348" style="fill: #0000ff; stroke: #0000ff"/>
     <use xlink:href="#mb5a0606b6b" x="321.901529" y="246.817315" style="fill: #0000ff; stroke: #0000ff"/>
     <use xlink:href="#mb5a0606b6b" x="325.180868" y="258.360545" style="fill: #0000ff; stroke: #0000ff"/>
     <use xlink:href="#mb5a0606b6b" x="328.460207" y="247.920202" style="fill: #0000ff; stroke: #0000ff"/>
     <use xlink:href="#mb5a0606b6b" x="331.739545" y="257.486496" style="fill: #0000ff; stroke: #0000ff"/>
     <use xlink:href="#mb5a0606b6b" x="335.018884" y="249.480473" style="fill: #0000ff; stroke: #0000ff"/>
     <use xlink:href="#mb5a0606b6b" x="338.298223" y="257.214053" style="fill: #0000ff; stroke: #0000ff"/>
     <use xlink:href="#mb5a0606b6b" x="341.577562" y="248.84421" style="fill: #0000ff; stroke: #0000ff"/>
     <use xlink:href="#mb5a0606b6b" x="344.856901" y="252.168376" style="fill: #0000ff; stroke: #0000ff"/>
     <use xlink:href="#mb5a0606b6b" x="348.13624" y="248.049604" style="fill: #0000ff; stroke: #0000ff"/>
     <use xlink:href="#mb5a0606b6b" x="351.415579" y="250.087697" style="fill: #0000ff; stroke: #0000ff"/>
     <use xlink:href="#mb5a0606b6b" x="354.694917" y="248.755751" style="fill: #0000ff; stroke: #0000ff"/>
     <use xlink:href="#mb5a0606b6b" x="357.974256" y="248.384238" style="fill: #0000ff; stroke: #0000ff"/>
     <use xlink:href="#mb5a0606b6b" x="361.253595" y="240.994605" style="fill: #0000ff; stroke: #0000ff"/>
     <use xlink:href="#mb5a0606b6b" x="364.532934" y="249.851991" style="fill: #0000ff; stroke: #0000ff"/>
     <use xlink:href="#mb5a0606b6b" x="367.812273" y="252.819775" style="fill: #0000ff; stroke: #0000ff"/>
    </g>
   </g>
   <g id="matplotlib.axis_1">
    <g id="xtick_1">
     <g id="line2d_1">
      <path d="M 43.157727 273.312 
L 43.157727 7.2 
" clip-path="url(#p90106e36bc)" style="fill: none; stroke-dasharray: 0.8,1.32; stroke-dashoffset: 0; stroke: #b0b0b0; stroke-width: 0.8"/>
     </g>
     <g id="line2d_2">
      <defs>
       <path id="mc59afd5d1d" d="M 0 0 
L 0 3.5 
" style="stroke: #000000; stroke-width: 0.8"/>
      </defs>
      <g>
       <use xlink:href="#mc59afd5d1d" x="43.157727" y="273.312" style="stroke: #000000; stroke-width: 0.8"/>
      </g>
     </g>
     <g id="text_1">
      <!-- 0.0 -->
      <g transform="translate(35.206165 287.910437) scale(0.1 -0.1)">
       <defs>
        <path id="DejaVuSans-30" d="M 2034 4250 
Q 1547 4250 1301 3770 
Q 1056 3291 1056 2328 
Q 1056 1369 1301 889 
Q 1547 409 2034 409 
Q 2525 409 2770 889 
Q 3016 1369 3016 2328 
Q 3016 3291 2770 3770 
Q 2525 4250 2034 4250 
z
M 2034 4750 
Q 2819 4750 3233 4129 
Q 3647 3509 3647 2328 
Q 3647 1150 3233 529 
Q 2819 -91 2034 -91 
Q 1250 -91 836 529 
Q 422 1150 422 2328 
Q 422 3509 836 4129 
Q 1250 4750 2034 4750 
z
" transform="scale(0.015625)"/>
        <path id="DejaVuSans-2e" d="M 684 794 
L 1344 794 
L 1344 0 
L 684 0 
L 684 794 
z
" transform="scale(0.015625)"/>
       </defs>
       <use xlink:href="#DejaVuSans-30"/>
       <use xlink:href="#DejaVuSans-2e" x="63.623047"/>
       <use xlink:href="#DejaVuSans-30" x="95.410156"/>
      </g>
     </g>
    </g>
    <g id="xtick_2">
     <g id="line2d_3">
      <path d="M 108.744504 273.312 
L 108.744504 7.2 
" clip-path="url(#p90106e36bc)" style="fill: none; stroke-dasharray: 0.8,1.32; stroke-dashoffset: 0; stroke: #b0b0b0; stroke-width: 0.8"/>
     </g>
     <g id="line2d_4">
      <g>
       <use xlink:href="#mc59afd5d1d" x="108.744504" y="273.312" style="stroke: #000000; stroke-width: 0.8"/>
      </g>
     </g>
     <g id="text_2">
      <!-- 0.2 -->
      <g transform="translate(100.792942 287.910437) scale(0.1 -0.1)">
       <defs>
        <path id="DejaVuSans-32" d="M 1228 531 
L 3431 531 
L 3431 0 
L 469 0 
L 469 531 
Q 828 903 1448 1529 
Q 2069 2156 2228 2338 
Q 2531 2678 2651 2914 
Q 2772 3150 2772 3378 
Q 2772 3750 2511 3984 
Q 2250 4219 1831 4219 
Q 1534 4219 1204 4116 
Q 875 4013 500 3803 
L 500 4441 
Q 881 4594 1212 4672 
Q 1544 4750 1819 4750 
Q 2544 4750 2975 4387 
Q 3406 4025 3406 3419 
Q 3406 3131 3298 2873 
Q 3191 2616 2906 2266 
Q 2828 2175 2409 1742 
Q 1991 1309 1228 531 
z
" transform="scale(0.015625)"/>
       </defs>
       <use xlink:href="#DejaVuSans-30"/>
       <use xlink:href="#DejaVuSans-2e" x="63.623047"/>
       <use xlink:href="#DejaVuSans-32" x="95.410156"/>
      </g>
     </g>
    </g>
    <g id="xtick_3">
     <g id="line2d_5">
      <path d="M 174.331281 273.312 
L 174.331281 7.2 
" clip-path="url(#p90106e36bc)" style="fill: none; stroke-dasharray: 0.8,1.32; stroke-dashoffset: 0; stroke: #b0b0b0; stroke-width: 0.8"/>
     </g>
     <g id="line2d_6">
      <g>
       <use xlink:href="#mc59afd5d1d" x="174.331281" y="273.312" style="stroke: #000000; stroke-width: 0.8"/>
      </g>
     </g>
     <g id="text_3">
      <!-- 0.4 -->
      <g transform="translate(166.379718 287.910437) scale(0.1 -0.1)">
       <defs>
        <path id="DejaVuSans-34" d="M 2419 4116 
L 825 1625 
L 2419 1625 
L 2419 4116 
z
M 2253 4666 
L 3047 4666 
L 3047 1625 
L 3713 1625 
L 3713 1100 
L 3047 1100 
L 3047 0 
L 2419 0 
L 2419 1100 
L 313 1100 
L 313 1709 
L 2253 4666 
z
" transform="scale(0.015625)"/>
       </defs>
       <use xlink:href="#DejaVuSans-30"/>
       <use xlink:href="#DejaVuSans-2e" x="63.623047"/>
       <use xlink:href="#DejaVuSans-34" x="95.410156"/>
      </g>
     </g>
    </g>
    <g id="xtick_4">
     <g id="line2d_7">
      <path d="M 239.918058 273.312 
L 239.918058 7.2 
" clip-path="url(#p90106e36bc)" style="fill: none; stroke-dasharray: 0.8,1.32; stroke-dashoffset: 0; stroke: #b0b0b0; stroke-width: 0.8"/>
     </g>
     <g id="line2d_8">
      <g>
       <use xlink:href="#mc59afd5d1d" x="239.918058" y="273.312" style="stroke: #000000; stroke-width: 0.8"/>
      </g>
     </g>
     <g id="text_4">
      <!-- 0.6 -->
      <g transform="translate(231.966495 287.910437) scale(0.1 -0.1)">
       <defs>
        <path id="DejaVuSans-36" d="M 2113 2584 
Q 1688 2584 1439 2293 
Q 1191 2003 1191 1497 
Q 1191 994 1439 701 
Q 1688 409 2113 409 
Q 2538 409 2786 701 
Q 3034 994 3034 1497 
Q 3034 2003 2786 2293 
Q 2538 2584 2113 2584 
z
M 3366 4563 
L 3366 3988 
Q 3128 4100 2886 4159 
Q 2644 4219 2406 4219 
Q 1781 4219 1451 3797 
Q 1122 3375 1075 2522 
Q 1259 2794 1537 2939 
Q 1816 3084 2150 3084 
Q 2853 3084 3261 2657 
Q 3669 2231 3669 1497 
Q 3669 778 3244 343 
Q 2819 -91 2113 -91 
Q 1303 -91 875 529 
Q 447 1150 447 2328 
Q 447 3434 972 4092 
Q 1497 4750 2381 4750 
Q 2619 4750 2861 4703 
Q 3103 4656 3366 4563 
z
" transform="scale(0.015625)"/>
       </defs>
       <use xlink:href="#DejaVuSans-30"/>
       <use xlink:href="#DejaVuSans-2e" x="63.623047"/>
       <use xlink:href="#DejaVuSans-36" x="95.410156"/>
      </g>
     </g>
    </g>
    <g id="xtick_5">
     <g id="line2d_9">
      <path d="M 305.504835 273.312 
L 305.504835 7.2 
" clip-path="url(#p90106e36bc)" style="fill: none; stroke-dasharray: 0.8,1.32; stroke-dashoffset: 0; stroke: #b0b0b0; stroke-width: 0.8"/>
     </g>
     <g id="line2d_10">
      <g>
       <use xlink:href="#mc59afd5d1d" x="305.504835" y="273.312" style="stroke: #000000; stroke-width: 0.8"/>
      </g>
     </g>
     <g id="text_5">
      <!-- 0.8 -->
      <g transform="translate(297.553272 287.910437) scale(0.1 -0.1)">
       <defs>
        <path id="DejaVuSans-38" d="M 2034 2216 
Q 1584 2216 1326 1975 
Q 1069 1734 1069 1313 
Q 1069 891 1326 650 
Q 1584 409 2034 409 
Q 2484 409 2743 651 
Q 3003 894 3003 1313 
Q 3003 1734 2745 1975 
Q 2488 2216 2034 2216 
z
M 1403 2484 
Q 997 2584 770 2862 
Q 544 3141 544 3541 
Q 544 4100 942 4425 
Q 1341 4750 2034 4750 
Q 2731 4750 3128 4425 
Q 3525 4100 3525 3541 
Q 3525 3141 3298 2862 
Q 3072 2584 2669 2484 
Q 3125 2378 3379 2068 
Q 3634 1759 3634 1313 
Q 3634 634 3220 271 
Q 2806 -91 2034 -91 
Q 1263 -91 848 271 
Q 434 634 434 1313 
Q 434 1759 690 2068 
Q 947 2378 1403 2484 
z
M 1172 3481 
Q 1172 3119 1398 2916 
Q 1625 2713 2034 2713 
Q 2441 2713 2670 2916 
Q 2900 3119 2900 3481 
Q 2900 3844 2670 4047 
Q 2441 4250 2034 4250 
Q 1625 4250 1398 4047 
Q 1172 3844 1172 3481 
z
" transform="scale(0.015625)"/>
       </defs>
       <use xlink:href="#DejaVuSans-30"/>
       <use xlink:href="#DejaVuSans-2e" x="63.623047"/>
       <use xlink:href="#DejaVuSans-38" x="95.410156"/>
      </g>
     </g>
    </g>
    <g id="xtick_6">
     <g id="line2d_11">
      <path d="M 371.091612 273.312 
L 371.091612 7.2 
" clip-path="url(#p90106e36bc)" style="fill: none; stroke-dasharray: 0.8,1.32; stroke-dashoffset: 0; stroke: #b0b0b0; stroke-width: 0.8"/>
     </g>
     <g id="line2d_12">
      <g>
       <use xlink:href="#mc59afd5d1d" x="371.091612" y="273.312" style="stroke: #000000; stroke-width: 0.8"/>
      </g>
     </g>
     <g id="text_6">
      <!-- 1.0 -->
      <g transform="translate(363.140049 287.910437) scale(0.1 -0.1)">
       <defs>
        <path id="DejaVuSans-31" d="M 794 531 
L 1825 531 
L 1825 4091 
L 703 3866 
L 703 4441 
L 1819 4666 
L 2450 4666 
L 2450 531 
L 3481 531 
L 3481 0 
L 794 0 
L 794 531 
z
" transform="scale(0.015625)"/>
       </defs>
       <use xlink:href="#DejaVuSans-31"/>
       <use xlink:href="#DejaVuSans-2e" x="63.623047"/>
       <use xlink:href="#DejaVuSans-30" x="95.410156"/>
      </g>
     </g>
    </g>
   </g>
   <g id="matplotlib.axis_2">
    <g id="ytick_1">
     <g id="line2d_13">
      <path d="M 26.925 266.255751 
L 384.045 266.255751 
" clip-path="url(#p90106e36bc)" style="fill: none; stroke-dasharray: 0.8,1.32; stroke-dashoffset: 0; stroke: #b0b0b0; stroke-width: 0.8"/>
     </g>
     <g id="line2d_14">
      <defs>
       <path id="m9ec16a6ff5" d="M 0 0 
L -3.5 0 
" style="stroke: #000000; stroke-width: 0.8"/>
      </defs>
      <g>
       <use xlink:href="#m9ec16a6ff5" x="26.925" y="266.255751" style="stroke: #000000; stroke-width: 0.8"/>
      </g>
     </g>
     <g id="text_7">
      <!-- 0 -->
      <g transform="translate(13.5625 270.054969) scale(0.1 -0.1)">
       <use xlink:href="#DejaVuSans-30"/>
      </g>
     </g>
    </g>
    <g id="ytick_2">
     <g id="line2d_15">
      <path d="M 26.925 207.892904 
L 384.045 207.892904 
" clip-path="url(#p90106e36bc)" style="fill: none; stroke-dasharray: 0.8,1.32; stroke-dashoffset: 0; stroke: #b0b0b0; stroke-width: 0.8"/>
     </g>
     <g id="line2d_16">
      <g>
       <use xlink:href="#m9ec16a6ff5" x="26.925" y="207.892904" style="stroke: #000000; stroke-width: 0.8"/>
      </g>
     </g>
     <g id="text_8">
      <!-- 5 -->
      <g transform="translate(13.5625 211.692123) scale(0.1 -0.1)">
       <defs>
        <path id="DejaVuSans-35" d="M 691 4666 
L 3169 4666 
L 3169 4134 
L 1269 4134 
L 1269 2991 
Q 1406 3038 1543 3061 
Q 1681 3084 1819 3084 
Q 2600 3084 3056 2656 
Q 3513 2228 3513 1497 
Q 3513 744 3044 326 
Q 2575 -91 1722 -91 
Q 1428 -91 1123 -41 
Q 819 9 494 109 
L 494 744 
Q 775 591 1075 516 
Q 1375 441 1709 441 
Q 2250 441 2565 725 
Q 2881 1009 2881 1497 
Q 2881 1984 2565 2268 
Q 2250 2553 1709 2553 
Q 1456 2553 1204 2497 
Q 953 2441 691 2322 
L 691 4666 
z
" transform="scale(0.015625)"/>
       </defs>
       <use xlink:href="#DejaVuSans-35"/>
      </g>
     </g>
    </g>
    <g id="ytick_3">
     <g id="line2d_17">
      <path d="M 26.925 149.530057 
L 384.045 149.530057 
" clip-path="url(#p90106e36bc)" style="fill: none; stroke-dasharray: 0.8,1.32; stroke-dashoffset: 0; stroke: #b0b0b0; stroke-width: 0.8"/>
     </g>
     <g id="line2d_18">
      <g>
       <use xlink:href="#m9ec16a6ff5" x="26.925" y="149.530057" style="stroke: #000000; stroke-width: 0.8"/>
      </g>
     </g>
     <g id="text_9">
      <!-- 10 -->
      <g transform="translate(7.2 153.329276) scale(0.1 -0.1)">
       <use xlink:href="#DejaVuSans-31"/>
       <use xlink:href="#DejaVuSans-30" x="63.623047"/>
      </g>
     </g>
    </g>
    <g id="ytick_4">
     <g id="line2d_19">
      <path d="M 26.925 91.167211 
L 384.045 91.167211 
" clip-path="url(#p90106e36bc)" style="fill: none; stroke-dasharray: 0.8,1.32; stroke-dashoffset: 0; stroke: #b0b0b0; stroke-width: 0.8"/>
     </g>
     <g id="line2d_20">
      <g>
       <use xlink:href="#m9ec16a6ff5" x="26.925" y="91.167211" style="stroke: #000000; stroke-width: 0.8"/>
      </g>
     </g>
     <g id="text_10">
      <!-- 15 -->
      <g transform="translate(7.2 94.966429) scale(0.1 -0.1)">
       <use xlink:href="#DejaVuSans-31"/>
       <use xlink:href="#DejaVuSans-35" x="63.623047"/>
      </g>
     </g>
    </g>
    <g id="ytick_5">
     <g id="line2d_21">
      <path d="M 26.925 32.804364 
L 384.045 32.804364 
" clip-path="url(#p90106e36bc)" style="fill: none; stroke-dasharray: 0.8,1.32; stroke-dashoffset: 0; stroke: #b0b0b0; stroke-width: 0.8"/>
     </g>
     <g id="line2d_22">
      <g>
       <use xlink:href="#m9ec16a6ff5" x="26.925" y="32.804364" style="stroke: #000000; stroke-width: 0.8"/>
      </g>
     </g>
     <g id="text_11">
      <!-- 20 -->
      <g transform="translate(7.2 36.603583) scale(0.1 -0.1)">
       <use xlink:href="#DejaVuSans-32"/>
       <use xlink:href="#DejaVuSans-30" x="63.623047"/>
      </g>
     </g>
    </g>
   </g>
   <g id="line2d_23">
    <path d="M 43.157727 246.412383 
L 46.437066 246.470746 
L 49.716405 246.529109 
L 52.995744 246.587471 
L 56.275083 246.645834 
L 59.554421 246.704197 
L 62.83376 246.76256 
L 66.113099 246.820923 
L 69.392438 246.879286 
L 72.671777 246.937648 
L 75.951116 246.996011 
L 79.230455 247.054374 
L 82.509793 247.112737 
L 85.789132 247.1711 
L 89.068471 247.229463 
L 92.34781 247.287826 
L 95.627149 247.346188 
L 98.906488 247.404551 
L 102.185826 247.462914 
L 105.465165 247.521277 
L 108.744504 247.57964 
L 112.023843 247.638003 
L 115.303182 247.696365 
L 118.582521 247.754728 
L 121.86186 247.813091 
L 125.141198 247.871454 
L 128.420537 247.929817 
L 131.699876 247.98818 
L 134.979215 248.046543 
L 138.258554 248.104905 
L 141.537893 248.163268 
L 144.817231 248.221631 
L 148.09657 248.279994 
L 151.375909 248.338357 
L 154.655248 248.39672 
L 157.934587 248.455082 
L 161.213926 248.513445 
L 164.493264 248.571808 
L 167.772603 248.630171 
L 171.051942 248.688534 
L 174.331281 248.746897 
L 177.61062 248.80526 
L 180.889959 248.863622 
L 184.169298 248.921985 
L 187.448636 248.980348 
L 190.727975 249.038711 
L 194.007314 249.097074 
L 197.286653 249.155437 
L 200.565992 249.213799 
L 203.845331 249.272162 
L 207.124669 249.330525 
L 210.404008 249.388888 
L 213.683347 249.447251 
L 216.962686 249.505614 
L 220.242025 249.563977 
L 223.521364 249.622339 
L 226.800702 249.680702 
L 230.080041 249.739065 
L 233.35938 249.797428 
L 236.638719 249.855791 
L 239.918058 249.914154 
L 243.197397 249.972516 
L 246.476736 250.030879 
L 249.756074 250.089242 
L 253.035413 250.147605 
L 256.314752 250.205968 
L 259.594091 250.264331 
L 262.87343 250.322694 
L 266.152769 250.381056 
L 269.432107 250.439419 
L 272.711446 250.497782 
L 275.990785 250.556145 
L 279.270124 250.614508 
L 282.549463 250.672871 
L 285.828802 250.731233 
L 289.10814 250.789596 
L 292.387479 250.847959 
L 295.666818 250.906322 
L 298.946157 250.964685 
L 302.225496 251.023048 
L 305.504835 251.081411 
L 308.784174 251.139773 
L 312.063512 251.198136 
L 315.342851 251.256499 
L 318.62219 251.314862 
L 321.901529 251.373225 
L 325.180868 251.431588 
L 328.460207 251.48995 
L 331.739545 251.548313 
L 335.018884 251.606676 
L 338.298223 251.665039 
L 341.577562 251.723402 
L 344.856901 251.781765 
L 348.13624 251.840128 
L 351.415579 251.89849 
L 354.694917 251.956853 
L 357.974256 252.015216 
L 361.253595 252.073579 
L 364.532934 252.131942 
L 367.812273 252.190305 
" clip-path="url(#p90106e36bc)" style="fill: none; stroke: #ff0000; stroke-width: 2; stroke-linecap: square"/>
   </g>
   <g id="patch_3">
    <path d="M 26.925 273.312 
L 26.925 7.2 
" style="fill: none; stroke: #000000; stroke-width: 0.8; stroke-linejoin: miter; stroke-linecap: square"/>
   </g>
   <g id="patch_4">
    <path d="M 384.045 273.312 
L 384.045 7.2 
" style="fill: none; stroke: #000000; stroke-width: 0.8; stroke-linejoin: miter; stroke-linecap: square"/>
   </g>
   <g id="patch_5">
    <path d="M 26.925 273.312 
L 384.045 273.312 
" style="fill: none; stroke: #000000; stroke-width: 0.8; stroke-linejoin: miter; stroke-linecap: square"/>
   </g>
   <g id="patch_6">
    <path d="M 26.925 7.2 
L 384.045 7.2 
" style="fill: none; stroke: #000000; stroke-width: 0.8; stroke-linejoin: miter; stroke-linecap: square"/>
   </g>
   <g id="legend_1">
    <g id="patch_7">
     <path d="M 280.46375 44.55625 
L 377.045 44.55625 
Q 379.045 44.55625 379.045 42.55625 
L 379.045 14.2 
Q 379.045 12.2 377.045 12.2 
L 280.46375 12.2 
Q 278.46375 12.2 278.46375 14.2 
L 278.46375 42.55625 
Q 278.46375 44.55625 280.46375 44.55625 
z
" style="fill: #ffffff; opacity: 0.8; stroke: #cccccc; stroke-linejoin: miter"/>
    </g>
    <g id="line2d_24">
     <path d="M 282.46375 20.298437 
L 292.46375 20.298437 
L 302.46375 20.298437 
" style="fill: none; stroke: #ff0000; stroke-width: 2; stroke-linecap: square"/>
    </g>
    <g id="text_12">
     <!-- Ground truth -->
     <g transform="translate(310.46375 23.798437) scale(0.1 -0.1)">
      <defs>
       <path id="DejaVuSans-47" d="M 3809 666 
L 3809 1919 
L 2778 1919 
L 2778 2438 
L 4434 2438 
L 4434 434 
Q 4069 175 3628 42 
Q 3188 -91 2688 -91 
Q 1594 -91 976 548 
Q 359 1188 359 2328 
Q 359 3472 976 4111 
Q 1594 4750 2688 4750 
Q 3144 4750 3555 4637 
Q 3966 4525 4313 4306 
L 4313 3634 
Q 3963 3931 3569 4081 
Q 3175 4231 2741 4231 
Q 1884 4231 1454 3753 
Q 1025 3275 1025 2328 
Q 1025 1384 1454 906 
Q 1884 428 2741 428 
Q 3075 428 3337 486 
Q 3600 544 3809 666 
z
" transform="scale(0.015625)"/>
       <path id="DejaVuSans-72" d="M 2631 2963 
Q 2534 3019 2420 3045 
Q 2306 3072 2169 3072 
Q 1681 3072 1420 2755 
Q 1159 2438 1159 1844 
L 1159 0 
L 581 0 
L 581 3500 
L 1159 3500 
L 1159 2956 
Q 1341 3275 1631 3429 
Q 1922 3584 2338 3584 
Q 2397 3584 2469 3576 
Q 2541 3569 2628 3553 
L 2631 2963 
z
" transform="scale(0.015625)"/>
       <path id="DejaVuSans-6f" d="M 1959 3097 
Q 1497 3097 1228 2736 
Q 959 2375 959 1747 
Q 959 1119 1226 758 
Q 1494 397 1959 397 
Q 2419 397 2687 759 
Q 2956 1122 2956 1747 
Q 2956 2369 2687 2733 
Q 2419 3097 1959 3097 
z
M 1959 3584 
Q 2709 3584 3137 3096 
Q 3566 2609 3566 1747 
Q 3566 888 3137 398 
Q 2709 -91 1959 -91 
Q 1206 -91 779 398 
Q 353 888 353 1747 
Q 353 2609 779 3096 
Q 1206 3584 1959 3584 
z
" transform="scale(0.015625)"/>
       <path id="DejaVuSans-75" d="M 544 1381 
L 544 3500 
L 1119 3500 
L 1119 1403 
Q 1119 906 1312 657 
Q 1506 409 1894 409 
Q 2359 409 2629 706 
Q 2900 1003 2900 1516 
L 2900 3500 
L 3475 3500 
L 3475 0 
L 2900 0 
L 2900 538 
Q 2691 219 2414 64 
Q 2138 -91 1772 -91 
Q 1169 -91 856 284 
Q 544 659 544 1381 
z
M 1991 3584 
L 1991 3584 
z
" transform="scale(0.015625)"/>
       <path id="DejaVuSans-6e" d="M 3513 2113 
L 3513 0 
L 2938 0 
L 2938 2094 
Q 2938 2591 2744 2837 
Q 2550 3084 2163 3084 
Q 1697 3084 1428 2787 
Q 1159 2491 1159 1978 
L 1159 0 
L 581 0 
L 581 3500 
L 1159 3500 
L 1159 2956 
Q 1366 3272 1645 3428 
Q 1925 3584 2291 3584 
Q 2894 3584 3203 3211 
Q 3513 2838 3513 2113 
z
" transform="scale(0.015625)"/>
       <path id="DejaVuSans-64" d="M 2906 2969 
L 2906 4863 
L 3481 4863 
L 3481 0 
L 2906 0 
L 2906 525 
Q 2725 213 2448 61 
Q 2172 -91 1784 -91 
Q 1150 -91 751 415 
Q 353 922 353 1747 
Q 353 2572 751 3078 
Q 1150 3584 1784 3584 
Q 2172 3584 2448 3432 
Q 2725 3281 2906 2969 
z
M 947 1747 
Q 947 1113 1208 752 
Q 1469 391 1925 391 
Q 2381 391 2643 752 
Q 2906 1113 2906 1747 
Q 2906 2381 2643 2742 
Q 2381 3103 1925 3103 
Q 1469 3103 1208 2742 
Q 947 2381 947 1747 
z
" transform="scale(0.015625)"/>
       <path id="DejaVuSans-20" transform="scale(0.015625)"/>
       <path id="DejaVuSans-74" d="M 1172 4494 
L 1172 3500 
L 2356 3500 
L 2356 3053 
L 1172 3053 
L 1172 1153 
Q 1172 725 1289 603 
Q 1406 481 1766 481 
L 2356 481 
L 2356 0 
L 1766 0 
Q 1100 0 847 248 
Q 594 497 594 1153 
L 594 3053 
L 172 3053 
L 172 3500 
L 594 3500 
L 594 4494 
L 1172 4494 
z
" transform="scale(0.015625)"/>
       <path id="DejaVuSans-68" d="M 3513 2113 
L 3513 0 
L 2938 0 
L 2938 2094 
Q 2938 2591 2744 2837 
Q 2550 3084 2163 3084 
Q 1697 3084 1428 2787 
Q 1159 2491 1159 1978 
L 1159 0 
L 581 0 
L 581 4863 
L 1159 4863 
L 1159 2956 
Q 1366 3272 1645 3428 
Q 1925 3584 2291 3584 
Q 2894 3584 3203 3211 
Q 3513 2838 3513 2113 
z
" transform="scale(0.015625)"/>
      </defs>
      <use xlink:href="#DejaVuSans-47"/>
      <use xlink:href="#DejaVuSans-72" x="77.490234"/>
      <use xlink:href="#DejaVuSans-6f" x="116.353516"/>
      <use xlink:href="#DejaVuSans-75" x="177.535156"/>
      <use xlink:href="#DejaVuSans-6e" x="240.914062"/>
      <use xlink:href="#DejaVuSans-64" x="304.292969"/>
      <use xlink:href="#DejaVuSans-20" x="367.769531"/>
      <use xlink:href="#DejaVuSans-74" x="399.556641"/>
      <use xlink:href="#DejaVuSans-72" x="438.765625"/>
      <use xlink:href="#DejaVuSans-75" x="479.878906"/>
      <use xlink:href="#DejaVuSans-74" x="543.257812"/>
      <use xlink:href="#DejaVuSans-68" x="582.466797"/>
     </g>
    </g>
    <g id="PathCollection_2">
     <g>
      <use xlink:href="#mb5a0606b6b" x="292.46375" y="35.851562" style="fill: #0000ff; stroke: #0000ff"/>
     </g>
    </g>
    <g id="text_13">
     <!-- Data -->
     <g transform="translate(310.46375 38.476562) scale(0.1 -0.1)">
      <defs>
       <path id="DejaVuSans-44" d="M 1259 4147 
L 1259 519 
L 2022 519 
Q 2988 519 3436 956 
Q 3884 1394 3884 2338 
Q 3884 3275 3436 3711 
Q 2988 4147 2022 4147 
L 1259 4147 
z
M 628 4666 
L 1925 4666 
Q 3281 4666 3915 4102 
Q 4550 3538 4550 2338 
Q 4550 1131 3912 565 
Q 3275 0 1925 0 
L 628 0 
L 628 4666 
z
" transform="scale(0.015625)"/>
       <path id="DejaVuSans-61" d="M 2194 1759 
Q 1497 1759 1228 1600 
Q 959 1441 959 1056 
Q 959 750 1161 570 
Q 1363 391 1709 391 
Q 2188 391 2477 730 
Q 2766 1069 2766 1631 
L 2766 1759 
L 2194 1759 
z
M 3341 1997 
L 3341 0 
L 2766 0 
L 2766 531 
Q 2569 213 2275 61 
Q 1981 -91 1556 -91 
Q 1019 -91 701 211 
Q 384 513 384 1019 
Q 384 1609 779 1909 
Q 1175 2209 1959 2209 
L 2766 2209 
L 2766 2266 
Q 2766 2663 2505 2880 
Q 2244 3097 1772 3097 
Q 1472 3097 1187 3025 
Q 903 2953 641 2809 
L 641 3341 
Q 956 3463 1253 3523 
Q 1550 3584 1831 3584 
Q 2591 3584 2966 3190 
Q 3341 2797 3341 1997 
z
" transform="scale(0.015625)"/>
      </defs>
      <use xlink:href="#DejaVuSans-44"/>
      <use xlink:href="#DejaVuSans-61" x="77.001953"/>
      <use xlink:href="#DejaVuSans-74" x="138.28125"/>
      <use xlink:href="#DejaVuSans-61" x="177.490234"/>
     </g>
    </g>
   </g>
  </g>
 </g>
 <defs>
  <clipPath id="p90106e36bc">
   <rect x="26.925" y="7.2" width="357.12" height="266.112"/>
  </clipPath>
 </defs>
</svg>