<?xml version="1.0" encoding="utf-8" standalone="no"?>
<!DOCTYPE svg PUBLIC "-//W3C//DTD SVG 1.1//EN"
  "http://www.w3.org/Graphics/SVG/1.1/DTD/svg11.dtd">
<svg xmlns:xlink="http://www.w3.org/1999/xlink" width="400.785625pt" height="297.190125pt" viewBox="0 0 400.785625 297.190125" xmlns="http://www.w3.org/2000/svg" version="1.1">
 <metadata>
  <rdf:RDF xmlns:dc="http://purl.org/dc/elements/1.1/" xmlns:cc="http://creativecommons.org/ns#" xmlns:rdf="http://www.w3.org/1999/02/22-rdf-syntax-ns#">
   <cc:Work>
    <dc:type rdf:resource="http://purl.org/dc/dcmitype/StillImage"/>
    <dc:date>2023-12-04T12:20:36.946297</dc:date>
    <dc:format>image/svg+xml</dc:format>
    <dc:creator>
     <cc:Agent>
      <dc:title>Matplotlib v3.8.2, https://matplotlib.org/</dc:title>
     </cc:Agent>
    </dc:creator>
   </cc:Work>
  </rdf:RDF>
 </metadata>
 <defs>
  <style type="text/css">*{stroke-linejoin: round; stroke-linecap: butt}</style>
 </defs>
 <g id="figure_1">
  <g id="patch_1">
   <path d="M 0 297.190125 
L 400.785625 297.190125 
L 400.785625 0 
L 0 0 
z
" style="fill: #ffffff"/>
  </g>
  <g id="axes_1">
   <g id="patch_2">
    <path d="M 36.465625 273.312 
L 393.585625 273.312 
L 393.585625 7.2 
L 36.465625 7.2 
z
" style="fill: #ffffff"/>
   </g>
   <g id="PathCollection_1">
    <defs>
     <path id="m77ecc3efac" d="M 0 1.581139 
C 0.419323 1.581139 0.821528 1.41454 1.118034 1.118034 
C 1.41454 0.821528 1.581139 0.419323 1.581139 0 
C 1.581139 -0.419323 1.41454 -0.821528 1.118034 -1.118034 
C 0.821528 -1.41454 0.419323 -1.581139 0 -1.581139 
C -0.419323 -1.581139 -0.821528 -1.41454 -1.118034 -1.118034 
C -1.41454 -0.821528 -1.581139 -0.419323 -1.581139 0 
C -1.581139 0.419323 -1.41454 0.821528 -1.118034 1.118034 
C -0.821528 1.41454 -0.419323 1.581139 0 1.581139 
z
" style="stroke: #0000ff"/>
    </defs>
    <g clip-path="url(#p19e673e915)">
     <use xlink:href="#m77ecc3efac" x="52.698352" y="253.880969" style="fill: #0000ff; stroke: #0000ff"/>
     <use xlink:href="#m77ecc3efac" x="55.977691" y="243.004933" style="fill: #0000ff; stroke: #0000ff"/>
     <use xlink:href="#m77ecc3efac" x="59.25703" y="237.100594" style="fill: #0000ff; stroke: #0000ff"/>
     <use xlink:href="#m77ecc3efac" x="62.536369" y="235.877301" style="fill: #0000ff; stroke: #0000ff"/>
     <use xlink:href="#m77ecc3efac" x="65.815708" y="241.329931" style="fill: #0000ff; stroke: #0000ff"/>
     <use xlink:href="#m77ecc3efac" x="69.095046" y="236.726623" style="fill: #0000ff; stroke: #0000ff"/>
     <use xlink:href="#m77ecc3efac" x="72.374385" y="236.84929" style="fill: #0000ff; stroke: #0000ff"/>
     <use xlink:href="#m77ecc3efac" x="75.653724" y="251.189309" style="fill: #0000ff; stroke: #0000ff"/>
     <use xlink:href="#m77ecc3efac" x="78.933063" y="235.151846" style="fill: #0000ff; stroke: #0000ff"/>
     <use xlink:href="#m77ecc3efac" x="82.212402" y="249.661146" style="fill: #0000ff; stroke: #0000ff"/>
     <use xlink:href="#m77ecc3efac" x="85.491741" y="244.298874" style="fill: #0000ff; stroke: #0000ff"/>
     <use xlink:href="#m77ecc3efac" x="88.77108" y="248.711988" style="fill: #0000ff; stroke: #0000ff"/>
     <use xlink:href="#m77ecc3efac" x="92.050418" y="224.261695" style="fill: #0000ff; stroke: #0000ff"/>
     <use xlink:href="#m77ecc3efac" x="95.329757" y="242.384586" style="fill: #0000ff; stroke: #0000ff"/>
     <use xlink:href="#m77ecc3efac" x="98.609096" y="237.611927" style="fill: #0000ff; stroke: #0000ff"/>
     <use xlink:href="#m77ecc3efac" x="101.888435" y="238.033616" style="fill: #0000ff; stroke: #0000ff"/>
     <use xlink:href="#m77ecc3efac" x="105.167774" y="233.459007" style="fill: #0000ff; stroke: #0000ff"/>
     <use xlink:href="#m77ecc3efac" x="108.447113" y="247.364161" style="fill: #0000ff; stroke: #0000ff"/>
     <use xlink:href="#m77ecc3efac" x="111.726451" y="249.595097" style="fill: #0000ff; stroke: #0000ff"/>
     <use xlink:href="#m77ecc3efac" x="115.00579" y="229.405673" style="fill: #0000ff; stroke: #0000ff"/>
     <use xlink:href="#m77ecc3efac" x="118.285129" y="239.194316" style="fill: #0000ff; stroke: #0000ff"/>
     <use xlink:href="#m77ecc3efac" x="121.564468" y="238.929941" style="fill: #0000ff; stroke: #0000ff"/>
     <use xlink:href="#m77ecc3efac" x="124.843807" y="233.899765" style="fill: #0000ff; stroke: #0000ff"/>
     <use xlink:href="#m77ecc3efac" x="128.123146" y="233.643607" style="fill: #0000ff; stroke: #0000ff"/>
     <use xlink:href="#m77ecc3efac" x="131.402485" y="242.150593" style="fill: #0000ff; stroke: #0000ff"/>
     <use xlink:href="#m77ecc3efac" x="134.681823" y="233.247566" style="fill: #0000ff; stroke: #0000ff"/>
     <use xlink:href="#m77ecc3efac" x="137.961162" y="243.350662" style="fill: #0000ff; stroke: #0000ff"/>
     <use xlink:href="#m77ecc3efac" x="141.240501" y="241.443337" style="fill: #0000ff; stroke: #0000ff"/>
     <use xlink:href="#m77ecc3efac" x="144.51984" y="253.513966" style="fill: #0000ff; stroke: #0000ff"/>
     <use xlink:href="#m77ecc3efac" x="147.799179" y="248.040703" style="fill: #0000ff; stroke: #0000ff"/>
     <use xlink:href="#m77ecc3efac" x="151.078518" y="244.078028" style="fill: #0000ff; stroke: #0000ff"/>
     <use xlink:href="#m77ecc3efac" x="154.357856" y="241.828055" style="fill: #0000ff; stroke: #0000ff"/>
     <use xlink:href="#m77ecc3efac" x="157.637195" y="236.645034" style="fill: #0000ff; stroke: #0000ff"/>
     <use xlink:href="#m77ecc3efac" x="160.916534" y="245.505423" style="fill: #0000ff; stroke: #0000ff"/>
     <use xlink:href="#m77ecc3efac" x="164.195873" y="251.023252" style="fill: #0000ff; stroke: #0000ff"/>
     <use xlink:href="#m77ecc3efac" x="167.475212" y="239.641144" style="fill: #0000ff; stroke: #0000ff"/>
     <use xlink:href="#m77ecc3efac" x="170.754551" y="250.516475" style="fill: #0000ff; stroke: #0000ff"/>
     <use xlink:href="#m77ecc3efac" x="174.033889" y="246.803573" style="fill: #0000ff; stroke: #0000ff"/>
     <use xlink:href="#m77ecc3efac" x="177.313228" y="246.343443" style="fill: #0000ff; stroke: #0000ff"/>
     <use xlink:href="#m77ecc3efac" x="180.592567" y="237.657931" style="fill: #0000ff; stroke: #0000ff"/>
     <use xlink:href="#m77ecc3efac" x="183.871906" y="237.005696" style="fill: #0000ff; stroke: #0000ff"/>
     <use xlink:href="#m77ecc3efac" x="187.151245" y="252.744306" style="fill: #0000ff; stroke: #0000ff"/>
     <use xlink:href="#m77ecc3efac" x="190.430584" y="248.99546" style="fill: #0000ff; stroke: #0000ff"/>
     <use xlink:href="#m77ecc3efac" x="193.709923" y="234.401483" style="fill: #0000ff; stroke: #0000ff"/>
     <use xlink:href="#m77ecc3efac" x="196.989261" y="243.107429" style="fill: #0000ff; stroke: #0000ff"/>
     <use xlink:href="#m77ecc3efac" x="200.2686" y="238.214146" style="fill: #0000ff; stroke: #0000ff"/>
     <use xlink:href="#m77ecc3efac" x="203.547939" y="248.399477" style="fill: #0000ff; stroke: #0000ff"/>
     <use xlink:href="#m77ecc3efac" x="206.827278" y="241.36138" style="fill: #0000ff; stroke: #0000ff"/>
     <use xlink:href="#m77ecc3efac" x="210.106617" y="234.030719" style="fill: #0000ff; stroke: #0000ff"/>
     <use xlink:href="#m77ecc3efac" x="213.385956" y="246.857226" style="fill: #0000ff; stroke: #0000ff"/>
     <use xlink:href="#m77ecc3efac" x="216.665294" y="233.816815" style="fill: #0000ff; stroke: #0000ff"/>
     <use xlink:href="#m77ecc3efac" x="219.944633" y="251.641062" style="fill: #0000ff; stroke: #0000ff"/>
     <use xlink:href="#m77ecc3efac" x="223.223972" y="255.588076" style="fill: #0000ff; stroke: #0000ff"/>
     <use xlink:href="#m77ecc3efac" x="226.503311" y="241.760197" style="fill: #0000ff; stroke: #0000ff"/>
     <use xlink:href="#m77ecc3efac" x="229.78265" y="252.560451" style="fill: #0000ff; stroke: #0000ff"/>
     <use xlink:href="#m77ecc3efac" x="233.061989" y="239.027569" style="fill: #0000ff; stroke: #0000ff"/>
     <use xlink:href="#m77ecc3efac" x="236.341327" y="230.507568" style="fill: #0000ff; stroke: #0000ff"/>
     <use xlink:href="#m77ecc3efac" x="239.620666" y="19.296" style="fill: #0000ff; stroke: #0000ff"/>
     <use xlink:href="#m77ecc3efac" x="242.900005" y="243.566233" style="fill: #0000ff; stroke: #0000ff"/>
     <use xlink:href="#m77ecc3efac" x="246.179344" y="242.423326" style="fill: #0000ff; stroke: #0000ff"/>
     <use xlink:href="#m77ecc3efac" x="249.458683" y="234.734928" style="fill: #0000ff; stroke: #0000ff"/>
     <use xlink:href="#m77ecc3efac" x="252.738022" y="242.299519" style="fill: #0000ff; stroke: #0000ff"/>
     <use xlink:href="#m77ecc3efac" x="256.017361" y="239.593629" style="fill: #0000ff; stroke: #0000ff"/>
     <use xlink:href="#m77ecc3efac" x="259.296699" y="239.612013" style="fill: #0000ff; stroke: #0000ff"/>
     <use xlink:href="#m77ecc3efac" x="262.576038" y="233.494087" style="fill: #0000ff; stroke: #0000ff"/>
     <use xlink:href="#m77ecc3efac" x="265.855377" y="238.622607" style="fill: #0000ff; stroke: #0000ff"/>
     <use xlink:href="#m77ecc3efac" x="269.134716" y="260.425947" style="fill: #0000ff; stroke: #0000ff"/>
     <use xlink:href="#m77ecc3efac" x="272.414055" y="246.354108" style="fill: #0000ff; stroke: #0000ff"/>
     <use xlink:href="#m77ecc3efac" x="275.693394" y="246.214793" style="fill: #0000ff; stroke: #0000ff"/>
     <use xlink:href="#m77ecc3efac" x="278.972732" y="249.737363" style="fill: #0000ff; stroke: #0000ff"/>
     <use xlink:href="#m77ecc3efac" x="282.252071" y="246.062544" style="fill: #0000ff; stroke: #0000ff"/>
     <use xlink:href="#m77ecc3efac" x="285.53141" y="256.362429" style="fill: #0000ff; stroke: #0000ff"/>
     <use xlink:href="#m77ecc3efac" x="288.810749" y="245.200131" style="fill: #0000ff; stroke: #0000ff"/>
     <use xlink:href="#m77ecc3efac" x="292.090088" y="243.839241" style="fill: #0000ff; stroke: #0000ff"/>
     <use xlink:href="#m77ecc3efac" x="295.369427" y="238.661641" style="fill: #0000ff; stroke: #0000ff"/>
     <use xlink:href="#m77ecc3efac" x="298.648765" y="250.182304" style="fill: #0000ff; stroke: #0000ff"/>
     <use xlink:href="#m77ecc3efac" x="301.928104" y="243.669548" style="fill: #0000ff; stroke: #0000ff"/>
     <use xlink:href="#m77ecc3efac" x="305.207443" y="244.022145" style="fill: #0000ff; stroke: #0000ff"/>
     <use xlink:href="#m77ecc3efac" x="308.486782" y="261.216" style="fill: #0000ff; stroke: #0000ff"/>
     <use xlink:href="#m77ecc3efac" x="311.766121" y="246.542375" style="fill: #0000ff; stroke: #0000ff"/>
     <use xlink:href="#m77ecc3efac" x="315.04546" y="247.112685" style="fill: #0000ff; stroke: #0000ff"/>
     <use xlink:href="#m77ecc3efac" x="318.324799" y="256.903069" style="fill: #0000ff; stroke: #0000ff"/>
     <use xlink:href="#m77ecc3efac" x="321.604137" y="246.192774" style="fill: #0000ff; stroke: #0000ff"/>
     <use xlink:href="#m77ecc3efac" x="324.883476" y="244.585609" style="fill: #0000ff; stroke: #0000ff"/>
     <use xlink:href="#m77ecc3efac" x="328.162815" y="245.101578" style="fill: #0000ff; stroke: #0000ff"/>
     <use xlink:href="#m77ecc3efac" x="331.442154" y="245.789465" style="fill: #0000ff; stroke: #0000ff"/>
     <use xlink:href="#m77ecc3efac" x="334.721493" y="252.753665" style="fill: #0000ff; stroke: #0000ff"/>
     <use xlink:href="#m77ecc3efac" x="338.000832" y="248.972634" style="fill: #0000ff; stroke: #0000ff"/>
     <use xlink:href="#m77ecc3efac" x="341.28017" y="246.262362" style="fill: #0000ff; stroke: #0000ff"/>
     <use xlink:href="#m77ecc3efac" x="344.559509" y="245.840006" style="fill: #0000ff; stroke: #0000ff"/>
     <use xlink:href="#m77ecc3efac" x="347.838848" y="246.099793" style="fill: #0000ff; stroke: #0000ff"/>
     <use xlink:href="#m77ecc3efac" x="351.118187" y="245.930026" style="fill: #0000ff; stroke: #0000ff"/>
     <use xlink:href="#m77ecc3efac" x="354.397526" y="237.152125" style="fill: #0000ff; stroke: #0000ff"/>
     <use xlink:href="#m77ecc3efac" x="357.676865" y="243.482221" style="fill: #0000ff; stroke: #0000ff"/>
     <use xlink:href="#m77ecc3efac" x="360.956204" y="241.589587" style="fill: #0000ff; stroke: #0000ff"/>
     <use xlink:href="#m77ecc3efac" x="364.235542" y="241.78289" style="fill: #0000ff; stroke: #0000ff"/>
     <use xlink:href="#m77ecc3efac" x="367.514881" y="242.525061" style="fill: #0000ff; stroke: #0000ff"/>
     <use xlink:href="#m77ecc3efac" x="370.79422" y="246.021738" style="fill: #0000ff; stroke: #0000ff"/>
     <use xlink:href="#m77ecc3efac" x="374.073559" y="243.708772" style="fill: #0000ff; stroke: #0000ff"/>
     <use xlink:href="#m77ecc3efac" x="377.352898" y="246.390439" style="fill: #0000ff; stroke: #0000ff"/>
    </g>
   </g>
   <g id="matplotlib.axis_1">
    <g id="xtick_1">
     <g id="line2d_1">
      <path d="M 52.698352 273.312 
L 52.698352 7.2 
" clip-path="url(#p19e673e915)" style="fill: none; stroke-dasharray: 0.8,1.32; stroke-dashoffset: 0; stroke: #b0b0b0; stroke-width: 0.8"/>
     </g>
     <g id="line2d_2">
      <defs>
       <path id="mca959c0690" d="M 0 0 
L 0 3.5 
" style="stroke: #000000; stroke-width: 0.8"/>
      </defs>
      <g>
       <use xlink:href="#mca959c0690" x="52.698352" y="273.312" style="stroke: #000000; stroke-width: 0.8"/>
      </g>
     </g>
     <g id="text_1">
      <!-- 0.0 -->
      <g transform="translate(44.74679 287.910437) scale(0.1 -0.1)">
       <defs>
        <path id="DejaVuSans-30" d="M 2034 4250 
Q 1547 4250 1301 3770 
Q 1056 3291 1056 2328 
Q 1056 1369 1301 889 
Q 1547 409 2034 409 
Q 2525 409 2770 889 
Q 3016 1369 3016 2328 
Q 3016 3291 2770 3770 
Q 2525 4250 2034 4250 
z
M 2034 4750 
Q 2819 4750 3233 4129 
Q 3647 3509 3647 2328 
Q 3647 1150 3233 529 
Q 2819 -91 2034 -91 
Q 1250 -91 836 529 
Q 422 1150 422 2328 
Q 422 3509 836 4129 
Q 1250 4750 2034 4750 
z
" transform="scale(0.015625)"/>
        <path id="DejaVuSans-2e" d="M 684 794 
L 1344 794 
L 1344 0 
L 684 0 
L 684 794 
z
" transform="scale(0.015625)"/>
       </defs>
       <use xlink:href="#DejaVuSans-30"/>
       <use xlink:href="#DejaVuSans-2e" x="63.623047"/>
       <use xlink:href="#DejaVuSans-30" x="95.410156"/>
      </g>
     </g>
    </g>
    <g id="xtick_2">
     <g id="line2d_3">
      <path d="M 118.285129 273.312 
L 118.285129 7.2 
" clip-path="url(#p19e673e915)" style="fill: none; stroke-dasharray: 0.8,1.32; stroke-dashoffset: 0; stroke: #b0b0b0; stroke-width: 0.8"/>
     </g>
     <g id="line2d_4">
      <g>
       <use xlink:href="#mca959c0690" x="118.285129" y="273.312" style="stroke: #000000; stroke-width: 0.8"/>
      </g>
     </g>
     <g id="text_2">
      <!-- 0.2 -->
      <g transform="translate(110.333567 287.910437) scale(0.1 -0.1)">
       <defs>
        <path id="DejaVuSans-32" d="M 1228 531 
L 3431 531 
L 3431 0 
L 469 0 
L 469 531 
Q 828 903 1448 1529 
Q 2069 2156 2228 2338 
Q 2531 2678 2651 2914 
Q 2772 3150 2772 3378 
Q 2772 3750 2511 3984 
Q 2250 4219 1831 4219 
Q 1534 4219 1204 4116 
Q 875 4013 500 3803 
L 500 4441 
Q 881 4594 1212 4672 
Q 1544 4750 1819 4750 
Q 2544 4750 2975 4387 
Q 3406 4025 3406 3419 
Q 3406 3131 3298 2873 
Q 3191 2616 2906 2266 
Q 2828 2175 2409 1742 
Q 1991 1309 1228 531 
z
" transform="scale(0.015625)"/>
       </defs>
       <use xlink:href="#DejaVuSans-30"/>
       <use xlink:href="#DejaVuSans-2e" x="63.623047"/>
       <use xlink:href="#DejaVuSans-32" x="95.410156"/>
      </g>
     </g>
    </g>
    <g id="xtick_3">
     <g id="line2d_5">
      <path d="M 183.871906 273.312 
L 183.871906 7.2 
" clip-path="url(#p19e673e915)" style="fill: none; stroke-dasharray: 0.8,1.32; stroke-dashoffset: 0; stroke: #b0b0b0; stroke-width: 0.8"/>
     </g>
     <g id="line2d_6">
      <g>
       <use xlink:href="#mca959c0690" x="183.871906" y="273.312" style="stroke: #000000; stroke-width: 0.8"/>
      </g>
     </g>
     <g id="text_3">
      <!-- 0.4 -->
      <g transform="translate(175.920343 287.910437) scale(0.1 -0.1)">
       <defs>
        <path id="DejaVuSans-34" d="M 2419 4116 
L 825 1625 
L 2419 1625 
L 2419 4116 
z
M 2253 4666 
L 3047 4666 
L 3047 1625 
L 3713 1625 
L 3713 1100 
L 3047 1100 
L 3047 0 
L 2419 0 
L 2419 1100 
L 313 1100 
L 313 1709 
L 2253 4666 
z
" transform="scale(0.015625)"/>
       </defs>
       <use xlink:href="#DejaVuSans-30"/>
       <use xlink:href="#DejaVuSans-2e" x="63.623047"/>
       <use xlink:href="#DejaVuSans-34" x="95.410156"/>
      </g>
     </g>
    </g>
    <g id="xtick_4">
     <g id="line2d_7">
      <path d="M 249.458683 273.312 
L 249.458683 7.2 
" clip-path="url(#p19e673e915)" style="fill: none; stroke-dasharray: 0.8,1.32; stroke-dashoffset: 0; stroke: #b0b0b0; stroke-width: 0.8"/>
     </g>
     <g id="line2d_8">
      <g>
       <use xlink:href="#mca959c0690" x="249.458683" y="273.312" style="stroke: #000000; stroke-width: 0.8"/>
      </g>
     </g>
     <g id="text_4">
      <!-- 0.6 -->
      <g transform="translate(241.50712 287.910437) scale(0.1 -0.1)">
       <defs>
        <path id="DejaVuSans-36" d="M 2113 2584 
Q 1688 2584 1439 2293 
Q 1191 2003 1191 1497 
Q 1191 994 1439 701 
Q 1688 409 2113 409 
Q 2538 409 2786 701 
Q 3034 994 3034 1497 
Q 3034 2003 2786 2293 
Q 2538 2584 2113 2584 
z
M 3366 4563 
L 3366 3988 
Q 3128 4100 2886 4159 
Q 2644 4219 2406 4219 
Q 1781 4219 1451 3797 
Q 1122 3375 1075 2522 
Q 1259 2794 1537 2939 
Q 1816 3084 2150 3084 
Q 2853 3084 3261 2657 
Q 3669 2231 3669 1497 
Q 3669 778 3244 343 
Q 2819 -91 2113 -91 
Q 1303 -91 875 529 
Q 447 1150 447 2328 
Q 447 3434 972 4092 
Q 1497 4750 2381 4750 
Q 2619 4750 2861 4703 
Q 3103 4656 3366 4563 
z
" transform="scale(0.015625)"/>
       </defs>
       <use xlink:href="#DejaVuSans-30"/>
       <use xlink:href="#DejaVuSans-2e" x="63.623047"/>
       <use xlink:href="#DejaVuSans-36" x="95.410156"/>
      </g>
     </g>
    </g>
    <g id="xtick_5">
     <g id="line2d_9">
      <path d="M 315.04546 273.312 
L 315.04546 7.2 
" clip-path="url(#p19e673e915)" style="fill: none; stroke-dasharray: 0.8,1.32; stroke-dashoffset: 0; stroke: #b0b0b0; stroke-width: 0.8"/>
     </g>
     <g id="line2d_10">
      <g>
       <use xlink:href="#mca959c0690" x="315.04546" y="273.312" style="stroke: #000000; stroke-width: 0.8"/>
      </g>
     </g>
     <g id="text_5">
      <!-- 0.8 -->
      <g transform="translate(307.093897 287.910437) scale(0.1 -0.1)">
       <defs>
        <path id="DejaVuSans-38" d="M 2034 2216 
Q 1584 2216 1326 1975 
Q 1069 1734 1069 1313 
Q 1069 891 1326 650 
Q 1584 409 2034 409 
Q 2484 409 2743 651 
Q 3003 894 3003 1313 
Q 3003 1734 2745 1975 
Q 2488 2216 2034 2216 
z
M 1403 2484 
Q 997 2584 770 2862 
Q 544 3141 544 3541 
Q 544 4100 942 4425 
Q 1341 4750 2034 4750 
Q 2731 4750 3128 4425 
Q 3525 4100 3525 3541 
Q 3525 3141 3298 2862 
Q 3072 2584 2669 2484 
Q 3125 2378 3379 2068 
Q 3634 1759 3634 1313 
Q 3634 634 3220 271 
Q 2806 -91 2034 -91 
Q 1263 -91 848 271 
Q 434 634 434 1313 
Q 434 1759 690 2068 
Q 947 2378 1403 2484 
z
M 1172 3481 
Q 1172 3119 1398 2916 
Q 1625 2713 2034 2713 
Q 2441 2713 2670 2916 
Q 2900 3119 2900 3481 
Q 2900 3844 2670 4047 
Q 2441 4250 2034 4250 
Q 1625 4250 1398 4047 
Q 1172 3844 1172 3481 
z
" transform="scale(0.015625)"/>
       </defs>
       <use xlink:href="#DejaVuSans-30"/>
       <use xlink:href="#DejaVuSans-2e" x="63.623047"/>
       <use xlink:href="#DejaVuSans-38" x="95.410156"/>
      </g>
     </g>
    </g>
    <g id="xtick_6">
     <g id="line2d_11">
      <path d="M 380.632237 273.312 
L 380.632237 7.2 
" clip-path="url(#p19e673e915)" style="fill: none; stroke-dasharray: 0.8,1.32; stroke-dashoffset: 0; stroke: #b0b0b0; stroke-width: 0.8"/>
     </g>
     <g id="line2d_12">
      <g>
       <use xlink:href="#mca959c0690" x="380.632237" y="273.312" style="stroke: #000000; stroke-width: 0.8"/>
      </g>
     </g>
     <g id="text_6">
      <!-- 1.0 -->
      <g transform="translate(372.680674 287.910437) scale(0.1 -0.1)">
       <defs>
        <path id="DejaVuSans-31" d="M 794 531 
L 1825 531 
L 1825 4091 
L 703 3866 
L 703 4441 
L 1819 4666 
L 2450 4666 
L 2450 531 
L 3481 531 
L 3481 0 
L 794 0 
L 794 531 
z
" transform="scale(0.015625)"/>
       </defs>
       <use xlink:href="#DejaVuSans-31"/>
       <use xlink:href="#DejaVuSans-2e" x="63.623047"/>
       <use xlink:href="#DejaVuSans-30" x="95.410156"/>
      </g>
     </g>
    </g>
   </g>
   <g id="matplotlib.axis_2">
    <g id="ytick_1">
     <g id="line2d_13">
      <path d="M 36.465625 262.368132 
L 393.585625 262.368132 
" clip-path="url(#p19e673e915)" style="fill: none; stroke-dasharray: 0.8,1.32; stroke-dashoffset: 0; stroke: #b0b0b0; stroke-width: 0.8"/>
     </g>
     <g id="line2d_14">
      <defs>
       <path id="m732cc0a773" d="M 0 0 
L -3.5 0 
" style="stroke: #000000; stroke-width: 0.8"/>
      </defs>
      <g>
       <use xlink:href="#m732cc0a773" x="36.465625" y="262.368132" style="stroke: #000000; stroke-width: 0.8"/>
      </g>
     </g>
     <g id="text_7">
      <!-- 0.0 -->
      <g transform="translate(13.5625 266.167351) scale(0.1 -0.1)">
       <use xlink:href="#DejaVuSans-30"/>
       <use xlink:href="#DejaVuSans-2e" x="63.623047"/>
       <use xlink:href="#DejaVuSans-30" x="95.410156"/>
      </g>
     </g>
    </g>
    <g id="ytick_2">
     <g id="line2d_15">
      <path d="M 36.465625 232.727421 
L 393.585625 232.727421 
" clip-path="url(#p19e673e915)" style="fill: none; stroke-dasharray: 0.8,1.32; stroke-dashoffset: 0; stroke: #b0b0b0; stroke-width: 0.8"/>
     </g>
     <g id="line2d_16">
      <g>
       <use xlink:href="#m732cc0a773" x="36.465625" y="232.727421" style="stroke: #000000; stroke-width: 0.8"/>
      </g>
     </g>
     <g id="text_8">
      <!-- 2.5 -->
      <g transform="translate(13.5625 236.52664) scale(0.1 -0.1)">
       <defs>
        <path id="DejaVuSans-35" d="M 691 4666 
L 3169 4666 
L 3169 4134 
L 1269 4134 
L 1269 2991 
Q 1406 3038 1543 3061 
Q 1681 3084 1819 3084 
Q 2600 3084 3056 2656 
Q 3513 2228 3513 1497 
Q 3513 744 3044 326 
Q 2575 -91 1722 -91 
Q 1428 -91 1123 -41 
Q 819 9 494 109 
L 494 744 
Q 775 591 1075 516 
Q 1375 441 1709 441 
Q 2250 441 2565 725 
Q 2881 1009 2881 1497 
Q 2881 1984 2565 2268 
Q 2250 2553 1709 2553 
Q 1456 2553 1204 2497 
Q 953 2441 691 2322 
L 691 4666 
z
" transform="scale(0.015625)"/>
       </defs>
       <use xlink:href="#DejaVuSans-32"/>
       <use xlink:href="#DejaVuSans-2e" x="63.623047"/>
       <use xlink:href="#DejaVuSans-35" x="95.410156"/>
      </g>
     </g>
    </g>
    <g id="ytick_3">
     <g id="line2d_17">
      <path d="M 36.465625 203.08671 
L 393.585625 203.08671 
" clip-path="url(#p19e673e915)" style="fill: none; stroke-dasharray: 0.8,1.32; stroke-dashoffset: 0; stroke: #b0b0b0; stroke-width: 0.8"/>
     </g>
     <g id="line2d_18">
      <g>
       <use xlink:href="#m732cc0a773" x="36.465625" y="203.08671" style="stroke: #000000; stroke-width: 0.8"/>
      </g>
     </g>
     <g id="text_9">
      <!-- 5.0 -->
      <g transform="translate(13.5625 206.885929) scale(0.1 -0.1)">
       <use xlink:href="#DejaVuSans-35"/>
       <use xlink:href="#DejaVuSans-2e" x="63.623047"/>
       <use xlink:href="#DejaVuSans-30" x="95.410156"/>
      </g>
     </g>
    </g>
    <g id="ytick_4">
     <g id="line2d_19">
      <path d="M 36.465625 173.445999 
L 393.585625 173.445999 
" clip-path="url(#p19e673e915)" style="fill: none; stroke-dasharray: 0.8,1.32; stroke-dashoffset: 0; stroke: #b0b0b0; stroke-width: 0.8"/>
     </g>
     <g id="line2d_20">
      <g>
       <use xlink:href="#m732cc0a773" x="36.465625" y="173.445999" style="stroke: #000000; stroke-width: 0.8"/>
      </g>
     </g>
     <g id="text_10">
      <!-- 7.5 -->
      <g transform="translate(13.5625 177.245218) scale(0.1 -0.1)">
       <defs>
        <path id="DejaVuSans-37" d="M 525 4666 
L 3525 4666 
L 3525 4397 
L 1831 0 
L 1172 0 
L 2766 4134 
L 525 4134 
L 525 4666 
z
" transform="scale(0.015625)"/>
       </defs>
       <use xlink:href="#DejaVuSans-37"/>
       <use xlink:href="#DejaVuSans-2e" x="63.623047"/>
       <use xlink:href="#DejaVuSans-35" x="95.410156"/>
      </g>
     </g>
    </g>
    <g id="ytick_5">
     <g id="line2d_21">
      <path d="M 36.465625 143.805288 
L 393.585625 143.805288 
" clip-path="url(#p19e673e915)" style="fill: none; stroke-dasharray: 0.8,1.32; stroke-dashoffset: 0; stroke: #b0b0b0; stroke-width: 0.8"/>
     </g>
     <g id="line2d_22">
      <g>
       <use xlink:href="#m732cc0a773" x="36.465625" y="143.805288" style="stroke: #000000; stroke-width: 0.8"/>
      </g>
     </g>
     <g id="text_11">
      <!-- 10.0 -->
      <g transform="translate(7.2 147.604507) scale(0.1 -0.1)">
       <use xlink:href="#DejaVuSans-31"/>
       <use xlink:href="#DejaVuSans-30" x="63.623047"/>
       <use xlink:href="#DejaVuSans-2e" x="127.246094"/>
       <use xlink:href="#DejaVuSans-30" x="159.033203"/>
      </g>
     </g>
    </g>
    <g id="ytick_6">
     <g id="line2d_23">
      <path d="M 36.465625 114.164577 
L 393.585625 114.164577 
" clip-path="url(#p19e673e915)" style="fill: none; stroke-dasharray: 0.8,1.32; stroke-dashoffset: 0; stroke: #b0b0b0; stroke-width: 0.8"/>
     </g>
     <g id="line2d_24">
      <g>
       <use xlink:href="#m732cc0a773" x="36.465625" y="114.164577" style="stroke: #000000; stroke-width: 0.8"/>
      </g>
     </g>
     <g id="text_12">
      <!-- 12.5 -->
      <g transform="translate(7.2 117.963796) scale(0.1 -0.1)">
       <use xlink:href="#DejaVuSans-31"/>
       <use xlink:href="#DejaVuSans-32" x="63.623047"/>
       <use xlink:href="#DejaVuSans-2e" x="127.246094"/>
       <use xlink:href="#DejaVuSans-35" x="159.033203"/>
      </g>
     </g>
    </g>
    <g id="ytick_7">
     <g id="line2d_25">
      <path d="M 36.465625 84.523866 
L 393.585625 84.523866 
" clip-path="url(#p19e673e915)" style="fill: none; stroke-dasharray: 0.8,1.32; stroke-dashoffset: 0; stroke: #b0b0b0; stroke-width: 0.8"/>
     </g>
     <g id="line2d_26">
      <g>
       <use xlink:href="#m732cc0a773" x="36.465625" y="84.523866" style="stroke: #000000; stroke-width: 0.8"/>
      </g>
     </g>
     <g id="text_13">
      <!-- 15.0 -->
      <g transform="translate(7.2 88.323084) scale(0.1 -0.1)">
       <use xlink:href="#DejaVuSans-31"/>
       <use xlink:href="#DejaVuSans-35" x="63.623047"/>
       <use xlink:href="#DejaVuSans-2e" x="127.246094"/>
       <use xlink:href="#DejaVuSans-30" x="159.033203"/>
      </g>
     </g>
    </g>
    <g id="ytick_8">
     <g id="line2d_27">
      <path d="M 36.465625 54.883155 
L 393.585625 54.883155 
" clip-path="url(#p19e673e915)" style="fill: none; stroke-dasharray: 0.8,1.32; stroke-dashoffset: 0; stroke: #b0b0b0; stroke-width: 0.8"/>
     </g>
     <g id="line2d_28">
      <g>
       <use xlink:href="#m732cc0a773" x="36.465625" y="54.883155" style="stroke: #000000; stroke-width: 0.8"/>
      </g>
     </g>
     <g id="text_14">
      <!-- 17.5 -->
      <g transform="translate(7.2 58.682373) scale(0.1 -0.1)">
       <use xlink:href="#DejaVuSans-31"/>
       <use xlink:href="#DejaVuSans-37" x="63.623047"/>
       <use xlink:href="#DejaVuSans-2e" x="127.246094"/>
       <use xlink:href="#DejaVuSans-35" x="159.033203"/>
      </g>
     </g>
    </g>
    <g id="ytick_9">
     <g id="line2d_29">
      <path d="M 36.465625 25.242444 
L 393.585625 25.242444 
" clip-path="url(#p19e673e915)" style="fill: none; stroke-dasharray: 0.8,1.32; stroke-dashoffset: 0; stroke: #b0b0b0; stroke-width: 0.8"/>
     </g>
     <g id="line2d_30">
      <g>
       <use xlink:href="#m732cc0a773" x="36.465625" y="25.242444" style="stroke: #000000; stroke-width: 0.8"/>
      </g>
     </g>
     <g id="text_15">
      <!-- 20.0 -->
      <g transform="translate(7.2 29.041662) scale(0.1 -0.1)">
       <use xlink:href="#DejaVuSans-32"/>
       <use xlink:href="#DejaVuSans-30" x="63.623047"/>
       <use xlink:href="#DejaVuSans-2e" x="127.246094"/>
       <use xlink:href="#DejaVuSans-30" x="159.033203"/>
      </g>
     </g>
    </g>
   </g>
   <g id="line2d_31">
    <path d="M 52.698352 242.212449 
L 55.977691 242.27173 
L 59.25703 242.331011 
L 62.536369 242.390293 
L 65.815708 242.449574 
L 69.095046 242.508856 
L 72.374385 242.568137 
L 75.653724 242.627419 
L 78.933063 242.6867 
L 82.212402 242.745981 
L 85.491741 242.805263 
L 88.77108 242.864544 
L 92.050418 242.923826 
L 95.329757 242.983107 
L 98.609096 243.042389 
L 101.888435 243.10167 
L 105.167774 243.160951 
L 108.447113 243.220233 
L 111.726451 243.279514 
L 115.00579 243.338796 
L 118.285129 243.398077 
L 121.564468 243.457359 
L 124.843807 243.51664 
L 128.123146 243.575921 
L 131.402485 243.635203 
L 134.681823 243.694484 
L 137.961162 243.753766 
L 141.240501 243.813047 
L 144.51984 243.872328 
L 147.799179 243.93161 
L 151.078518 243.990891 
L 154.357856 244.050173 
L 157.637195 244.109454 
L 160.916534 244.168736 
L 164.195873 244.228017 
L 167.475212 244.287298 
L 170.754551 244.34658 
L 174.033889 244.405861 
L 177.313228 244.465143 
L 180.592567 244.524424 
L 183.871906 244.583706 
L 187.151245 244.642987 
L 190.430584 244.702268 
L 193.709923 244.76155 
L 196.989261 244.820831 
L 200.2686 244.880113 
L 203.547939 244.939394 
L 206.827278 244.998675 
L 210.106617 245.057957 
L 213.385956 245.117238 
L 216.665294 245.17652 
L 219.944633 245.235801 
L 223.223972 245.295083 
L 226.503311 245.354364 
L 229.78265 245.413645 
L 233.061989 245.472927 
L 236.341327 245.532208 
L 239.620666 245.59149 
L 242.900005 245.650771 
L 246.179344 245.710053 
L 249.458683 245.769334 
L 252.738022 245.828615 
L 256.017361 245.887897 
L 259.296699 245.947178 
L 262.576038 246.00646 
L 265.855377 246.065741 
L 269.134716 246.125023 
L 272.414055 246.184304 
L 275.693394 246.243585 
L 278.972732 246.302867 
L 282.252071 246.362148 
L 285.53141 246.42143 
L 288.810749 246.480711 
L 292.090088 246.539992 
L 295.369427 246.599274 
L 298.648765 246.658555 
L 301.928104 246.717837 
L 305.207443 246.777118 
L 308.486782 246.8364 
L 311.766121 246.895681 
L 315.04546 246.954962 
L 318.324799 247.014244 
L 321.604137 247.073525 
L 324.883476 247.132807 
L 328.162815 247.192088 
L 331.442154 247.25137 
L 334.721493 247.310651 
L 338.000832 247.369932 
L 341.28017 247.429214 
L 344.559509 247.488495 
L 347.838848 247.547777 
L 351.118187 247.607058 
L 354.397526 247.666339 
L 357.676865 247.725621 
L 360.956204 247.784902 
L 364.235542 247.844184 
L 367.514881 247.903465 
L 370.79422 247.962747 
L 374.073559 248.022028 
L 377.352898 248.081309 
" clip-path="url(#p19e673e915)" style="fill: none; stroke: #ff0000; stroke-width: 2; stroke-linecap: square"/>
   </g>
   <g id="patch_3">
    <path d="M 36.465625 273.312 
L 36.465625 7.2 
" style="fill: none; stroke: #000000; stroke-width: 0.8; stroke-linejoin: miter; stroke-linecap: square"/>
   </g>
   <g id="patch_4">
    <path d="M 393.585625 273.312 
L 393.585625 7.2 
" style="fill: none; stroke: #000000; stroke-width: 0.8; stroke-linejoin: miter; stroke-linecap: square"/>
   </g>
   <g id="patch_5">
    <path d="M 36.465625 273.312 
L 393.585625 273.312 
" style="fill: none; stroke: #000000; stroke-width: 0.8; stroke-linejoin: miter; stroke-linecap: square"/>
   </g>
   <g id="patch_6">
    <path d="M 36.465625 7.2 
L 393.585625 7.2 
" style="fill: none; stroke: #000000; stroke-width: 0.8; stroke-linejoin: miter; stroke-linecap: square"/>
   </g>
   <g id="legend_1">
    <g id="patch_7">
     <path d="M 290.004375 44.55625 
L 386.585625 44.55625 
Q 388.585625 44.55625 388.585625 42.55625 
L 388.585625 14.2 
Q 388.585625 12.2 386.585625 12.2 
L 290.004375 12.2 
Q 288.004375 12.2 288.004375 14.2 
L 288.004375 42.55625 
Q 288.004375 44.55625 290.004375 44.55625 
z
" style="fill: #ffffff; opacity: 0.8; stroke: #cccccc; stroke-linejoin: miter"/>
    </g>
    <g id="line2d_32">
     <path d="M 292.004375 20.298437 
L 302.004375 20.298437 
L 312.004375 20.298437 
" style="fill: none; stroke: #ff0000; stroke-width: 2; stroke-linecap: square"/>
    </g>
    <g id="text_16">
     <!-- Ground truth -->
     <g transform="translate(320.004375 23.798437) scale(0.1 -0.1)">
      <defs>
       <path id="DejaVuSans-47" d="M 3809 666 
L 3809 1919 
L 2778 1919 
L 2778 2438 
L 4434 2438 
L 4434 434 
Q 4069 175 3628 42 
Q 3188 -91 2688 -91 
Q 1594 -91 976 548 
Q 359 1188 359 2328 
Q 359 3472 976 4111 
Q 1594 4750 2688 4750 
Q 3144 4750 3555 4637 
Q 3966 4525 4313 4306 
L 4313 3634 
Q 3963 3931 3569 4081 
Q 3175 4231 2741 4231 
Q 1884 4231 1454 3753 
Q 1025 3275 1025 2328 
Q 1025 1384 1454 906 
Q 1884 428 2741 428 
Q 3075 428 3337 486 
Q 3600 544 3809 666 
z
" transform="scale(0.015625)"/>
       <path id="DejaVuSans-72" d="M 2631 2963 
Q 2534 3019 2420 3045 
Q 2306 3072 2169 3072 
Q 1681 3072 1420 2755 
Q 1159 2438 1159 1844 
L 1159 0 
L 581 0 
L 581 3500 
L 1159 3500 
L 1159 2956 
Q 1341 3275 1631 3429 
Q 1922 3584 2338 3584 
Q 2397 3584 2469 3576 
Q 2541 3569 2628 3553 
L 2631 2963 
z
" transform="scale(0.015625)"/>
       <path id="DejaVuSans-6f" d="M 1959 3097 
Q 1497 3097 1228 2736 
Q 959 2375 959 1747 
Q 959 1119 1226 758 
Q 1494 397 1959 397 
Q 2419 397 2687 759 
Q 2956 1122 2956 1747 
Q 2956 2369 2687 2733 
Q 2419 3097 1959 3097 
z
M 1959 3584 
Q 2709 3584 3137 3096 
Q 3566 2609 3566 1747 
Q 3566 888 3137 398 
Q 2709 -91 1959 -91 
Q 1206 -91 779 398 
Q 353 888 353 1747 
Q 353 2609 779 3096 
Q 1206 3584 1959 3584 
z
" transform="scale(0.015625)"/>
       <path id="DejaVuSans-75" d="M 544 1381 
L 544 3500 
L 1119 3500 
L 1119 1403 
Q 1119 906 1312 657 
Q 1506 409 1894 409 
Q 2359 409 2629 706 
Q 2900 1003 2900 1516 
L 2900 3500 
L 3475 3500 
L 3475 0 
L 2900 0 
L 2900 538 
Q 2691 219 2414 64 
Q 2138 -91 1772 -91 
Q 1169 -91 856 284 
Q 544 659 544 1381 
z
M 1991 3584 
L 1991 3584 
z
" transform="scale(0.015625)"/>
       <path id="DejaVuSans-6e" d="M 3513 2113 
L 3513 0 
L 2938 0 
L 2938 2094 
Q 2938 2591 2744 2837 
Q 2550 3084 2163 3084 
Q 1697 3084 1428 2787 
Q 1159 2491 1159 1978 
L 1159 0 
L 581 0 
L 581 3500 
L 1159 3500 
L 1159 2956 
Q 1366 3272 1645 3428 
Q 1925 3584 2291 3584 
Q 2894 3584 3203 3211 
Q 3513 2838 3513 2113 
z
" transform="scale(0.015625)"/>
       <path id="DejaVuSans-64" d="M 2906 2969 
L 2906 4863 
L 3481 4863 
L 3481 0 
L 2906 0 
L 2906 525 
Q 2725 213 2448 61 
Q 2172 -91 1784 -91 
Q 1150 -91 751 415 
Q 353 922 353 1747 
Q 353 2572 751 3078 
Q 1150 3584 1784 3584 
Q 2172 3584 2448 3432 
Q 2725 3281 2906 2969 
z
M 947 1747 
Q 947 1113 1208 752 
Q 1469 391 1925 391 
Q 2381 391 2643 752 
Q 2906 1113 2906 1747 
Q 2906 2381 2643 2742 
Q 2381 3103 1925 3103 
Q 1469 3103 1208 2742 
Q 947 2381 947 1747 
z
" transform="scale(0.015625)"/>
       <path id="DejaVuSans-20" transform="scale(0.015625)"/>
       <path id="DejaVuSans-74" d="M 1172 4494 
L 1172 3500 
L 2356 3500 
L 2356 3053 
L 1172 3053 
L 1172 1153 
Q 1172 725 1289 603 
Q 1406 481 1766 481 
L 2356 481 
L 2356 0 
L 1766 0 
Q 1100 0 847 248 
Q 594 497 594 1153 
L 594 3053 
L 172 3053 
L 172 3500 
L 594 3500 
L 594 4494 
L 1172 4494 
z
" transform="scale(0.015625)"/>
       <path id="DejaVuSans-68" d="M 3513 2113 
L 3513 0 
L 2938 0 
L 2938 2094 
Q 2938 2591 2744 2837 
Q 2550 3084 2163 3084 
Q 1697 3084 1428 2787 
Q 1159 2491 1159 1978 
L 1159 0 
L 581 0 
L 581 4863 
L 1159 4863 
L 1159 2956 
Q 1366 3272 1645 3428 
Q 1925 3584 2291 3584 
Q 2894 3584 3203 3211 
Q 3513 2838 3513 2113 
z
" transform="scale(0.015625)"/>
      </defs>
      <use xlink:href="#DejaVuSans-47"/>
      <use xlink:href="#DejaVuSans-72" x="77.490234"/>
      <use xlink:href="#DejaVuSans-6f" x="116.353516"/>
      <use xlink:href="#DejaVuSans-75" x="177.535156"/>
      <use xlink:href="#DejaVuSans-6e" x="240.914062"/>
      <use xlink:href="#DejaVuSans-64" x="304.292969"/>
      <use xlink:href="#DejaVuSans-20" x="367.769531"/>
      <use xlink:href="#DejaVuSans-74" x="399.556641"/>
      <use xlink:href="#DejaVuSans-72" x="438.765625"/>
      <use xlink:href="#DejaVuSans-75" x="479.878906"/>
      <use xlink:href="#DejaVuSans-74" x="543.257812"/>
      <use xlink:href="#DejaVuSans-68" x="582.466797"/>
     </g>
    </g>
    <g id="PathCollection_2">
     <g>
      <use xlink:href="#m77ecc3efac" x="302.004375" y="35.851562" style="fill: #0000ff; stroke: #0000ff"/>
     </g>
    </g>
    <g id="text_17">
     <!-- Data -->
     <g transform="translate(320.004375 38.476562) scale(0.1 -0.1)">
      <defs>
       <path id="DejaVuSans-44" d="M 1259 4147 
L 1259 519 
L 2022 519 
Q 2988 519 3436 956 
Q 3884 1394 3884 2338 
Q 3884 3275 3436 3711 
Q 2988 4147 2022 4147 
L 1259 4147 
z
M 628 4666 
L 1925 4666 
Q 3281 4666 3915 4102 
Q 4550 3538 4550 2338 
Q 4550 1131 3912 565 
Q 3275 0 1925 0 
L 628 0 
L 628 4666 
z
" transform="scale(0.015625)"/>
       <path id="DejaVuSans-61" d="M 2194 1759 
Q 1497 1759 1228 1600 
Q 959 1441 959 1056 
Q 959 750 1161 570 
Q 1363 391 1709 391 
Q 2188 391 2477 730 
Q 2766 1069 2766 1631 
L 2766 1759 
L 2194 1759 
z
M 3341 1997 
L 3341 0 
L 2766 0 
L 2766 531 
Q 2569 213 2275 61 
Q 1981 -91 1556 -91 
Q 1019 -91 701 211 
Q 384 513 384 1019 
Q 384 1609 779 1909 
Q 1175 2209 1959 2209 
L 2766 2209 
L 2766 2266 
Q 2766 2663 2505 2880 
Q 2244 3097 1772 3097 
Q 1472 3097 1187 3025 
Q 903 2953 641 2809 
L 641 3341 
Q 956 3463 1253 3523 
Q 1550 3584 1831 3584 
Q 2591 3584 2966 3190 
Q 3341 2797 3341 1997 
z
" transform="scale(0.015625)"/>
      </defs>
      <use xlink:href="#DejaVuSans-44"/>
      <use xlink:href="#DejaVuSans-61" x="77.001953"/>
      <use xlink:href="#DejaVuSans-74" x="138.28125"/>
      <use xlink:href="#DejaVuSans-61" x="177.490234"/>
     </g>
    </g>
   </g>
  </g>
 </g>
 <defs>
  <clipPath id="p19e673e915">
   <rect x="36.465625" y="7.2" width="357.12" height="266.112"/>
  </clipPath>
 </defs>
</svg>